<svg width="474" height="258" viewBox="0 0 474 258" fill="none" xmlns="http://www.w3.org/2000/svg">
<g clip-path="url(#clip0_181_534)">
<path fill-rule="evenodd" clip-rule="evenodd" d="M116.016 3.90451C116.364 3.40602 116.867 3.58729 116.554 1.43017C115.382 -2.10278 116.875 2.09362 116.736 1.49362C116.563 2.53592 115.924 2.02836 115.532 1.97217C115.652 2.43985 115.814 3.19393 116.016 3.90451Z" fill="#1A1A1A"/>
<path fill-rule="evenodd" clip-rule="evenodd" d="M41.6072 220.082C38.8975 215.577 36.6872 210.623 34.5187 206.204C33.3652 207.984 30.0597 227.461 25.4932 258H35.3733C38.3654 235.582 40.5904 221.681 41.6072 220.082Z" fill="#1A1A1A"/>
<path fill-rule="evenodd" clip-rule="evenodd" d="M33.1466 207.161C30.9563 202.979 28.9208 198.997 26.8617 195.971C25.741 197.594 21.7412 221.467 16.2417 258H25.1725C29.1686 228.013 32.0733 208.878 33.1466 207.161Z" fill="#1A1A1A"/>
<path fill-rule="evenodd" clip-rule="evenodd" d="M25.8756 194.757C24.0297 192.126 22.2676 189.629 20.5274 187.254C18.4664 199.172 16.38 210.933 14.3773 222.622C12.3401 234.491 10.3301 246.301 8.37305 257.975L8.50425 257.998H16.533C19.5251 237.226 22.7031 216.074 25.8756 194.755V194.757Z" fill="#1A1A1A"/>
<path fill-rule="evenodd" clip-rule="evenodd" d="M19.8041 186.018C18.2624 183.558 16.7919 181.37 15.3924 179.309C12.7393 192.393 10.0897 205.334 7.53859 218.026C4.96377 230.848 2.43633 243.522 0 255.95V256.459C2.31424 256.896 4.69226 257.329 7.13405 257.725C9.12576 245.958 11.2323 234.007 13.357 221.953C15.4453 210.101 17.6684 198.136 19.8041 186.018Z" fill="#1A1A1A"/>
<path fill-rule="evenodd" clip-rule="evenodd" d="M14.6963 178.395C13.377 176.425 12.3384 174.436 11.42 172.324C8.19095 186.393 4.92368 200.338 1.90059 214.064L0 222.694V250.503C2.15753 239.646 4.39706 228.632 6.66027 217.504C9.26971 204.659 11.9684 191.57 14.6982 178.397L14.6963 178.395Z" fill="#1A1A1A"/>
<path fill-rule="evenodd" clip-rule="evenodd" d="M10.7475 171.527C9.62869 169.758 8.62464 168.077 7.73904 166.227C5.13871 176.769 2.54566 187.221 0 197.57V218.447L1.09334 213.6C4.19661 199.83 7.44201 185.753 10.7475 171.529V171.527Z" fill="#1A1A1A"/>
<path fill-rule="evenodd" clip-rule="evenodd" d="M7.24339 165.456C6.35778 163.995 5.7528 162.278 5.15146 160.571C3.41487 167.075 1.69832 173.541 0 179.963V194.57C2.39806 184.97 4.83257 175.259 7.24339 165.458V165.456Z" fill="#1A1A1A"/>
<path fill-rule="evenodd" clip-rule="evenodd" d="M4.50457 160.112C3.90505 158.628 3.36385 157.105 2.97936 155.635L0 166.236V177.03C1.48694 171.422 2.98847 165.779 4.50457 160.112Z" fill="#1A1A1A"/>
<path fill-rule="evenodd" clip-rule="evenodd" d="M2.73518 154.469C2.25411 153.037 1.87326 151.667 1.54161 150.44L0 155.706V164.175L2.73518 154.469Z" fill="#1A1A1A"/>
<path fill-rule="evenodd" clip-rule="evenodd" d="M1.43592 149.675C1.15894 148.377 1.03503 147.072 0.860095 145.812L0 148.667V154.547L1.43592 149.675Z" fill="#1A1A1A"/>
<path fill-rule="evenodd" clip-rule="evenodd" d="M0.789028 145.335C0.666938 144.093 0.748939 142.699 0.876495 141.376L0 144.202V147.942L0.789028 145.335Z" fill="#1A1A1A"/>
<path fill-rule="evenodd" clip-rule="evenodd" d="M0.927518 140.468C0.940274 139.417 1.16076 138.19 1.38125 136.89L0 141.324V143.446L0.927518 140.468Z" fill="#1A1A1A"/>
<path fill-rule="evenodd" clip-rule="evenodd" d="M1.40325 136.558C1.61099 135.45 1.96086 134.385 2.36357 133.176L0.00195312 140.778V141.03L1.40507 136.558H1.40325Z" fill="#1A1A1A"/>
<path fill-rule="evenodd" clip-rule="evenodd" d="M2.59304 132.461C3.0814 131.41 3.62078 130.259 3.99799 129.36C2.66958 133.665 1.33388 137.97 0 142.266V140.802C0.871029 138.023 1.73841 135.246 2.59304 132.461Z" fill="#1A1A1A"/>
<path fill-rule="evenodd" clip-rule="evenodd" d="M4.41332 128.675C4.98551 127.676 5.7472 126.552 6.50525 125.491C4.33315 132.599 2.15557 139.703 -0.00195312 146.787V142.98C1.47406 138.213 2.95189 133.437 4.4115 128.675H4.41332Z" fill="#1A1A1A"/>
<path fill-rule="evenodd" clip-rule="evenodd" d="M117.662 258C112.408 252.895 107.415 248.146 102.677 243.299C99.7618 248.09 96.7132 253.033 93.6719 258H117.662Z" fill="#1A1A1A"/>
<path fill-rule="evenodd" clip-rule="evenodd" d="M99.9734 240.85C94.5504 235.151 89.5192 230.427 84.785 226.064C79.4368 233.434 74.4803 240.589 69.2505 248.519C71.5884 251.384 73.9755 254.599 76.4738 258.002H89.2514C92.8521 252.116 96.4237 246.426 99.9734 240.85Z" fill="#1A1A1A"/>
<path fill-rule="evenodd" clip-rule="evenodd" d="M82.5673 223.727C77.8769 219.54 73.7459 215.559 69.7352 211.729C65.0465 218.014 60.2358 224.717 55.5454 231.33C59.1261 235.907 63.0785 240.587 67.1439 245.759C72.3118 238.285 77.261 231.04 82.5673 223.727Z" fill="#1A1A1A"/>
<path fill-rule="evenodd" clip-rule="evenodd" d="M67.7928 209.967C64.0936 206.728 60.5475 203.439 57.2274 200.385C53.0709 205.89 48.7595 211.238 44.3916 216.942C47.4329 220.696 50.5344 224.659 53.8399 229.116C58.4957 222.698 63.2025 216.076 67.7946 209.967H67.7928Z" fill="#1A1A1A"/>
<path fill-rule="evenodd" clip-rule="evenodd" d="M45.7034 189.148C43.1578 186.627 40.6522 184.377 38.2323 182.202C34.801 186.264 31.0527 190.732 27.6323 195.052C29.5712 197.659 31.8216 200.443 34.0648 203.615C37.9608 198.514 41.7656 194.066 45.7034 189.148Z" fill="#1A1A1A"/>
<path fill-rule="evenodd" clip-rule="evenodd" d="M36.8253 181.455C34.6624 179.338 32.4739 177.416 30.5714 175.27C27.5028 178.89 24.2847 182.621 21.2944 186.24C22.9253 188.686 24.7439 191.137 26.6427 193.749C29.961 189.681 33.4979 185.437 36.8253 181.455Z" fill="#1A1A1A"/>
<path fill-rule="evenodd" clip-rule="evenodd" d="M29.1942 174.034C27.4358 172.089 25.7502 170.318 24.1357 168.558C21.3313 171.75 18.4394 175.123 15.7808 178.268C17.0691 180.286 18.5906 182.331 20.1851 184.582C23.1736 181 26.3352 177.413 29.1961 174.034H29.1942Z" fill="#1A1A1A"/>
<path fill-rule="evenodd" clip-rule="evenodd" d="M23.1207 167.577C21.5845 166.069 20.2179 164.499 18.7583 163.043C16.3292 165.779 13.7672 168.581 11.3345 171.317C12.3586 173.287 13.5558 175.223 14.6564 177.306C17.4772 174.137 20.4201 170.778 23.1207 167.577Z" fill="#1A1A1A"/>
<path fill-rule="evenodd" clip-rule="evenodd" d="M18.1913 162.282C16.9066 160.897 15.7367 159.289 14.729 157.857C12.4676 160.297 10.3411 162.701 7.9248 165.299C8.91792 167.05 9.92197 168.705 10.9843 170.503C13.3587 167.853 15.8133 165.103 18.1931 162.282H18.1913Z" fill="#1A1A1A"/>
<path fill-rule="evenodd" clip-rule="evenodd" d="M14.0803 156.73C12.9869 155.455 12.0485 154.246 11.0681 152.999C8.97072 155.274 6.90066 157.614 5.08936 159.608C5.69252 161.184 6.51252 162.663 7.17764 164.356C9.43174 161.814 11.7697 159.199 14.0821 156.73H14.0803Z" fill="#1A1A1A"/>
<path fill-rule="evenodd" clip-rule="evenodd" d="M10.6767 152.606C9.80745 151.364 9.0986 150.017 8.33872 148.928C6.66956 150.665 4.98399 152.586 3.34033 154.442C3.82869 155.883 4.26603 157.415 4.86372 158.9C6.78071 156.788 8.68859 154.674 10.6767 152.606Z" fill="#1A1A1A"/>
<path fill-rule="evenodd" clip-rule="evenodd" d="M8.01578 148.19C7.2632 147.148 6.81493 145.944 6.37031 144.826C4.92163 146.339 3.41099 147.924 1.99512 149.47C2.2721 150.793 2.70397 152.096 2.9773 153.657C4.61731 151.883 6.40675 149.885 8.01761 148.19H8.01578Z" fill="#1A1A1A"/>
<path fill-rule="evenodd" clip-rule="evenodd" d="M6.04451 144.342C5.70557 143.176 5.31197 142.196 4.97303 141.097C3.68654 142.439 2.54217 143.753 1.19189 145.17C1.37047 146.374 1.54541 147.672 1.82239 148.924C3.29111 147.307 4.6997 145.776 6.04451 144.344V144.342Z" fill="#1A1A1A"/>
<path fill-rule="evenodd" clip-rule="evenodd" d="M4.81421 140.312C4.6247 139.237 4.38416 138.285 4.3459 137.149C3.16873 138.423 2.14099 139.538 1.16245 140.575C1.03489 141.916 1.06587 143.091 1.13694 144.405C2.2813 143.158 3.62793 141.646 4.81421 140.314V140.312Z" fill="#1A1A1A"/>
<path fill-rule="evenodd" clip-rule="evenodd" d="M22.1512 110.771C23.6382 109.971 25.034 109.219 26.5647 108.606C26.5629 108.826 26.6084 108.958 26.7469 108.943C25.1215 109.705 23.3995 110.713 22.0474 111.436C22.0528 111.14 22.0528 111.055 22.1512 110.771Z" fill="#1A1A1A"/>
<path fill-rule="evenodd" clip-rule="evenodd" d="M4.16383 133.29C4.36427 132.267 4.51005 131.287 4.74694 130.426C4.1456 131.02 3.34018 131.89 2.68053 132.637C2.32701 133.794 1.97714 134.925 1.61816 136.096C2.58759 135.068 3.30373 134.245 4.16201 133.29H4.16383Z" fill="#1A1A1A"/>
<path fill-rule="evenodd" clip-rule="evenodd" d="M5.02198 129.65C5.35727 128.704 5.73447 127.743 6.11167 126.818C5.51216 127.509 5.06024 128.107 4.45891 128.774C3.83206 129.884 3.34552 130.939 2.85352 132.101C3.61703 131.201 4.22201 130.502 5.0238 129.65H5.02198Z" fill="#1A1A1A"/>
<path fill-rule="evenodd" clip-rule="evenodd" d="M12.1287 118.46C12.9961 117.555 13.9054 116.723 14.8584 115.977C14.6161 116.314 14.3719 116.667 14.1769 116.952C13.1236 117.889 12.1178 118.759 11.1538 119.655C11.4946 119.279 11.6914 118.998 12.1287 118.46Z" fill="#1A1A1A"/>
<path fill-rule="evenodd" clip-rule="evenodd" d="M171.669 249.556C162.491 243.377 154.544 237.524 146.251 232.144C141.305 240.536 136.165 248.833 130.973 258.002H167.152C168.644 255.156 170.149 252.341 171.669 249.556Z" fill="#1A1A1A"/>
<path fill-rule="evenodd" clip-rule="evenodd" d="M142.534 229.76C135.239 224.617 128.417 219.692 122.103 215.178C116.807 223.062 111.563 230.916 106.34 239.257C112.47 244.932 118.744 251.251 125.915 257.387C131.412 247.724 137.127 238.704 142.534 229.76Z" fill="#1A1A1A"/>
<path fill-rule="evenodd" clip-rule="evenodd" d="M119.081 213.074C113.031 209.572 107.678 205.709 102.472 202.113C97.6682 208.544 92.7063 215.287 87.9102 222.322C92.7937 226.899 97.8031 231.571 103.417 236.929C108.767 228.536 113.768 220.629 119.081 213.074Z" fill="#1A1A1A"/>
<path fill-rule="evenodd" clip-rule="evenodd" d="M100.101 200.2C95.0862 196.97 90.5142 193.696 86.1098 190.946C81.7018 196.451 77.0114 202.693 72.5342 209.059C76.6342 212.661 81.0039 216.175 85.7199 220.211C90.3356 213.489 95.2648 206.809 100.101 200.2Z" fill="#1A1A1A"/>
<path fill-rule="evenodd" clip-rule="evenodd" d="M84.0107 189.605C79.8159 187.116 76.0256 184.466 72.2664 182.302C68.0862 187.216 64.0791 192.326 59.8096 197.816C63.1661 200.742 66.8598 203.726 70.5662 207.041C74.9979 201.228 79.5918 195.07 84.0107 189.605Z" fill="#1A1A1A"/>
<path fill-rule="evenodd" clip-rule="evenodd" d="M34.0156 105.804C33.0407 105.704 32.1587 105.599 31.3715 105.447C29.757 107.037 28.2755 108.519 26.6938 110.027C27.4829 110.136 28.2263 110.394 29.0646 110.589C30.6937 109.052 32.2662 107.453 34.0156 105.804Z" fill="#1A1A1A"/>
<path fill-rule="evenodd" clip-rule="evenodd" d="M59.1206 173.434C56.1522 171.659 53.4644 169.779 50.7018 168.054C47.2797 172.121 43.7555 176.209 40.2969 180.366C42.7624 182.35 45.319 184.547 48.0705 186.755C51.7132 182.274 55.3668 177.891 59.1206 173.434Z" fill="#1A1A1A"/>
<path fill-rule="evenodd" clip-rule="evenodd" d="M49.1604 167.501C46.6986 165.773 44.2148 164.218 41.8532 162.628C38.914 166.016 35.8398 169.56 32.8896 173.138C34.8978 175.142 37.0316 177.039 39.2511 179.104C42.5111 175.335 45.8312 171.411 49.1604 167.501Z" fill="#1A1A1A"/>
<path fill-rule="evenodd" clip-rule="evenodd" d="M40.3826 161.688C38.1649 160.341 36.3791 158.766 34.4075 157.482C31.6067 160.607 28.7804 163.7 26.1309 166.783C27.7454 168.473 29.5366 170.122 31.4573 171.973C34.5095 168.253 37.4889 164.907 40.3807 161.688H40.3826Z" fill="#1A1A1A"/>
<path fill-rule="evenodd" clip-rule="evenodd" d="M33.292 156.625C31.4443 155.33 29.766 154.018 28.0021 153.005C25.5548 155.655 22.9836 158.414 20.3833 161.515C21.7901 162.976 23.2643 164.403 24.9097 166.063C27.6121 163.003 30.4912 159.679 33.292 156.625Z" fill="#1A1A1A"/>
<path fill-rule="evenodd" clip-rule="evenodd" d="M27.379 152.448C25.8337 151.221 24.3504 150.188 23.0785 148.999C20.8371 151.426 18.5247 153.942 16.2925 156.306C17.4569 157.68 18.6304 159.199 20.0226 160.687C22.4626 157.832 24.9299 155.14 27.379 152.446V152.448Z" fill="#1A1A1A"/>
<path fill-rule="evenodd" clip-rule="evenodd" d="M22.1692 148.185C20.8116 147.3 19.7165 146.12 18.6268 145.107C16.4893 147.333 14.3318 149.675 12.207 152.058C13.3459 153.092 14.2315 154.471 15.2793 155.727C17.5134 153.249 19.9297 150.632 22.1692 148.186V148.185Z" fill="#1A1A1A"/>
<path fill-rule="evenodd" clip-rule="evenodd" d="M18.0294 144.788C16.8468 143.927 16.0742 142.779 15.1047 141.795C13.2752 143.698 11.3819 145.725 9.62891 147.657C10.4926 148.738 11.2562 149.945 12.1272 151.192C14.0934 149.051 16.045 146.905 18.0294 144.788Z" fill="#1A1A1A"/>
<path fill-rule="evenodd" clip-rule="evenodd" d="M9.73433 135.273C9.3389 134.33 8.98903 133.493 8.68836 132.628C7.43284 133.955 6.3231 135.13 5.15869 136.373C5.3482 137.381 5.64158 138.309 5.73087 139.489C7.15586 138.019 8.42778 136.634 9.73615 135.275L9.73433 135.273Z" fill="#1A1A1A"/>
<path fill-rule="evenodd" clip-rule="evenodd" d="M8.364 132.324C8.26378 131.316 7.96129 130.625 7.90662 129.782C6.95724 130.772 5.95319 131.841 4.99651 132.884C4.94731 133.844 5.04025 134.849 5.13682 135.806C6.20101 134.64 7.25973 133.455 8.364 132.324Z" fill="#1A1A1A"/>
<path fill-rule="evenodd" clip-rule="evenodd" d="M8.05436 126.472C8.13271 125.845 8.36232 124.921 8.53361 124.226C7.89218 124.935 7.19608 125.734 6.60203 126.387C6.13008 127.368 5.80025 128.299 5.51416 129.242C6.35968 128.381 7.16146 127.435 8.05253 126.474L8.05436 126.472Z" fill="#1A1A1A"/>
<path fill-rule="evenodd" clip-rule="evenodd" d="M9.67246 121.734C10.026 121.125 10.5726 120.211 11.3088 119.303C10.917 119.816 10.4269 120.369 10.2264 120.764C9.34445 121.821 8.69938 122.662 8.00146 123.614C8.49711 123.024 9.1349 122.339 9.67428 121.734H9.67246Z" fill="#1A1A1A"/>
<path fill-rule="evenodd" clip-rule="evenodd" d="M14.6433 115.438C15.3157 114.697 16.0282 114.039 16.6897 113.45C16.2596 114.006 15.8751 114.534 15.4469 114.991C14.636 115.743 13.8215 116.557 13.1035 117.207C13.683 116.56 14.1149 116.071 14.6451 115.438H14.6433Z" fill="#1A1A1A"/>
<path fill-rule="evenodd" clip-rule="evenodd" d="M12.8922 119.192C13.0052 118.627 13.2603 118.018 13.3732 117.447C12.6954 118.246 11.9683 119.049 11.2886 119.772C11.0335 120.434 10.6763 121.157 10.4121 121.872C11.1938 121.04 12.0685 120.15 12.8922 119.192Z" fill="#1A1A1A"/>
<path fill-rule="evenodd" clip-rule="evenodd" d="M323.394 162.686C308.43 159.536 294.679 156.431 281.729 153.476C276.738 161.526 271.643 169.214 266.872 177.464C279.435 180.96 293.294 185.467 308.641 190.056C313.634 180.556 318.474 171.569 323.396 162.686H323.394Z" fill="#1A1A1A"/>
<path fill-rule="evenodd" clip-rule="evenodd" d="M237.095 153.596C226.648 151.279 217.457 148.995 208.309 147.268C203.823 153.344 198.937 159.637 194.066 166.236C202.992 168.947 212.36 171.859 222.428 175.08C227.118 167.844 232.224 160.411 237.095 153.594V153.596Z" fill="#1A1A1A"/>
<path fill-rule="evenodd" clip-rule="evenodd" d="M224.804 106.304C216.483 105.971 208.699 105.467 201.187 105.068C196.962 109.683 192.825 114.184 188.849 118.861C196.134 119.522 203.872 120.363 212.103 121.567C216.21 116.296 220.31 111.191 224.804 106.304Z" fill="#1A1A1A"/>
<path fill-rule="evenodd" clip-rule="evenodd" d="M269.011 258C258.346 252.342 248.365 246.991 238.966 241.834C236.28 247.114 233.589 252.5 230.928 258H269.009H269.011Z" fill="#1A1A1A"/>
<path fill-rule="evenodd" clip-rule="evenodd" d="M232.581 238.522C220.336 232.009 209.546 225.73 198.99 220.111C193.452 229.693 187.78 239.998 182.134 250.283C185.589 252.839 189.106 255.402 192.712 258H223.076C226.293 251.344 229.454 244.874 232.581 238.522Z" fill="#1A1A1A"/>
<path fill-rule="evenodd" clip-rule="evenodd" d="M194.106 217.589C184.549 212.898 175.726 208.54 167.62 204.221C162.398 212.151 156.834 220.664 151.811 229.446C159.706 234.917 168.2 240.531 177.539 246.578C182.934 236.449 188.567 227.039 194.106 217.589Z" fill="#1A1A1A"/>
<path fill-rule="evenodd" clip-rule="evenodd" d="M163.183 203.017C155.287 198.978 148.091 195.447 141.269 192.074C136.566 198.759 131.604 205.676 126.616 212.711C133.167 217.174 140.339 222.094 147.893 227.269C153.075 218.539 158.073 210.817 163.183 203.015V203.017Z" fill="#1A1A1A"/>
<path fill-rule="evenodd" clip-rule="evenodd" d="M137.061 189.614C130.756 186.706 124.803 183.871 119.165 181.051C114.666 186.817 110.147 192.902 105.622 199.154C110.959 202.85 116.545 206.381 122.642 209.907C127.367 203.222 132.252 196.381 137.061 189.616V189.614Z" fill="#1A1A1A"/>
<path fill-rule="evenodd" clip-rule="evenodd" d="M115.905 179.399C110.781 176.503 105.875 174.366 101.008 172.248C96.7733 177.639 92.4272 183.148 87.9609 188.715C92.5639 191.298 97.3764 194.296 102.227 197.626C106.721 191.465 111.415 185.289 115.905 179.399Z" fill="#1A1A1A"/>
<path fill-rule="evenodd" clip-rule="evenodd" d="M98.8783 171.656C94.5541 169.562 90.2846 167.593 86.1281 165.851C82.4472 170.495 78.5531 175.123 74.71 179.753C78.4838 182.089 82.48 184.606 86.5326 187.303C90.7019 182.002 94.9113 176.699 98.8765 171.656H98.8783Z" fill="#1A1A1A"/>
<path fill-rule="evenodd" clip-rule="evenodd" d="M71.4081 158.918C67.9731 157.671 64.9737 156.273 61.9944 154.897C58.7891 158.508 55.4562 162.3 52.3857 165.873C55.0918 167.619 57.7231 169.499 60.9521 171.154C64.3378 167.08 67.8365 162.966 71.4081 158.916V158.918Z" fill="#1A1A1A"/>
<path fill-rule="evenodd" clip-rule="evenodd" d="M60.4106 154.252C57.5169 152.881 54.9038 151.517 52.3326 150.507C49.3478 153.746 46.5853 156.9 43.4966 160.402C45.8509 161.934 48.2745 163.413 50.7801 165.108C54.0619 161.43 57.1451 157.81 60.4106 154.252Z" fill="#1A1A1A"/>
<path fill-rule="evenodd" clip-rule="evenodd" d="M51.0516 150.003C48.7064 148.899 46.578 147.753 44.3694 146.796C41.565 149.798 38.7788 152.744 36.2842 155.716C38.1046 157.058 40.2457 158.343 42.3559 159.723C45.3516 156.407 48.218 153.195 51.0498 150.003H51.0516Z" fill="#1A1A1A"/>
<path fill-rule="evenodd" clip-rule="evenodd" d="M42.7604 146.377C40.6211 145.417 38.7023 144.512 36.8436 143.475C34.6205 145.877 31.9819 148.7 29.7241 151.283C31.335 152.448 33.1645 153.608 35.0141 154.923C37.5142 152.02 40.2002 149.162 42.7604 146.377Z" fill="#1A1A1A"/>
<path fill-rule="evenodd" clip-rule="evenodd" d="M35.8161 142.952C34.0303 142.158 32.2499 141.373 30.6828 140.573C28.5034 142.886 26.4078 145.174 24.2412 147.434C25.6134 148.471 27.1969 149.428 28.6911 150.708C31.0509 148.043 33.3415 145.498 35.8161 142.953V142.952Z" fill="#1A1A1A"/>
<path fill-rule="evenodd" clip-rule="evenodd" d="M30.2252 140.131C28.6672 139.389 27.3188 138.561 25.83 137.89C23.944 139.823 21.9468 141.949 19.9351 144.037C21.1778 144.969 22.3787 146.02 23.7362 147.092C25.85 144.766 28.0458 142.491 30.2252 140.131Z" fill="#1A1A1A"/>
<path fill-rule="evenodd" clip-rule="evenodd" d="M25.1872 137.238C24.0027 136.362 22.8274 135.539 21.6557 134.921C19.7241 136.948 17.9766 138.789 16.2163 140.667C17.1365 141.657 18.1625 142.576 19.2449 143.555C21.2566 141.394 23.252 139.335 25.1872 137.236V137.238Z" fill="#1A1A1A"/>
<path fill-rule="evenodd" clip-rule="evenodd" d="M20.974 134.479C19.908 133.899 18.8966 133.29 18.0347 132.528C16.3983 134.259 14.9041 135.826 13.1475 137.7C13.9055 138.543 14.669 139.366 15.5346 140.216C17.293 138.389 19.0387 136.591 20.974 134.479Z" fill="#1A1A1A"/>
<path fill-rule="evenodd" clip-rule="evenodd" d="M184.164 128.113C177.2 127.155 170.563 126.338 164.121 125.33C160.103 130.15 156.056 134.798 151.796 139.636C157.935 140.93 164.47 142.152 171.43 143.87C175.705 138.479 179.991 133.29 184.166 128.113H184.164Z" fill="#1A1A1A"/>
<path fill-rule="evenodd" clip-rule="evenodd" d="M54.9205 103.297C53.0254 103.311 51.2287 103.315 49.5304 103.344C47.5405 105.338 45.4886 107.283 43.5698 109.219C45.2281 109.19 46.6658 109.467 48.4807 109.532C50.5763 107.439 52.7065 105.351 54.9224 103.295L54.9205 103.297Z" fill="#1A1A1A"/>
<path fill-rule="evenodd" clip-rule="evenodd" d="M54.6215 97.1028C52.9031 97.3112 51.274 97.4689 49.696 97.5976C47.7644 99.4103 45.9185 101.152 44.1108 102.864C45.5632 102.873 47.0629 102.854 48.6099 102.793C50.5488 100.948 52.6097 99.0007 54.6215 97.1028Z" fill="#1A1A1A"/>
<path fill-rule="evenodd" clip-rule="evenodd" d="M384.671 258C379.592 255.859 374.63 253.751 369.79 251.668C368.977 253.747 368.179 255.859 367.392 258H384.672H384.671Z" fill="#1A1A1A"/>
<path fill-rule="evenodd" clip-rule="evenodd" d="M180.427 82.6248C174.421 82.9384 168.717 83.2139 163.285 83.4713C159.936 86.7922 156.621 90.1602 153.203 93.3759C158.637 93.4085 164.074 93.3324 169.923 93.2526C173.316 89.6562 176.908 86.1396 180.425 82.6248H180.427Z" fill="#1A1A1A"/>
<path fill-rule="evenodd" clip-rule="evenodd" d="M297.052 221.081C281.767 214.834 267.75 209.311 254.412 204.204C249.215 213.804 243.651 224.12 238.578 235.173C251.673 242.014 265.389 248.96 280.723 256.392C285.907 244.383 291.507 232.484 297.05 221.081H297.052Z" fill="#1A1A1A"/>
<path fill-rule="evenodd" clip-rule="evenodd" d="M210.512 187.045C200.841 183.453 191.635 180.257 183.1 177.112C178.129 184.219 173.063 191.755 168.136 199.374C176.294 203.546 185.279 207.785 194.462 212.072C199.812 203.679 205.151 195.039 210.51 187.047L210.512 187.045Z" fill="#1A1A1A"/>
<path fill-rule="evenodd" clip-rule="evenodd" d="M151.825 166.892C145.143 164.631 139.046 162.567 133.24 160.44C129.031 165.621 124.626 171.25 120.4 177.036C125.929 179.704 131.981 182.535 138.091 185.461C142.508 179.033 147.266 172.734 151.827 166.892H151.825Z" fill="#1A1A1A"/>
<path fill-rule="evenodd" clip-rule="evenodd" d="M129.924 159.413C124.389 157.556 119.205 155.916 114.236 154.417C110.074 159.327 106.034 164.312 101.872 169.27C106.599 171.288 111.415 173.314 116.625 175.836C121.139 170.046 125.463 164.47 129.924 159.413Z" fill="#1A1A1A"/>
<path fill-rule="evenodd" clip-rule="evenodd" d="M112.095 153.871C107.488 152.387 103.018 150.926 98.632 149.441C94.9784 153.77 91.323 158.024 87.5874 162.438C91.6273 164.245 95.8932 166.274 100.234 168.228C104.297 163.332 108.31 158.494 112.093 153.869L112.095 153.871Z" fill="#1A1A1A"/>
<path fill-rule="evenodd" clip-rule="evenodd" d="M95.7346 148.562C91.804 147.378 87.9536 146.24 84.4367 145.107C80.7631 149.198 77.2753 153.005 73.835 157.096C77.1332 158.396 80.6829 159.869 84.5698 161.726C88.2361 157.069 92.0992 152.706 95.7346 148.562Z" fill="#1A1A1A"/>
<path fill-rule="evenodd" clip-rule="evenodd" d="M82.7132 144.741C79.1398 143.756 75.9381 142.629 72.7201 141.704C69.5676 145.107 66.3532 148.765 63.3574 152.309C66.2639 153.579 69.2524 154.991 72.7219 156.168C75.9436 152.49 79.3639 148.507 82.7114 144.741H82.7132Z" fill="#1A1A1A"/>
<path fill-rule="evenodd" clip-rule="evenodd" d="M71.007 141.153C67.9274 140.325 65.0282 139.607 62.2913 138.808C59.403 141.956 56.4309 145.054 53.6885 148.138C56.1941 149.089 58.9402 150.211 61.6662 151.558C64.7148 147.989 67.8527 144.594 71.007 141.153Z" fill="#1A1A1A"/>
<path fill-rule="evenodd" clip-rule="evenodd" d="M61.0303 138.412C58.4209 137.695 55.9244 136.933 53.5355 136.099C50.8659 138.972 48.1708 141.837 45.6543 144.63C47.7572 145.638 50.0787 146.638 52.4622 147.576C55.314 144.559 58.133 141.458 61.0321 138.412H61.0303Z" fill="#1A1A1A"/>
<path fill-rule="evenodd" clip-rule="evenodd" d="M51.8973 135.811C49.5867 135.112 47.5349 134.323 45.5523 133.699C43.0977 136.159 40.6814 138.681 38.2925 141.126C40.0509 142.216 42.0663 143.2 44.2475 144.081C46.8187 141.264 49.3188 138.548 51.8991 135.811H51.8973Z" fill="#1A1A1A"/>
<path fill-rule="evenodd" clip-rule="evenodd" d="M44.0945 133.58C42.1739 132.918 40.2642 132.362 38.4128 131.852C36.3883 133.97 34.1542 136.283 32.1006 138.532C33.7643 139.217 35.3879 139.997 37.17 140.758C39.4114 138.407 41.7366 136.043 44.0945 133.578V133.58Z" fill="#1A1A1A"/>
<path fill-rule="evenodd" clip-rule="evenodd" d="M37.9082 131.466C36.3101 130.814 34.7247 130.21 33.0957 129.673C31.1605 131.676 29.0703 133.917 27.1606 135.94C28.6002 136.663 29.996 137.434 31.4994 138.177C33.6022 135.951 35.7908 133.761 37.91 131.468L37.9082 131.466Z" fill="#1A1A1A"/>
<path fill-rule="evenodd" clip-rule="evenodd" d="M32.3539 129.222C30.8833 128.674 29.564 128.19 28.201 127.775C26.3114 129.644 24.46 131.471 22.645 133.418C23.8623 134.004 25.0376 134.713 26.2676 135.488C28.2776 133.429 30.2729 131.297 32.3521 129.222H32.3539Z" fill="#1A1A1A"/>
<path fill-rule="evenodd" clip-rule="evenodd" d="M139.407 122.794C134.188 122.261 129.164 121.857 124.346 121.33C120.783 125.163 117.15 129.09 113.525 132.962C118.174 133.741 122.815 134.675 128.027 135.73C131.828 131.334 135.589 126.962 139.407 122.794Z" fill="#1A1A1A"/>
<path fill-rule="evenodd" clip-rule="evenodd" d="M122.157 120.981C117.614 120.41 113.175 120.024 109.188 119.493C105.697 123.075 102.244 126.739 99.002 130.326C102.949 131.091 107.022 131.863 111.42 132.566C114.912 128.809 118.593 124.803 122.157 120.981Z" fill="#1A1A1A"/>
<path fill-rule="evenodd" clip-rule="evenodd" d="M107.21 119.274C103.066 118.875 99.3503 118.522 95.746 118.176C92.6245 121.344 89.3499 124.741 86.2339 127.995C89.6998 128.648 93.2841 129.307 97.058 130.107C100.342 126.405 103.806 122.751 107.21 119.274Z" fill="#1A1A1A"/>
<path fill-rule="evenodd" clip-rule="evenodd" d="M94.0455 117.98C90.5177 117.642 87.1684 117.438 83.9704 117.142C81.042 120.097 77.9279 123.365 75.1016 126.273C78.1465 126.786 81.3391 127.166 84.61 127.681C87.5966 124.565 90.9259 121.168 94.0473 117.98H94.0455Z" fill="#1A1A1A"/>
<path fill-rule="evenodd" clip-rule="evenodd" d="M82.4053 117.028C79.3184 116.686 76.4338 116.267 73.5383 116.153C70.8177 118.859 68.0315 121.676 65.2817 124.587C67.8766 125.035 70.6391 125.548 73.6185 126.101C76.4848 123.041 79.5243 119.977 82.4053 117.028Z" fill="#1A1A1A"/>
<path fill-rule="evenodd" clip-rule="evenodd" d="M72.1971 116.105C69.5002 115.848 67.0129 115.61 64.4891 115.444C61.8341 118.009 59.1663 120.648 56.8594 123.099C59.0716 123.541 61.4405 123.998 64.0572 124.326C66.7195 121.485 69.369 118.803 72.1953 116.105H72.1971Z" fill="#1A1A1A"/>
<path fill-rule="evenodd" clip-rule="evenodd" d="M63.3539 115.358C60.9358 115.112 58.5796 114.954 56.4695 114.726C54.0295 117.1 51.6278 119.549 49.2534 121.915C51.2415 122.381 53.5211 122.618 55.6622 122.934C58.166 120.456 60.646 117.923 63.3539 115.36V115.358Z" fill="#1A1A1A"/>
<path fill-rule="evenodd" clip-rule="evenodd" d="M55.2539 114.764C53.1091 114.574 51.1119 114.383 49.2186 114.208C47.1449 116.354 44.9601 118.513 42.7588 120.615C44.5683 120.92 46.4871 121.382 48.3148 121.79C50.5944 119.421 52.8631 117.171 55.2539 114.764Z" fill="#1A1A1A"/>
<path fill-rule="evenodd" clip-rule="evenodd" d="M48.0577 114.082C46.2246 113.954 44.5864 113.74 42.9081 113.658C40.9091 115.556 38.901 117.53 36.8838 119.533C38.4327 119.82 39.8905 120.166 41.5414 120.438C43.6953 118.33 45.9312 116.174 48.0577 114.081V114.082Z" fill="#1A1A1A"/>
<path fill-rule="evenodd" clip-rule="evenodd" d="M41.946 113.488C40.3679 113.297 38.983 113.127 37.5107 112.998C35.5991 114.864 33.6767 116.671 31.7925 118.612C33.0863 118.926 34.4785 119.154 35.9235 119.52C37.8951 117.503 39.9506 115.471 41.9478 113.488H41.946Z" fill="#1A1A1A"/>
<path fill-rule="evenodd" clip-rule="evenodd" d="M36.8911 112.964C35.5608 112.745 34.4238 112.464 33.2429 112.241C31.5155 113.968 29.7333 115.719 28.1279 117.342C29.1702 117.652 30.3583 117.951 31.4553 118.317C33.2448 116.528 35.1198 114.711 36.8911 112.964Z" fill="#1A1A1A"/>
<path fill-rule="evenodd" clip-rule="evenodd" d="M32.4902 112.088C31.4552 111.884 30.3291 111.822 29.3924 111.57C27.7561 113.183 26.1088 114.782 24.5981 116.323C25.4418 116.608 26.2892 116.918 27.2805 117.184C28.9314 115.567 30.7172 113.892 32.4921 112.088H32.4902Z" fill="#1A1A1A"/>
<path fill-rule="evenodd" clip-rule="evenodd" d="M20.7226 113.06C20.4037 112.788 20.1358 112.366 19.908 112.065C18.8201 113.216 17.7323 114.229 16.8248 115.248C16.8084 115.748 16.9833 116.191 17.2038 116.618C18.3956 115.438 19.4907 114.311 20.7207 113.06H20.7226Z" fill="#1A1A1A"/>
<path fill-rule="evenodd" clip-rule="evenodd" d="M41.939 103.663C44.5411 103.112 47.0977 102.559 50.0333 101.979C50.724 101.627 51.3745 101.466 52.2054 101.156C49.0894 101.917 46.254 102.521 43.5134 103.168C42.8719 103.601 42.4437 103.402 41.939 103.663Z" fill="#1A1A1A"/>
<path fill-rule="evenodd" clip-rule="evenodd" d="M59.6543 100.757C63.3389 100.438 67.0672 100.447 71.1253 100.262C71.887 100.192 72.7471 100.128 73.6363 99.8582C69.3978 100.262 65.5146 100.172 61.7681 100.397C60.8861 100.725 60.2137 100.607 59.6543 100.759V100.757Z" fill="#1A1A1A"/>
<path fill-rule="evenodd" clip-rule="evenodd" d="M133.511 108.416C128.812 108.117 124.149 107.95 119.938 107.678C116.563 111.055 113.228 114.49 109.974 117.987C114.137 118.406 118.575 118.81 122.994 119.323C126.478 115.56 130.082 111.825 133.51 108.414L133.511 108.416Z" fill="#1A1A1A"/>
<path fill-rule="evenodd" clip-rule="evenodd" d="M117.889 107.56C113.684 107.493 109.691 107.408 105.943 107.247C102.902 110.368 99.5559 113.636 96.6094 116.752C100.155 117.1 104.008 117.371 107.986 117.695C111.207 114.293 114.602 110.854 117.889 107.562V107.56Z" fill="#1A1A1A"/>
<path fill-rule="evenodd" clip-rule="evenodd" d="M104.137 107.232C100.423 107.142 96.9337 107.147 93.4915 107.065C90.5686 109.848 87.653 112.808 84.8213 115.857C88.0539 116.033 91.3977 116.267 94.8837 116.675C97.7847 113.573 101.085 110.29 104.139 107.23L104.137 107.232Z" fill="#1A1A1A"/>
<path fill-rule="evenodd" clip-rule="evenodd" d="M91.8882 106.966C88.61 106.899 85.5541 106.957 82.5875 106.861C79.783 109.549 77.0552 112.228 74.4038 114.887C77.1973 115.01 80.1202 115.362 83.2508 115.701C86.1044 112.79 89.0181 109.783 91.8882 106.966Z" fill="#1A1A1A"/>
<path fill-rule="evenodd" clip-rule="evenodd" d="M81.1568 106.793C78.2175 106.85 75.6591 106.712 72.9786 106.737C70.3364 109.288 67.767 111.742 65.2778 114.24C67.7506 114.463 70.3309 114.673 73.0642 114.844C75.7138 112.137 78.4089 109.578 81.1568 106.793Z" fill="#1A1A1A"/>
<path fill-rule="evenodd" clip-rule="evenodd" d="M71.7522 106.647C69.1282 106.618 66.7502 106.609 64.3758 106.523C61.9413 108.873 59.5869 111.195 57.2217 113.564C59.3428 113.974 61.6443 114.077 64.0532 114.244C66.6372 111.679 69.0626 109.201 71.754 106.647H71.7522Z" fill="#1A1A1A"/>
<path fill-rule="evenodd" clip-rule="evenodd" d="M63.2681 106.551C61.0522 106.551 58.8 106.65 56.8793 106.598C54.6562 108.677 52.3784 110.903 50.1279 113.035C52.0613 113.149 54.0512 113.31 56.1522 113.558C58.4246 111.204 60.8791 108.896 63.2681 106.551Z" fill="#1A1A1A"/>
<path fill-rule="evenodd" clip-rule="evenodd" d="M145.287 95.8901C140.343 95.9427 135.572 96.0134 131.115 96.124C127.863 99.3832 124.619 102.517 121.416 105.749C125.8 105.896 130.412 106.116 135.042 106.315C138.514 102.809 141.996 99.2545 145.287 95.892V95.8901Z" fill="#1A1A1A"/>
<path fill-rule="evenodd" clip-rule="evenodd" d="M129.034 96.2708C124.683 96.2853 120.472 96.4756 116.554 96.6043C113.474 99.5971 110.373 102.59 107.386 105.563C111.197 105.525 115.28 105.586 119.395 105.777C122.54 102.47 125.754 99.3723 129.034 96.2708Z" fill="#1A1A1A"/>
<path fill-rule="evenodd" clip-rule="evenodd" d="M114.573 96.637C110.715 96.7131 106.98 96.8654 103.452 97.0231C100.64 99.7258 97.7775 102.514 94.9111 105.445C98.2914 105.468 101.836 105.536 105.491 105.592C108.47 102.575 111.572 99.5264 114.571 96.637H114.573Z" fill="#1A1A1A"/>
<path fill-rule="evenodd" clip-rule="evenodd" d="M101.832 97.0413C98.3226 97.2407 95.2922 97.3023 92.0905 97.4836C89.2479 100.125 86.6676 102.661 83.936 105.3C86.9865 105.314 90.0897 105.282 93.4135 105.347C96.0995 102.541 98.9677 99.7531 101.832 97.0413Z" fill="#1A1A1A"/>
<path fill-rule="evenodd" clip-rule="evenodd" d="M90.4484 97.6213C87.5329 97.6775 84.6774 97.7591 81.8366 97.9259C79.2052 100.462 76.6869 102.869 74.2451 105.238C76.7908 105.367 79.5296 105.385 82.5108 105.32C85.1476 102.67 87.7861 100.186 90.4484 97.6213Z" fill="#1A1A1A"/>
<path fill-rule="evenodd" clip-rule="evenodd" d="M80.4409 97.9692C77.662 98.1596 75.2183 98.2647 72.8731 98.359C70.3894 100.647 67.8492 102.954 65.5732 105.191C67.8948 105.229 70.322 105.305 72.9843 105.238C75.4279 102.878 77.9025 100.476 80.4409 97.9692Z" fill="#1A1A1A"/>
<path fill-rule="evenodd" clip-rule="evenodd" d="M71.4117 98.6345C68.9408 98.8394 66.7541 98.9536 64.5255 99.0859C62.2531 101.236 59.8769 103.453 57.6812 105.671C59.7785 105.51 61.9853 105.481 64.2886 105.387C66.5718 103.241 68.8424 101.096 71.4117 98.6363V98.6345Z" fill="#1A1A1A"/>
<path fill-rule="evenodd" clip-rule="evenodd" d="M139.512 85.8169C134.988 86.0743 130.706 86.2501 126.565 86.5873C123.497 89.513 120.534 92.3444 117.538 95.3934C121.624 95.1179 125.709 95.0889 130.137 94.9602C133.146 91.9058 136.287 88.8568 139.511 85.8169H139.512Z" fill="#1A1A1A"/>
<path fill-rule="evenodd" clip-rule="evenodd" d="M124.493 86.8792C120.441 87.064 116.716 87.4121 112.959 87.8073C110.103 90.4339 107.337 93.1112 104.505 95.8375C108.155 95.533 111.709 95.5239 115.656 95.4007C118.63 92.4931 121.618 89.5348 124.493 86.8792Z" fill="#1A1A1A"/>
<path fill-rule="evenodd" clip-rule="evenodd" d="M111.224 87.9541C107.656 88.2296 104.349 88.5813 100.999 88.9438C98.2878 91.3982 95.6693 93.9541 92.9414 96.5173C96.1704 96.1892 99.3411 96.1221 102.887 95.8611C105.546 93.2925 108.372 90.6423 111.224 87.9541Z" fill="#1A1A1A"/>
<path fill-rule="evenodd" clip-rule="evenodd" d="M99.3683 89.0618C96.2122 89.3427 93.2401 89.5131 90.2899 89.7941C87.7424 92.1724 85.2696 94.5234 82.7422 96.9343C85.5812 96.7875 88.382 96.6624 91.5254 96.521C94.2113 93.9905 96.7005 91.5307 99.3683 89.0618Z" fill="#1A1A1A"/>
<path fill-rule="evenodd" clip-rule="evenodd" d="M88.8232 89.9717C86.1591 90.1475 83.5059 90.3995 80.7762 90.7856C78.3799 92.9735 75.9801 95.2539 73.6494 97.4364C76.1313 97.3168 78.7043 97.0702 81.3502 97.0032C83.9286 94.5904 86.4087 92.3028 88.8232 89.9717Z" fill="#1A1A1A"/>
<path fill-rule="evenodd" clip-rule="evenodd" d="M72.6218 92.4875C70.2784 92.7776 68.0334 93.044 65.9724 93.2253C63.855 95.1703 61.5954 97.2314 59.416 99.2779C61.4879 99.093 63.6217 99.0441 65.7501 98.9118C67.9131 96.7891 70.251 94.6447 72.6218 92.4894V92.4875Z" fill="#1A1A1A"/>
<path fill-rule="evenodd" clip-rule="evenodd" d="M64.7076 93.3342C62.6995 93.5101 60.7843 93.6388 58.9256 93.8726C56.9795 95.7469 55.0169 97.498 53.1455 99.3288C54.7892 99.3053 56.6661 99.1711 58.4573 99.1149C60.4581 97.2497 62.6284 95.2176 64.7076 93.3342Z" fill="#1A1A1A"/>
<path fill-rule="evenodd" clip-rule="evenodd" d="M134.618 77.5203C130.547 78.0006 126.622 78.4629 122.666 78.9342C119.863 81.5408 117.128 84.0677 114.249 86.7179C118.13 86.214 121.773 85.9946 125.926 85.5469C128.763 82.8025 131.712 80.2176 134.618 77.5203Z" fill="#1A1A1A"/>
<path fill-rule="evenodd" clip-rule="evenodd" d="M120.847 79.1244C117.223 79.5195 113.582 80.0325 110.121 80.4658C107.554 82.8875 104.879 85.3329 102.198 87.8398C105.588 87.4646 108.86 87.2018 112.518 86.8972C115.391 84.2054 118.136 81.702 120.847 79.1226V79.1244Z" fill="#1A1A1A"/>
<path fill-rule="evenodd" clip-rule="evenodd" d="M108.465 80.6597C105.247 81.0258 102.091 81.4591 98.8545 81.9449C96.389 84.2579 94.0328 86.3751 91.458 88.7443C94.4046 88.4633 97.4131 88.2259 100.578 88.0156C103.208 85.4941 105.927 82.9908 108.465 80.6597Z" fill="#1A1A1A"/>
<path fill-rule="evenodd" clip-rule="evenodd" d="M97.4459 82.1643C94.5887 82.6012 91.7332 82.9782 89.0217 83.3444C86.6656 85.5051 84.2019 87.6731 81.8604 89.8012C84.55 89.5257 87.1977 89.2357 89.9893 88.9202C92.5715 86.5837 95.0151 84.3722 97.4459 82.1643Z" fill="#1A1A1A"/>
<path fill-rule="evenodd" clip-rule="evenodd" d="M80.2824 85.2041C77.8242 85.5993 75.5483 85.8712 73.4108 86.1467C71.2022 88.1679 68.9736 90.1582 66.8799 92.1939C68.9827 91.9745 71.1348 91.757 73.5219 91.4525C75.7432 89.3878 77.9554 87.3612 80.2824 85.2059V85.2041Z" fill="#1A1A1A"/>
<path fill-rule="evenodd" clip-rule="evenodd" d="M71.8252 86.754C69.6495 87.044 67.7106 87.3486 65.7335 87.7147C63.678 89.5456 61.6608 91.3583 59.5015 93.3087C61.3565 93.0658 63.3628 92.9136 65.3691 92.7468C67.4701 90.7383 69.6058 88.7498 71.8271 86.7522L71.8252 86.754Z" fill="#1A1A1A"/>
<path fill-rule="evenodd" clip-rule="evenodd" d="M143.352 67.8893C139.061 68.5618 135.008 69.1618 131.112 69.8343C128.313 72.1618 125.658 74.5546 122.786 77.1757C126.713 76.5757 130.678 76.1479 134.729 75.6241C137.617 72.9558 140.469 70.4234 143.35 67.8875L143.352 67.8893Z" fill="#1A1A1A"/>
<path fill-rule="evenodd" clip-rule="evenodd" d="M129.262 70.0283C125.426 70.6881 121.764 71.203 118.17 71.8247C115.681 74.1323 113.073 76.3583 110.431 78.7764C113.917 78.2725 117.516 77.8302 121.155 77.2773C123.821 74.8555 126.485 72.4954 129.262 70.0283Z" fill="#1A1A1A"/>
<path fill-rule="evenodd" clip-rule="evenodd" d="M139.197 61.4524C135.296 62.1394 131.556 62.8935 127.901 63.5751C125.271 65.9008 122.7 68.1322 120.125 70.3709C123.575 69.7799 127.32 69.2089 131.248 68.5419C133.843 66.2343 136.551 63.8488 139.199 61.4524H139.197Z" fill="#1A1A1A"/>
<path fill-rule="evenodd" clip-rule="evenodd" d="M181.633 63.894C176.021 64.6681 170.795 65.3877 165.824 65.9043C162.516 68.7521 159.488 71.6742 156.558 74.415C161.383 74.0107 166.522 73.4307 171.97 72.8452C175.07 69.8886 178.293 66.8922 181.632 63.8959L181.633 63.894Z" fill="#1A1A1A"/>
<path fill-rule="evenodd" clip-rule="evenodd" d="M30.176 119.149C28.9843 118.821 27.8927 118.473 26.8504 118.192C25.2323 119.79 23.5595 121.422 21.9741 123.216C22.7795 123.635 23.7289 124.139 24.7312 124.596C26.4623 122.85 28.3246 120.942 30.176 119.149Z" fill="#1A1A1A"/>
<path fill-rule="evenodd" clip-rule="evenodd" d="M34.6405 120.276C33.2429 119.948 31.9472 119.591 30.7027 119.269C28.8021 121.19 26.9871 123.037 25.2578 124.792C26.2637 125.343 27.3716 125.858 28.5816 126.385C30.5496 124.344 32.6014 122.256 34.6405 120.276Z" fill="#1A1A1A"/>
<path fill-rule="evenodd" clip-rule="evenodd" d="M39.8284 121.453C38.2248 121.168 36.767 120.773 35.3621 120.372C33.2301 122.528 31.1782 124.569 29.2612 126.563C30.5732 126.987 31.8925 127.485 33.4578 127.881C35.5625 125.731 37.751 123.57 39.8302 121.453H39.8284Z" fill="#1A1A1A"/>
<path fill-rule="evenodd" clip-rule="evenodd" d="M46.4523 122.774C44.5772 122.37 42.7568 121.942 40.9491 121.656C38.8226 123.764 36.594 126.128 34.4419 128.359C36.0692 128.801 37.6563 129.449 39.2982 130.09C41.6343 127.578 44.1016 125.191 46.4523 122.772V122.774Z" fill="#1A1A1A"/>
<path fill-rule="evenodd" clip-rule="evenodd" d="M53.6486 123.963C51.4565 123.635 49.2752 123.307 47.4384 122.888C45.0404 125.267 42.5749 127.685 40.1914 130.177C42.0446 130.781 43.9999 131.305 46.0189 131.876C48.4352 129.287 50.979 126.672 53.6486 123.963Z" fill="#1A1A1A"/>
<path fill-rule="evenodd" clip-rule="evenodd" d="M61.8559 125.53C59.3321 125.14 57.0142 124.701 54.802 124.235C52.0395 127.038 49.4519 129.73 47.0356 132.28C49.0656 132.86 51.2632 133.583 53.5192 134.263C56.3527 131.27 58.9731 128.521 61.8559 125.528V125.53Z" fill="#1A1A1A"/>
<path fill-rule="evenodd" clip-rule="evenodd" d="M71.1218 127.475C68.2518 126.985 65.5859 126.432 62.9856 125.905C60.2048 128.859 57.4387 131.704 54.6543 134.644C57.0378 135.42 59.5834 136.176 62.1911 136.937C65.1394 133.725 68.2099 130.505 71.1218 127.475Z" fill="#1A1A1A"/>
<path fill-rule="evenodd" clip-rule="evenodd" d="M82.8445 129.173C79.5499 128.517 76.3956 128.026 73.4618 127.598C70.4515 130.596 67.3974 133.877 64.4053 137.08C67.1805 137.742 70.1763 138.454 73.1648 139.44C76.4557 135.829 79.5881 132.476 82.8463 129.173H82.8445Z" fill="#1A1A1A"/>
<path fill-rule="evenodd" clip-rule="evenodd" d="M94.8986 131.305C91.1867 130.582 87.5313 129.764 84.3241 129.131C81.0368 132.581 77.7094 135.982 74.5679 139.507C77.7331 140.473 81.0824 141.528 84.7378 142.391C88.087 138.67 91.4636 135.059 94.8986 131.307V131.305Z" fill="#1A1A1A"/>
<path fill-rule="evenodd" clip-rule="evenodd" d="M109.227 133.861C104.928 133.114 100.664 132.467 96.9813 131.406C93.5136 135.227 89.9693 139.081 86.6802 142.834C90.3356 143.89 94.175 144.965 98.2404 145.988C101.958 141.82 105.517 137.876 109.229 133.861H109.227Z" fill="#1A1A1A"/>
<path fill-rule="evenodd" clip-rule="evenodd" d="M125.461 137.29C120.41 136.248 115.765 135.316 111.399 134.327C107.65 138.441 103.864 142.553 100.165 146.84C104.72 148.1 108.922 149.671 113.744 150.902C117.727 146.325 121.665 141.768 125.461 137.29Z" fill="#1A1A1A"/>
<path fill-rule="evenodd" clip-rule="evenodd" d="M144.224 141.581C138.317 140.425 133.081 139.332 127.802 138.184C123.863 142.703 119.932 147.304 115.996 151.801C120.925 153.429 126.146 155.022 131.624 156.654C135.957 151.377 140.075 146.416 144.224 141.581Z" fill="#1A1A1A"/>
<path fill-rule="evenodd" clip-rule="evenodd" d="M339.524 115.458C335.805 112.489 332.164 109.493 328.837 106.757C323.461 109.797 318.109 112.629 312.705 115.839C315.72 118.984 318.707 122.281 322.317 125.655C328.144 122.214 333.968 118.794 339.522 115.458H339.524Z" fill="#1A1A1A"/>
<path fill-rule="evenodd" clip-rule="evenodd" d="M157.089 109.364C155.61 107.876 154.165 106.491 152.661 105.305C150.568 106.77 148.386 108.331 146.232 109.815C147.57 111.224 148.833 112.737 150.19 114.439C152.508 112.708 154.821 110.99 157.091 109.364H157.089Z" fill="#1A1A1A"/>
<path fill-rule="evenodd" clip-rule="evenodd" d="M98.5338 54.3829C97.958 53.5055 97.4296 52.5919 96.943 51.6765C95.0588 53.2336 93.0471 54.9194 91.0718 56.5617C91.3797 57.6149 91.8152 58.5775 92.3073 59.6089C94.3737 57.8741 96.4747 56.1104 98.532 54.3829H98.5338Z" fill="#1A1A1A"/>
<path fill-rule="evenodd" clip-rule="evenodd" d="M404.418 206.585C399.769 202.95 395.385 199.468 391.126 196.403C385.581 198.107 380.14 200.124 374.431 202.049C378.571 205.399 382.646 209.019 386.833 212.92C392.788 210.683 398.88 208.667 404.42 206.583L404.418 206.585Z" fill="#1A1A1A"/>
<path fill-rule="evenodd" clip-rule="evenodd" d="M111.803 66.1726C111.346 65.6704 110.985 65.181 110.626 64.7097C109.402 65.5979 108.17 66.4698 106.98 67.3399C107.255 67.8783 107.539 68.5109 107.858 69.0403C109.176 68.0886 110.444 67.1442 111.803 66.1708V66.1726Z" fill="#1A1A1A"/>
<path fill-rule="evenodd" clip-rule="evenodd" d="M153.999 43.2002C152.894 42.7307 151.849 42.3156 150.813 41.9331C149.252 42.9935 147.692 44.0902 146.096 45.2467C146.967 45.7706 147.923 46.2365 149.011 46.8383C150.637 45.5712 152.319 44.3875 153.999 43.202V43.2002Z" fill="#1A1A1A"/>
<path fill-rule="evenodd" clip-rule="evenodd" d="M388.86 86.2175C384.483 84.4193 380.413 82.8495 376.547 81.3704C371.546 83.4405 366.812 85.4236 362.282 87.5263C365.775 89.2683 369.455 91.052 373.571 93.2454C378.855 90.7855 383.991 88.3456 388.86 86.2175Z" fill="#1A1A1A"/>
<path fill-rule="evenodd" clip-rule="evenodd" d="M136.099 40.3978C135.432 40.0842 134.933 39.6728 134.405 39.3628C133.133 40.193 131.921 41.1302 130.696 42.0347C131.145 42.4317 131.558 42.9012 132.099 43.2637C133.318 42.3338 134.707 41.3495 136.099 40.3978Z" fill="#1A1A1A"/>
<path fill-rule="evenodd" clip-rule="evenodd" d="M108.273 33.5494C107.92 33.292 107.534 33.0944 107.186 32.8569C106.269 33.5657 105.265 34.298 104.385 34.9742C104.689 35.2497 104.953 35.5289 105.225 35.8479C106.229 35.092 107.271 34.3216 108.273 33.5494Z" fill="#1A1A1A"/>
<path fill-rule="evenodd" clip-rule="evenodd" d="M41.0894 103.349C40.9399 102.969 40.7431 102.588 40.6411 102.222C39.9086 102.722 39.2252 103.293 38.4927 103.815C38.5492 104.257 38.6512 104.676 38.7533 105.095C39.5787 104.509 40.3131 103.929 41.0894 103.349Z" fill="#1A1A1A"/>
<path fill-rule="evenodd" clip-rule="evenodd" d="M407.78 145.226C404.664 143.738 402.142 142.333 399.482 140.988C395.575 142.092 391.834 143.091 388.105 144.171C390.392 145.551 392.982 147.159 395.722 148.681C399.806 147.572 403.806 146.365 407.78 145.226Z" fill="#1A1A1A"/>
<path fill-rule="evenodd" clip-rule="evenodd" d="M178.472 36.0002C177.378 35.6775 176.261 35.4564 175.315 35.1265C173.794 36.118 172.187 37.1476 170.747 38.1029C171.664 38.5053 172.522 38.8479 173.535 39.225C175.049 38.1863 176.821 37.0407 178.472 36.0002Z" fill="#1A1A1A"/>
<path fill-rule="evenodd" clip-rule="evenodd" d="M138.182 11.4889C137.488 11.3602 136.793 11.2497 136.112 11.2152C134.968 11.9403 133.878 12.7687 132.783 13.5627C133.431 13.675 134.084 13.7983 134.738 13.9415C135.908 13.0859 137.045 12.272 138.182 11.4889Z" fill="#1A1A1A"/>
<path fill-rule="evenodd" clip-rule="evenodd" d="M120.896 41.5162C120.266 41.3168 119.644 41.1754 119.063 40.9978C118.084 41.7011 116.976 42.4733 115.949 43.1694C116.534 43.3761 117.073 43.5682 117.662 43.7785C118.77 43.0099 119.792 42.2866 120.898 41.5162H120.896Z" fill="#1A1A1A"/>
<path fill-rule="evenodd" clip-rule="evenodd" d="M14.5507 122.756C14.3722 122.466 14.2391 122.238 14.0587 121.948C13.4811 122.343 12.9053 122.742 12.375 123.113C12.5044 123.412 12.5882 123.693 12.7686 123.936C13.3481 123.561 13.9749 123.157 14.5507 122.756Z" fill="#1A1A1A"/>
<path fill-rule="evenodd" clip-rule="evenodd" d="M106.04 57.6892C105.409 57.4825 104.819 57.245 104.239 57.0928C103.317 57.7182 102.304 58.3889 101.331 59.0124C101.916 59.2191 102.501 59.4366 103.046 59.6831C104.013 59.0251 105.028 58.3635 106.04 57.6892Z" fill="#1A1A1A"/>
<path fill-rule="evenodd" clip-rule="evenodd" d="M204.131 66.3394C202.762 65.9823 201.45 65.6179 200.189 65.2808C198.529 66.1744 196.913 67.0246 195.162 67.9599C196.457 68.2554 197.729 68.6596 198.999 69.0349C200.65 68.114 202.458 67.2004 204.131 66.3394Z" fill="#1A1A1A"/>
<path fill-rule="evenodd" clip-rule="evenodd" d="M10.1318 116.49C9.96234 116.194 9.74185 115.939 9.57056 115.71C9.00384 116.071 8.48086 116.448 7.95605 116.87C8.12552 117.122 8.29864 117.385 8.4681 117.679C9.04029 117.275 9.61064 116.87 10.1318 116.49Z" fill="#1A1A1A"/>
<path fill-rule="evenodd" clip-rule="evenodd" d="M90.7728 71.8447C90.1878 71.6399 89.5974 71.3698 89.0599 71.1541C88.1542 71.7577 87.3379 72.3106 86.4741 72.8997C86.9661 73.1281 87.4618 73.3855 88.0048 73.661C88.9123 73.0338 89.8234 72.4864 90.7728 71.8429V71.8447Z" fill="#1A1A1A"/>
<path fill-rule="evenodd" clip-rule="evenodd" d="M98.1968 47.8499C97.6848 47.7175 97.1837 47.6668 96.6753 47.5725C95.93 48.0801 95.1482 48.6474 94.3975 49.1242C94.8166 49.2148 95.3268 49.3453 95.7532 49.4903C96.5805 48.9193 97.3659 48.3683 98.1968 47.8517V47.8499Z" fill="#1A1A1A"/>
<path fill-rule="evenodd" clip-rule="evenodd" d="M474 178.626C469.842 177.375 465.445 175.89 461 174.601C456.884 175.482 452.438 176.109 448.257 176.88C452.253 178.102 456.581 179.534 460.579 180.953C465.25 180.168 469.57 179.445 474 178.627V178.626Z" fill="#1A1A1A"/>
<path fill-rule="evenodd" clip-rule="evenodd" d="M154.427 18.9626C153.511 18.9989 152.685 19.008 151.86 19.0152C150.892 19.6297 149.883 20.2714 148.84 20.9584C149.662 20.9204 150.415 20.9892 151.244 20.982C152.286 20.2968 153.33 19.6043 154.425 18.9626H154.427Z" fill="#1A1A1A"/>
<path fill-rule="evenodd" clip-rule="evenodd" d="M21.5405 120.111C21.2599 119.903 20.9793 119.687 20.7952 119.488C20.2723 119.821 19.7001 120.202 19.2227 120.507C19.4067 120.729 19.6381 120.92 19.8696 121.159C20.4417 120.773 20.9684 120.45 21.5405 120.113V120.111Z" fill="#1A1A1A"/>
<path fill-rule="evenodd" clip-rule="evenodd" d="M268.629 97.8932C266.558 97.3893 264.341 97.0884 262.229 96.6316C260.148 97.3549 258.255 97.9875 256.394 98.7307C258.311 99.0824 260.387 99.5772 262.553 100.072C264.578 99.3253 266.657 98.6074 268.627 97.8932H268.629Z" fill="#1A1A1A"/>
<path fill-rule="evenodd" clip-rule="evenodd" d="M261.562 135.449C259.694 134.283 257.846 133.123 255.988 132.113C253.386 133.112 250.732 134.287 248.061 135.42C249.79 136.571 251.509 137.693 253.245 139.002C256.141 137.689 258.883 136.589 261.562 135.447V135.449Z" fill="#1A1A1A"/>
<path fill-rule="evenodd" clip-rule="evenodd" d="M15.6405 129.615C15.4619 129.102 15.3325 128.579 15.2013 128.131C14.4706 128.655 13.6888 129.235 12.9053 129.838C12.9836 130.362 13.0638 130.957 13.1877 131.493C13.9749 130.875 14.8077 130.246 15.6405 129.614V129.615Z" fill="#1A1A1A"/>
<path fill-rule="evenodd" clip-rule="evenodd" d="M216.336 89.0725C214.652 88.1118 213.1 87.2544 211.658 86.4187C209.442 87.6459 207.134 88.9492 204.827 90.2761C206.277 91.1662 207.573 92.2357 209.189 93.1547C211.642 91.7789 213.983 90.4103 216.336 89.0725Z" fill="#1A1A1A"/>
</g>
<defs>
<clipPath id="clip0_181_534">
<rect width="474" height="258" fill="white"/>
</clipPath>
</defs>
</svg>
