<svg width="555" height="259" viewBox="0 0 555 259" fill="none" xmlns="http://www.w3.org/2000/svg">
<g clip-path="url(#clip0_181_359)">
<path fill-rule="evenodd" clip-rule="evenodd" d="M519.054 234.44C522.307 229.027 524.96 223.074 527.563 217.764C528.948 219.903 532.916 243.306 538.397 280H526.537C522.945 253.064 520.274 236.361 519.054 234.44Z" fill="#1A1A1A"/>
<path fill-rule="evenodd" clip-rule="evenodd" d="M529.21 218.914C531.839 213.89 534.283 209.104 536.754 205.469C538.1 207.419 542.901 236.104 549.503 280H538.782C533.985 243.969 530.498 220.977 529.21 218.914Z" fill="#1A1A1A"/>
<path fill-rule="evenodd" clip-rule="evenodd" d="M537.938 204.01C540.154 200.849 542.269 197.848 544.358 194.995C546.832 209.316 549.337 223.447 551.741 237.491C554.186 251.753 556.599 265.943 558.948 279.969L558.791 279.998H549.153C545.561 255.039 541.746 229.624 537.938 204.008V204.01Z" fill="#1A1A1A"/>
<path fill-rule="evenodd" clip-rule="evenodd" d="M545.227 193.509C547.077 190.554 548.843 187.925 550.523 185.448C553.708 201.17 556.888 216.719 559.951 231.97C563.041 247.375 566.075 262.604 569 277.537V278.149C566.222 278.673 563.367 279.194 560.436 279.669C558.045 265.531 555.517 251.171 552.966 236.687C550.459 222.447 547.79 208.07 545.227 193.509Z" fill="#1A1A1A"/>
<path fill-rule="evenodd" clip-rule="evenodd" d="M551.358 184.351C552.942 181.983 554.189 179.594 555.291 177.057C559.167 193.961 563.09 210.716 566.718 227.208L569 237.578V270.992C566.41 257.947 563.722 244.713 561.005 231.342C557.872 215.909 554.633 200.181 551.356 184.353L551.358 184.351Z" fill="#1A1A1A"/>
<path fill-rule="evenodd" clip-rule="evenodd" d="M448.99 259.394C455.5 252.546 461.539 246.87 467.222 241.627C473.642 250.483 479.592 259.08 485.87 268.609C483.064 272.05 480.198 275.914 477.199 280.002H461.861C457.538 272.93 453.251 266.093 448.99 259.394Z" fill="#1A1A1A"/>
<path fill-rule="evenodd" clip-rule="evenodd" d="M469.885 238.82C475.515 233.788 480.474 229.005 485.289 224.403C490.917 231.954 496.692 240.009 502.322 247.954C498.024 253.454 493.279 259.078 488.399 265.292C482.196 256.312 476.254 247.606 469.885 238.82Z" fill="#1A1A1A"/>
<path fill-rule="evenodd" clip-rule="evenodd" d="M487.621 222.286C492.061 218.394 496.318 214.443 500.304 210.773C505.293 217.388 510.469 223.813 515.712 230.667C512.061 235.178 508.338 239.939 504.37 245.295C498.781 237.583 493.131 229.626 487.618 222.286H487.621Z" fill="#1A1A1A"/>
<path fill-rule="evenodd" clip-rule="evenodd" d="M514.136 197.271C517.192 194.241 520.2 191.538 523.105 188.925C527.224 193.806 531.723 199.175 535.829 204.365C533.502 207.497 530.8 210.843 528.107 214.654C523.431 208.525 518.863 203.18 514.136 197.271Z" fill="#1A1A1A"/>
<path fill-rule="evenodd" clip-rule="evenodd" d="M524.794 188.027C527.39 185.483 530.017 183.175 532.301 180.596C535.985 184.946 539.848 189.428 543.438 193.778C541.48 196.716 539.297 199.66 537.017 202.799C533.034 197.911 528.788 192.813 524.794 188.027Z" fill="#1A1A1A"/>
<path fill-rule="evenodd" clip-rule="evenodd" d="M533.955 179.11C536.066 176.773 538.089 174.645 540.027 172.531C543.394 176.366 546.865 180.419 550.057 184.198C548.51 186.623 546.684 189.079 544.77 191.785C541.182 187.481 537.387 183.17 533.953 179.11H533.955Z" fill="#1A1A1A"/>
<path fill-rule="evenodd" clip-rule="evenodd" d="M541.246 171.352C543.09 169.54 544.731 167.654 546.483 165.905C549.399 169.191 552.474 172.559 555.395 175.845C554.165 178.213 552.728 180.539 551.407 183.042C548.021 179.234 544.488 175.199 541.246 171.352Z" fill="#1A1A1A"/>
<path fill-rule="evenodd" clip-rule="evenodd" d="M547.162 164.99C548.704 163.326 550.109 161.394 551.318 159.674C554.033 162.605 556.586 165.493 559.486 168.614C558.294 170.718 557.089 172.707 555.814 174.868C552.963 171.683 550.017 168.379 547.16 164.99H547.162Z" fill="#1A1A1A"/>
<path fill-rule="evenodd" clip-rule="evenodd" d="M552.098 158.319C553.41 156.788 554.537 155.335 555.714 153.836C558.231 156.57 560.716 159.382 562.891 161.778C562.167 163.67 561.182 165.448 560.384 167.482C557.678 164.428 554.871 161.285 552.096 158.319H552.098Z" fill="#1A1A1A"/>
<path fill-rule="evenodd" clip-rule="evenodd" d="M542.409 103.096C540.625 102.136 538.949 101.232 537.111 100.496C537.114 100.759 537.059 100.918 536.893 100.901C538.844 101.816 540.911 103.027 542.534 103.896C542.528 103.541 542.528 103.438 542.409 103.096Z" fill="#1A1A1A"/>
<path fill-rule="evenodd" clip-rule="evenodd" d="M554.44 112.336C553.399 111.249 552.307 110.249 551.163 109.352C551.454 109.757 551.747 110.182 551.981 110.524C553.246 111.65 554.453 112.695 555.61 113.771C555.201 113.32 554.965 112.983 554.44 112.336Z" fill="#1A1A1A"/>
<path fill-rule="evenodd" clip-rule="evenodd" d="M362.925 269.854C373.943 262.43 383.483 255.397 393.438 248.932C399.374 259.017 405.545 268.985 411.777 280.002H368.348C366.556 276.583 364.749 273.2 362.925 269.854Z" fill="#1A1A1A"/>
<path fill-rule="evenodd" clip-rule="evenodd" d="M397.9 246.068C406.656 239.889 414.846 233.971 422.425 228.548C428.782 238.02 435.077 247.458 441.347 257.479C433.988 264.298 426.457 271.891 417.849 279.264C411.25 267.653 404.39 256.815 397.9 246.068Z" fill="#1A1A1A"/>
<path fill-rule="evenodd" clip-rule="evenodd" d="M426.052 226.019C433.314 221.811 439.741 217.17 445.991 212.848C451.757 220.576 457.713 228.678 463.471 237.131C457.608 242.631 451.595 248.244 444.855 254.682C438.433 244.598 432.431 235.097 426.052 226.019Z" fill="#1A1A1A"/>
<path fill-rule="evenodd" clip-rule="evenodd" d="M448.837 210.551C454.857 206.669 460.345 202.736 465.632 199.432C470.924 206.046 476.554 213.545 481.929 221.195C477.007 225.523 471.761 229.746 466.1 234.594C460.559 226.518 454.642 218.492 448.837 210.551Z" fill="#1A1A1A"/>
<path fill-rule="evenodd" clip-rule="evenodd" d="M468.152 197.82C473.187 194.829 477.737 191.645 482.25 189.044C487.268 194.949 492.078 201.089 497.203 207.686C493.174 211.202 488.74 214.787 484.291 218.771C478.971 211.785 473.456 204.387 468.152 197.82Z" fill="#1A1A1A"/>
<path fill-rule="evenodd" clip-rule="evenodd" d="M528.167 97.1285C529.337 97.0087 530.396 96.8824 531.341 96.6995C533.279 98.6096 535.057 100.391 536.956 102.203C536.009 102.334 535.116 102.643 534.11 102.879C532.155 101.032 530.267 99.1106 528.167 97.1285Z" fill="#1A1A1A"/>
<path fill-rule="evenodd" clip-rule="evenodd" d="M498.031 178.39C501.594 176.257 504.82 173.999 508.137 171.925C512.245 176.813 516.475 181.724 520.627 186.718C517.667 189.103 514.598 191.743 511.295 194.396C506.923 189.012 502.537 183.745 498.031 178.39Z" fill="#1A1A1A"/>
<path fill-rule="evenodd" clip-rule="evenodd" d="M509.987 171.261C512.942 169.185 515.924 167.316 518.758 165.406C522.287 169.477 525.977 173.735 529.519 178.035C527.108 180.441 524.546 182.722 521.882 185.203C517.969 180.674 513.983 175.959 509.987 171.261Z" fill="#1A1A1A"/>
<path fill-rule="evenodd" clip-rule="evenodd" d="M520.524 164.276C523.186 162.657 525.33 160.765 527.696 159.223C531.059 162.978 534.451 166.693 537.632 170.398C535.694 172.428 533.543 174.41 531.238 176.634C527.574 172.165 523.997 168.144 520.526 164.276H520.524Z" fill="#1A1A1A"/>
<path fill-rule="evenodd" clip-rule="evenodd" d="M529.035 158.192C531.253 156.637 533.268 155.06 535.386 153.843C538.323 157.027 541.41 160.342 544.531 164.069C542.843 165.824 541.073 167.538 539.098 169.533C535.854 165.857 532.397 161.862 529.035 158.192Z" fill="#1A1A1A"/>
<path fill-rule="evenodd" clip-rule="evenodd" d="M536.134 153.174C537.989 151.7 539.769 150.458 541.296 149.029C543.987 151.946 546.763 154.969 549.442 157.809C548.045 159.46 546.636 161.285 544.965 163.073C542.036 159.643 539.074 156.409 536.134 153.172V153.174Z" fill="#1A1A1A"/>
<path fill-rule="evenodd" clip-rule="evenodd" d="M542.388 148.051C544.018 146.988 545.332 145.571 546.64 144.353C549.206 147.028 551.796 149.842 554.347 152.706C552.98 153.947 551.916 155.605 550.659 157.114C547.977 154.137 545.076 150.992 542.388 148.054V148.051Z" fill="#1A1A1A"/>
<path fill-rule="evenodd" clip-rule="evenodd" d="M547.357 143.97C548.777 142.935 549.704 141.556 550.868 140.374C553.064 142.661 555.337 145.096 557.441 147.418C556.405 148.716 555.488 150.166 554.442 151.665C552.082 149.093 549.739 146.514 547.357 143.97Z" fill="#1A1A1A"/>
<path fill-rule="evenodd" clip-rule="evenodd" d="M551.422 108.705C550.615 107.814 549.76 107.024 548.966 106.316C549.482 106.984 549.943 107.618 550.457 108.167C551.431 109.071 552.409 110.049 553.271 110.831C552.575 110.053 552.056 109.465 551.42 108.705H551.422Z" fill="#1A1A1A"/>
<path fill-rule="evenodd" clip-rule="evenodd" d="M553.524 113.216C553.388 112.536 553.082 111.804 552.946 111.118C553.76 112.079 554.633 113.044 555.449 113.913C555.755 114.708 556.184 115.577 556.501 116.435C555.563 115.435 554.513 114.366 553.524 113.216Z" fill="#1A1A1A"/>
<path fill-rule="evenodd" clip-rule="evenodd" d="M180.79 165.476C198.754 161.69 215.26 157.959 230.806 154.409C236.798 164.082 242.914 173.319 248.641 183.231C233.56 187.433 216.923 192.847 198.5 198.362C192.506 186.947 186.696 176.148 180.788 165.476H180.79Z" fill="#1A1A1A"/>
<path fill-rule="evenodd" clip-rule="evenodd" d="M284.386 154.553C296.926 151.769 307.96 149.025 318.941 146.949C324.326 154.25 330.191 161.812 336.038 169.74C325.324 172.999 314.078 176.497 301.993 180.367C296.362 171.672 290.233 162.742 284.386 154.551V154.553Z" fill="#1A1A1A"/>
<path fill-rule="evenodd" clip-rule="evenodd" d="M299.14 97.7296C309.128 97.3288 318.473 96.7233 327.49 96.2441C332.562 101.789 337.528 107.198 342.301 112.817C333.555 113.612 324.267 114.623 314.387 116.069C309.456 109.735 304.534 103.602 299.14 97.7296Z" fill="#1A1A1A"/>
<path fill-rule="evenodd" clip-rule="evenodd" d="M289.805 256.597C304.505 248.771 317.456 241.226 330.128 234.474C336.776 245.988 343.586 258.37 350.362 270.728C346.215 273.799 341.993 276.879 337.664 280H301.215C297.354 272.002 293.559 264.229 289.805 256.597Z" fill="#1A1A1A"/>
<path fill-rule="evenodd" clip-rule="evenodd" d="M335.991 231.445C347.464 225.808 358.056 220.572 367.785 215.382C374.055 224.911 380.733 235.139 386.764 245.691C377.285 252.265 367.09 259.01 355.879 266.276C349.402 254.105 342.641 242.799 335.991 231.445Z" fill="#1A1A1A"/>
<path fill-rule="evenodd" clip-rule="evenodd" d="M373.111 213.935C382.589 209.083 391.228 204.84 399.418 200.786C405.063 208.819 411.02 217.13 417.007 225.583C409.143 230.946 400.533 236.857 391.466 243.075C385.245 232.586 379.245 223.307 373.111 213.933V213.935Z" fill="#1A1A1A"/>
<path fill-rule="evenodd" clip-rule="evenodd" d="M404.469 197.831C412.037 194.337 419.184 190.931 425.952 187.542C431.353 194.47 436.778 201.782 442.209 209.294C435.802 213.735 429.097 217.978 421.778 222.214C416.106 214.182 410.242 205.962 404.469 197.833V197.831Z" fill="#1A1A1A"/>
<path fill-rule="evenodd" clip-rule="evenodd" d="M429.865 185.558C436.016 182.077 441.904 179.509 447.747 176.965C452.831 183.443 458.048 190.062 463.409 196.751C457.884 199.854 452.107 203.457 446.284 207.458C440.889 200.055 435.254 192.634 429.865 185.558Z" fill="#1A1A1A"/>
<path fill-rule="evenodd" clip-rule="evenodd" d="M450.304 176.253C455.495 173.737 460.62 171.372 465.61 169.279C470.028 174.859 474.703 180.42 479.316 185.982C474.786 188.79 469.989 191.813 465.124 195.054C460.119 188.685 455.066 182.312 450.306 176.253H450.304Z" fill="#1A1A1A"/>
<path fill-rule="evenodd" clip-rule="evenodd" d="M483.28 160.948C487.404 159.449 491.004 157.77 494.581 156.117C498.429 160.455 502.429 165.012 506.115 169.305C502.867 171.402 499.708 173.661 495.832 175.649C491.768 170.755 487.568 165.811 483.28 160.945V160.948Z" fill="#1A1A1A"/>
<path fill-rule="evenodd" clip-rule="evenodd" d="M496.481 155.341C499.955 153.695 503.092 152.055 506.178 150.842C509.761 154.734 513.077 158.524 516.785 162.732C513.959 164.572 511.05 166.349 508.042 168.386C504.102 163.967 500.401 159.617 496.481 155.341Z" fill="#1A1A1A"/>
<path fill-rule="evenodd" clip-rule="evenodd" d="M507.716 150.236C510.531 148.91 513.086 147.533 515.738 146.383C519.104 149.99 522.449 153.529 525.443 157.101C523.258 158.713 520.688 160.257 518.155 161.915C514.559 157.931 511.118 154.072 507.718 150.236H507.716Z" fill="#1A1A1A"/>
<path fill-rule="evenodd" clip-rule="evenodd" d="M517.669 145.88C520.237 144.726 522.541 143.639 524.772 142.393C527.441 145.279 530.608 148.67 533.318 151.774C531.385 153.174 529.188 154.568 526.968 156.147C523.967 152.66 520.743 149.225 517.669 145.88Z" fill="#1A1A1A"/>
<path fill-rule="evenodd" clip-rule="evenodd" d="M526.006 141.763C528.149 140.809 530.287 139.866 532.168 138.906C534.784 141.685 537.3 144.434 539.9 147.15C538.253 148.396 536.352 149.546 534.559 151.083C531.726 147.882 528.976 144.824 526.006 141.766V141.763Z" fill="#1A1A1A"/>
<path fill-rule="evenodd" clip-rule="evenodd" d="M532.717 138.374C534.587 137.483 536.206 136.488 537.993 135.682C540.257 138.004 542.654 140.559 545.069 143.068C543.577 144.187 542.136 145.451 540.506 146.738C537.969 143.943 535.333 141.21 532.717 138.374Z" fill="#1A1A1A"/>
<path fill-rule="evenodd" clip-rule="evenodd" d="M538.765 134.898C540.187 133.846 541.598 132.857 543.005 132.115C545.323 134.55 547.421 136.762 549.534 139.019C548.43 140.208 547.198 141.312 545.899 142.489C543.484 139.892 541.088 137.418 538.765 134.896V134.898Z" fill="#1A1A1A"/>
<path fill-rule="evenodd" clip-rule="evenodd" d="M543.823 131.583C545.102 130.886 546.316 130.154 547.351 129.24C549.315 131.32 551.109 133.201 553.218 135.453C552.308 136.466 551.391 137.455 550.352 138.477C548.241 136.281 546.146 134.121 543.823 131.583Z" fill="#1A1A1A"/>
<path fill-rule="evenodd" clip-rule="evenodd" d="M347.926 123.934C356.286 122.784 364.253 121.802 371.985 120.591C376.809 126.382 381.667 131.967 386.781 137.78C379.412 139.335 371.568 140.803 363.211 142.868C358.08 136.39 352.935 130.154 347.923 123.934H347.926Z" fill="#1A1A1A"/>
<path fill-rule="evenodd" clip-rule="evenodd" d="M503.073 94.1164C505.348 94.1338 507.504 94.1382 509.543 94.1731C511.932 96.5689 514.395 98.906 516.698 101.232C514.708 101.197 512.982 101.531 510.803 101.609C508.287 99.0933 505.73 96.5842 503.07 94.1143L503.073 94.1164Z" fill="#1A1A1A"/>
<path fill-rule="evenodd" clip-rule="evenodd" d="M503.432 86.6738C505.494 86.9243 507.45 87.1138 509.344 87.2684C511.663 89.4465 513.879 91.5396 516.049 93.5957C514.305 93.6066 512.505 93.5848 510.648 93.5107C508.321 91.2935 505.847 88.9542 503.432 86.6738Z" fill="#1A1A1A"/>
<path fill-rule="evenodd" clip-rule="evenodd" d="M352.411 69.2778C359.621 69.6546 366.468 69.9857 372.989 70.295C377.009 74.2852 380.988 78.332 385.092 82.1959C378.569 82.2351 372.041 82.1436 365.02 82.0478C360.947 77.7265 356.635 73.5011 352.413 69.2778H352.411Z" fill="#1A1A1A"/>
<path fill-rule="evenodd" clip-rule="evenodd" d="M212.412 235.639C230.761 228.134 247.587 221.497 263.599 215.362C269.837 226.897 276.516 239.292 282.605 252.572C266.886 260.792 250.421 269.138 232.014 278.068C225.791 263.638 219.069 249.342 212.415 235.639H212.412Z" fill="#1A1A1A"/>
<path fill-rule="evenodd" clip-rule="evenodd" d="M316.297 194.745C327.906 190.428 338.957 186.588 349.203 182.809C355.17 191.349 361.251 200.403 367.166 209.557C357.373 214.571 346.586 219.664 335.564 224.815C329.142 214.73 322.732 204.35 316.299 194.747L316.297 194.745Z" fill="#1A1A1A"/>
<path fill-rule="evenodd" clip-rule="evenodd" d="M386.746 170.529C394.768 167.813 402.087 165.332 409.056 162.777C414.109 169.002 419.396 175.765 424.469 182.717C417.832 185.924 410.567 189.326 403.233 192.841C397.931 185.118 392.219 177.549 386.744 170.529H386.746Z" fill="#1A1A1A"/>
<path fill-rule="evenodd" clip-rule="evenodd" d="M413.037 161.542C419.681 159.312 425.904 157.341 431.869 155.54C436.865 161.44 441.715 167.43 446.711 173.387C441.037 175.811 435.255 178.246 429.001 181.275C423.583 174.319 418.392 167.619 413.037 161.542Z" fill="#1A1A1A"/>
<path fill-rule="evenodd" clip-rule="evenodd" d="M434.439 154.884C439.969 153.1 445.335 151.345 450.6 149.561C454.986 154.762 459.374 159.874 463.858 165.177C459.009 167.349 453.888 169.786 448.677 172.134C443.799 166.251 438.983 160.438 434.442 154.882L434.439 154.884Z" fill="#1A1A1A"/>
<path fill-rule="evenodd" clip-rule="evenodd" d="M454.077 148.504C458.796 147.082 463.418 145.714 467.64 144.353C472.05 149.269 476.236 153.843 480.366 158.759C476.407 160.32 472.146 162.091 467.48 164.321C463.079 158.726 458.441 153.483 454.077 148.504Z" fill="#1A1A1A"/>
<path fill-rule="evenodd" clip-rule="evenodd" d="M469.709 143.913C473.999 142.73 477.842 141.376 481.705 140.265C485.489 144.353 489.348 148.748 492.944 153.006C489.455 154.533 485.868 156.23 481.703 157.644C477.836 153.224 473.73 148.439 469.711 143.913H469.709Z" fill="#1A1A1A"/>
<path fill-rule="evenodd" clip-rule="evenodd" d="M483.761 139.603C487.458 138.607 490.938 137.745 494.224 136.784C497.691 140.568 501.259 144.29 504.551 147.995C501.543 149.138 498.247 150.487 494.974 152.105C491.315 147.816 487.548 143.737 483.761 139.603Z" fill="#1A1A1A"/>
<path fill-rule="evenodd" clip-rule="evenodd" d="M495.738 136.309C498.87 135.447 501.867 134.532 504.735 133.53C507.939 136.982 511.174 140.424 514.195 143.78C511.671 144.991 508.884 146.193 506.023 147.32C502.6 143.695 499.216 139.969 495.735 136.309H495.738Z" fill="#1A1A1A"/>
<path fill-rule="evenodd" clip-rule="evenodd" d="M506.702 133.184C509.475 132.343 511.938 131.396 514.318 130.646C517.265 133.602 520.165 136.632 523.033 139.57C520.922 140.879 518.503 142.062 515.885 143.12C512.798 139.736 509.797 136.473 506.699 133.184H506.702Z" fill="#1A1A1A"/>
<path fill-rule="evenodd" clip-rule="evenodd" d="M516.068 130.503C518.374 129.708 520.666 129.039 522.888 128.427C525.319 130.971 528.001 133.75 530.466 136.453C528.469 137.277 526.52 138.213 524.38 139.128C521.69 136.303 518.899 133.463 516.068 130.501V130.503Z" fill="#1A1A1A"/>
<path fill-rule="evenodd" clip-rule="evenodd" d="M523.495 127.963C525.413 127.179 527.316 126.454 529.272 125.809C531.595 128.216 534.104 130.908 536.396 133.339C534.668 134.208 532.993 135.133 531.188 136.026C528.664 133.352 526.037 130.721 523.493 127.965L523.495 127.963Z" fill="#1A1A1A"/>
<path fill-rule="evenodd" clip-rule="evenodd" d="M530.162 125.267C531.927 124.609 533.511 124.028 535.147 123.529C537.415 125.774 539.638 127.97 541.816 130.309C540.355 131.013 538.944 131.864 537.468 132.796C535.055 130.322 532.66 127.761 530.164 125.267H530.162Z" fill="#1A1A1A"/>
<path fill-rule="evenodd" clip-rule="evenodd" d="M401.653 117.544C407.918 116.903 413.949 116.418 419.733 115.784C424.009 120.39 428.371 125.108 432.722 129.76C427.141 130.697 421.57 131.819 415.314 133.086C410.751 127.804 406.236 122.551 401.653 117.544Z" fill="#1A1A1A"/>
<path fill-rule="evenodd" clip-rule="evenodd" d="M422.359 115.365C427.813 114.679 433.141 114.215 437.927 113.577C442.119 117.881 446.264 122.283 450.155 126.593C445.417 127.512 440.528 128.44 435.248 129.285C431.057 124.77 426.638 119.957 422.359 115.365Z" fill="#1A1A1A"/>
<path fill-rule="evenodd" clip-rule="evenodd" d="M440.304 113.314C445.278 112.834 449.738 112.41 454.065 111.994C457.812 115.801 461.743 119.883 465.483 123.792C461.323 124.576 457.02 125.369 452.49 126.33C448.548 121.882 444.39 117.491 440.304 113.314Z" fill="#1A1A1A"/>
<path fill-rule="evenodd" clip-rule="evenodd" d="M456.106 111.758C460.341 111.353 464.361 111.107 468.2 110.752C471.716 114.302 475.454 118.229 478.847 121.723C475.191 122.339 471.359 122.797 467.433 123.415C463.847 119.671 459.851 115.59 456.104 111.758H456.106Z" fill="#1A1A1A"/>
<path fill-rule="evenodd" clip-rule="evenodd" d="M470.079 110.615C473.785 110.203 477.248 109.7 480.723 109.563C483.989 112.815 487.334 116.2 490.635 119.697C487.52 120.235 484.204 120.852 480.627 121.516C477.186 117.84 473.538 114.159 470.079 110.615Z" fill="#1A1A1A"/>
<path fill-rule="evenodd" clip-rule="evenodd" d="M482.333 109.506C485.571 109.197 488.557 108.912 491.586 108.711C494.773 111.793 497.976 114.965 500.745 117.909C498.09 118.441 495.246 118.99 492.105 119.384C488.909 115.971 485.728 112.747 482.336 109.506H482.333Z" fill="#1A1A1A"/>
<path fill-rule="evenodd" clip-rule="evenodd" d="M492.948 108.609C495.851 108.313 498.68 108.123 501.213 107.849C504.142 110.702 507.025 113.645 509.875 116.487C507.488 117.047 504.752 117.332 502.182 117.711C499.176 114.734 496.199 111.691 492.948 108.611V108.609Z" fill="#1A1A1A"/>
<path fill-rule="evenodd" clip-rule="evenodd" d="M502.673 107.895C505.247 107.666 507.645 107.437 509.917 107.226C512.407 109.805 515.029 112.399 517.672 114.925C515.5 115.291 513.196 115.847 511.002 116.337C508.266 113.49 505.542 110.787 502.673 107.895Z" fill="#1A1A1A"/>
<path fill-rule="evenodd" clip-rule="evenodd" d="M511.31 107.076C513.511 106.921 515.477 106.664 517.492 106.566C519.892 108.846 522.302 111.218 524.724 113.625C522.864 113.969 521.114 114.385 519.133 114.712C516.547 112.179 513.863 109.589 511.31 107.073V107.076Z" fill="#1A1A1A"/>
<path fill-rule="evenodd" clip-rule="evenodd" d="M518.647 106.361C520.542 106.133 522.204 105.928 523.972 105.773C526.266 108.014 528.574 110.186 530.836 112.519C529.283 112.895 527.612 113.17 525.877 113.61C523.51 111.186 521.043 108.744 518.645 106.361H518.647Z" fill="#1A1A1A"/>
<path fill-rule="evenodd" clip-rule="evenodd" d="M524.715 105.732C526.312 105.468 527.677 105.131 529.094 104.863C531.168 106.938 533.307 109.042 535.234 110.992C533.983 111.364 532.557 111.724 531.24 112.164C529.092 110.014 526.841 107.831 524.715 105.732Z" fill="#1A1A1A"/>
<path fill-rule="evenodd" clip-rule="evenodd" d="M529.998 104.68C531.24 104.434 532.592 104.36 533.716 104.057C535.681 105.995 537.658 107.916 539.472 109.768C538.459 110.11 537.442 110.482 536.252 110.802C534.27 108.859 532.126 106.847 529.996 104.68H529.998Z" fill="#1A1A1A"/>
<path fill-rule="evenodd" clip-rule="evenodd" d="M544.124 105.847C544.507 105.521 544.829 105.013 545.102 104.652C546.408 106.035 547.714 107.252 548.803 108.476C548.823 109.077 548.613 109.609 548.348 110.123C546.918 108.705 545.603 107.35 544.127 105.847H544.124Z" fill="#1A1A1A"/>
<path fill-rule="evenodd" clip-rule="evenodd" d="M518.656 94.5562C515.533 93.8941 512.464 93.2298 508.94 92.5328C508.111 92.1102 507.33 91.9164 506.332 91.5439C510.073 92.4587 513.476 93.184 516.766 93.9616C517.536 94.4821 518.05 94.2426 518.656 94.5562Z" fill="#1A1A1A"/>
<path fill-rule="evenodd" clip-rule="evenodd" d="M497.39 91.0649C492.967 90.6816 488.491 90.6925 483.62 90.4703C482.705 90.3854 481.673 90.3091 480.605 89.9846C485.693 90.4703 490.355 90.3614 494.852 90.6315C495.911 91.0257 496.718 90.8841 497.39 91.0671V91.0649Z" fill="#1A1A1A"/>
<path fill-rule="evenodd" clip-rule="evenodd" d="M408.73 100.267C414.371 99.9077 419.969 99.7073 425.024 99.3806C429.076 103.438 433.079 107.566 436.985 111.767C431.987 112.27 426.661 112.756 421.356 113.372C417.174 108.851 412.847 104.364 408.732 100.265L408.73 100.267Z" fill="#1A1A1A"/>
<path fill-rule="evenodd" clip-rule="evenodd" d="M427.483 99.2391C432.532 99.1585 437.325 99.0562 441.824 98.8623C445.475 102.613 449.491 106.54 453.028 110.284C448.772 110.702 444.147 111.027 439.372 111.417C435.505 107.328 431.429 103.197 427.483 99.2413V99.2391Z" fill="#1A1A1A"/>
<path fill-rule="evenodd" clip-rule="evenodd" d="M443.992 98.8449C448.45 98.736 452.639 98.7425 456.771 98.6445C460.279 101.988 463.779 105.545 467.179 109.208C463.298 109.419 459.284 109.7 455.1 110.19C451.617 106.464 447.656 102.519 443.99 98.8427L443.992 98.8449Z" fill="#1A1A1A"/>
<path fill-rule="evenodd" clip-rule="evenodd" d="M458.696 98.5248C462.631 98.4442 466.3 98.5139 469.861 98.3984C473.227 101.628 476.502 104.848 479.685 108.043C476.331 108.191 472.823 108.614 469.064 109.021C465.639 105.523 462.141 101.909 458.696 98.5248Z" fill="#1A1A1A"/>
<path fill-rule="evenodd" clip-rule="evenodd" d="M471.577 98.3179C475.106 98.3854 478.177 98.2199 481.395 98.2504C484.566 101.315 487.651 104.264 490.639 107.265C487.67 107.533 484.573 107.786 481.292 107.991C478.111 104.739 474.876 101.663 471.577 98.3179Z" fill="#1A1A1A"/>
<path fill-rule="evenodd" clip-rule="evenodd" d="M482.867 98.1413C486.017 98.1064 488.871 98.0955 491.722 97.9932C494.644 100.816 497.47 103.606 500.31 106.453C497.763 106.945 495.001 107.069 492.109 107.269C489.007 104.188 486.096 101.21 482.865 98.1413H482.867Z" fill="#1A1A1A"/>
<path fill-rule="evenodd" clip-rule="evenodd" d="M493.051 98.0259C495.711 98.0259 498.415 98.1457 500.721 98.0825C503.389 100.581 506.124 103.255 508.825 105.817C506.504 105.954 504.116 106.148 501.593 106.446C498.866 103.617 495.919 100.844 493.051 98.0259Z" fill="#1A1A1A"/>
<path fill-rule="evenodd" clip-rule="evenodd" d="M394.594 85.2168C400.529 85.28 406.256 85.3649 411.606 85.4978C415.511 89.4139 419.404 93.1798 423.25 97.0632C417.987 97.2396 412.451 97.5032 406.892 97.7428C402.725 93.5304 398.545 89.2593 394.594 85.219V85.2168Z" fill="#1A1A1A"/>
<path fill-rule="evenodd" clip-rule="evenodd" d="M414.104 85.6741C419.328 85.6915 424.383 85.9202 429.086 86.0748C432.783 89.6708 436.506 93.2668 440.091 96.8388C435.517 96.793 430.615 96.8671 425.676 97.0958C421.9 93.123 418.041 89.4007 414.104 85.6741Z" fill="#1A1A1A"/>
<path fill-rule="evenodd" clip-rule="evenodd" d="M431.464 86.1143C436.095 86.2057 440.579 86.3887 444.814 86.5782C448.189 89.8257 451.626 93.1755 455.066 96.6974C451.009 96.7257 446.754 96.8063 442.366 96.8738C438.79 93.2496 435.067 89.5861 431.466 86.1143H431.464Z" fill="#1A1A1A"/>
<path fill-rule="evenodd" clip-rule="evenodd" d="M446.758 86.5999C450.971 86.8394 454.609 86.9135 458.452 87.1313C461.865 90.3047 464.962 93.3518 468.241 96.5231C464.579 96.5405 460.854 96.5013 456.864 96.5797C453.64 93.2081 450.197 89.8582 446.758 86.5999Z" fill="#1A1A1A"/>
<path fill-rule="evenodd" clip-rule="evenodd" d="M460.423 87.2969C463.923 87.3644 467.351 87.4624 470.761 87.6628C473.92 90.7099 476.943 93.6023 479.874 96.4491C476.818 96.6037 473.53 96.6255 469.952 96.5471C466.787 93.3628 463.619 90.3788 460.423 87.2969Z" fill="#1A1A1A"/>
<path fill-rule="evenodd" clip-rule="evenodd" d="M472.437 87.7151C475.773 87.9438 478.706 88.0701 481.521 88.1834C484.503 90.9321 487.552 93.7047 490.284 96.3924C487.497 96.4382 484.584 96.5297 481.388 96.4491C478.454 93.6132 475.484 90.7273 472.437 87.7151Z" fill="#1A1A1A"/>
<path fill-rule="evenodd" clip-rule="evenodd" d="M483.276 88.5144C486.243 88.7605 488.867 88.8977 491.543 89.0567C494.27 91.6399 497.123 94.3037 499.759 96.9696C497.241 96.7758 494.592 96.7409 491.827 96.6276C489.086 94.0488 486.361 91.4722 483.276 88.5166V88.5144Z" fill="#1A1A1A"/>
<path fill-rule="evenodd" clip-rule="evenodd" d="M401.527 73.1133C406.958 73.4226 412.099 73.6338 417.069 74.039C420.752 77.5543 424.309 80.9564 427.905 84.6199C423.001 84.2889 418.097 84.254 412.781 84.0994C409.17 80.4294 405.399 76.7659 401.529 73.1133H401.527Z" fill="#1A1A1A"/>
<path fill-rule="evenodd" clip-rule="evenodd" d="M419.556 74.3896C424.421 74.6118 428.892 75.03 433.402 75.5048C436.83 78.6608 440.151 81.8778 443.55 85.1536C439.168 84.7877 434.903 84.7768 430.165 84.6287C426.595 81.1351 423.007 77.5805 419.556 74.3896Z" fill="#1A1A1A"/>
<path fill-rule="evenodd" clip-rule="evenodd" d="M435.485 75.6812C439.768 76.0122 443.738 76.4348 447.759 76.8704C451.014 79.8195 454.157 82.8905 457.432 85.9703C453.555 85.576 449.749 85.4955 445.493 85.1818C442.301 82.0955 438.908 78.9112 435.485 75.6812Z" fill="#1A1A1A"/>
<path fill-rule="evenodd" clip-rule="evenodd" d="M449.716 77.012C453.505 77.3496 457.073 77.5543 460.614 77.8919C463.672 80.7495 466.641 83.5744 469.675 86.4712C466.267 86.2948 462.905 86.1445 459.131 85.9746C455.907 82.9341 452.919 79.9785 449.716 77.012Z" fill="#1A1A1A"/>
<path fill-rule="evenodd" clip-rule="evenodd" d="M462.375 78.1055C465.573 78.3167 468.758 78.6195 472.035 79.0834C474.911 81.7123 477.792 84.4523 480.59 87.0747C477.611 86.9309 474.522 86.6347 471.346 86.5541C468.25 83.6551 465.273 80.9064 462.375 78.1055Z" fill="#1A1A1A"/>
<path fill-rule="evenodd" clip-rule="evenodd" d="M481.823 81.1287C484.636 81.4772 487.331 81.7973 489.805 82.0151C492.347 84.3522 495.06 86.8286 497.676 89.2876C495.189 89.0655 492.627 89.0067 490.072 88.8477C487.476 86.2972 484.669 83.7205 481.823 81.1308V81.1287Z" fill="#1A1A1A"/>
<path fill-rule="evenodd" clip-rule="evenodd" d="M491.324 82.1458C493.734 82.357 496.033 82.5117 498.265 82.7926C500.601 85.0447 502.957 87.1487 505.203 89.3486C503.23 89.3203 500.977 89.1591 498.827 89.0916C496.425 86.8503 493.82 84.4087 491.324 82.1458Z" fill="#1A1A1A"/>
<path fill-rule="evenodd" clip-rule="evenodd" d="M407.402 63.1443C412.289 63.7215 417.001 64.2769 421.75 64.8432C425.114 67.9752 428.397 71.0114 431.854 74.1957C427.194 73.5902 422.822 73.3267 417.836 72.7887C414.43 69.4911 410.891 66.3852 407.402 63.1443Z" fill="#1A1A1A"/>
<path fill-rule="evenodd" clip-rule="evenodd" d="M423.933 65.072C428.284 65.5468 432.654 66.1632 436.808 66.6838C439.89 69.5936 443.102 72.5318 446.319 75.5441C442.251 75.0932 438.322 74.7774 433.932 74.4115C430.482 71.1771 427.188 68.1692 423.933 65.0698V65.072Z" fill="#1A1A1A"/>
<path fill-rule="evenodd" clip-rule="evenodd" d="M438.796 66.9167C442.659 67.3567 446.448 67.8773 450.333 68.461C453.293 71.2402 456.121 73.7841 459.212 76.6309C455.675 76.2933 452.063 76.0079 448.264 75.7553C445.107 72.7256 441.844 69.7177 438.796 66.9167Z" fill="#1A1A1A"/>
<path fill-rule="evenodd" clip-rule="evenodd" d="M452.024 68.7246C455.454 69.2495 458.882 69.7026 462.137 70.1425C464.965 72.7388 467.923 75.3437 470.733 77.9007C467.505 77.5697 464.326 77.2212 460.975 76.8422C457.876 74.0347 454.942 71.3775 452.024 68.7246Z" fill="#1A1A1A"/>
<path fill-rule="evenodd" clip-rule="evenodd" d="M472.627 72.3772C475.578 72.852 478.31 73.1787 480.876 73.5098C483.527 75.9383 486.202 78.3298 488.716 80.7758C486.192 80.5122 483.608 80.2509 480.743 79.8849C478.076 77.4041 475.42 74.9691 472.627 72.3794V72.3772Z" fill="#1A1A1A"/>
<path fill-rule="evenodd" clip-rule="evenodd" d="M482.78 74.2395C485.391 74.588 487.719 74.9539 490.092 75.3939C492.56 77.5937 494.981 79.7717 497.573 82.1153C495.346 81.8235 492.938 81.6405 490.53 81.4401C488.008 79.0268 485.444 76.6375 482.777 74.2373L482.78 74.2395Z" fill="#1A1A1A"/>
<path fill-rule="evenodd" clip-rule="evenodd" d="M396.918 51.5725C402.069 52.3805 406.934 53.1015 411.611 53.9095C414.971 56.7062 418.158 59.5812 421.605 62.7306C416.892 62.0097 412.132 61.4957 407.269 60.8662C403.802 57.6601 400.378 54.6174 396.92 51.5703L396.918 51.5725Z" fill="#1A1A1A"/>
<path fill-rule="evenodd" clip-rule="evenodd" d="M413.83 54.1426C418.435 54.9354 422.832 55.554 427.145 56.301C430.134 59.0737 433.264 61.7483 436.436 64.6539C432.251 64.0484 427.931 63.5169 423.562 62.8526C420.362 59.9427 417.164 57.1069 413.83 54.1426Z" fill="#1A1A1A"/>
<path fill-rule="evenodd" clip-rule="evenodd" d="M401.905 43.8381C406.588 44.6636 411.077 45.5697 415.465 46.3886C418.621 49.1831 421.708 51.8643 424.799 54.5541C420.658 53.8441 416.163 53.158 411.447 52.3565C408.332 49.5838 405.081 46.7175 401.903 43.8381H401.905Z" fill="#1A1A1A"/>
<path fill-rule="evenodd" clip-rule="evenodd" d="M350.964 46.772C357.701 47.702 363.975 48.5667 369.942 49.1874C373.912 52.6092 377.548 56.1202 381.065 59.4134C375.273 58.9277 369.104 58.2307 362.564 57.5272C358.843 53.9748 354.974 50.3745 350.966 46.7741L350.964 46.772Z" fill="#1A1A1A"/>
<path fill-rule="evenodd" clip-rule="evenodd" d="M532.775 113.163C534.206 112.769 535.516 112.351 536.767 112.013C538.71 113.934 540.718 115.895 542.621 118.051C541.654 118.554 540.515 119.16 539.311 119.708C537.233 117.611 534.998 115.318 532.775 113.163Z" fill="#1A1A1A"/>
<path fill-rule="evenodd" clip-rule="evenodd" d="M527.416 114.518C529.094 114.124 530.65 113.695 532.144 113.307C534.425 115.616 536.604 117.835 538.68 119.944C537.472 120.606 536.142 121.224 534.69 121.858C532.327 119.406 529.864 116.897 527.416 114.518Z" fill="#1A1A1A"/>
<path fill-rule="evenodd" clip-rule="evenodd" d="M521.189 115.932C523.114 115.59 524.864 115.115 526.55 114.634C529.11 117.223 531.573 119.676 533.874 122.072C532.299 122.581 530.715 123.18 528.836 123.655C526.31 121.072 523.683 118.476 521.187 115.932H521.189Z" fill="#1A1A1A"/>
<path fill-rule="evenodd" clip-rule="evenodd" d="M513.238 117.519C515.489 117.034 517.674 116.52 519.844 116.176C522.397 118.709 525.072 121.549 527.655 124.23C525.702 124.761 523.797 125.539 521.826 126.31C519.021 123.291 516.06 120.423 513.238 117.517V117.519Z" fill="#1A1A1A"/>
<path fill-rule="evenodd" clip-rule="evenodd" d="M504.6 118.948C507.231 118.554 509.849 118.16 512.054 117.657C514.933 120.514 517.893 123.42 520.754 126.415C518.529 127.14 516.182 127.769 513.758 128.456C510.858 125.345 507.804 122.202 504.6 118.948Z" fill="#1A1A1A"/>
<path fill-rule="evenodd" clip-rule="evenodd" d="M494.747 120.83C497.776 120.362 500.559 119.835 503.214 119.275C506.53 122.642 509.637 125.877 512.537 128.941C510.1 129.638 507.462 130.507 504.754 131.324C501.353 127.728 498.207 124.424 494.747 120.828V120.83Z" fill="#1A1A1A"/>
<path fill-rule="evenodd" clip-rule="evenodd" d="M483.624 123.167C487.069 122.579 490.269 121.915 493.391 121.281C496.729 124.831 500.049 128.249 503.392 131.781C500.53 132.714 497.475 133.622 494.344 134.537C490.805 130.677 487.119 126.809 483.624 123.167Z" fill="#1A1A1A"/>
<path fill-rule="evenodd" clip-rule="evenodd" d="M469.552 125.208C473.507 124.419 477.293 123.829 480.815 123.315C484.429 126.918 488.095 130.86 491.687 134.709C488.355 135.504 484.759 136.36 481.171 137.544C477.221 133.206 473.461 129.176 469.55 125.208H469.552Z" fill="#1A1A1A"/>
<path fill-rule="evenodd" clip-rule="evenodd" d="M455.082 127.769C459.538 126.9 463.926 125.918 467.776 125.158C471.722 129.303 475.716 133.389 479.487 137.625C475.688 138.786 471.667 140.054 467.279 141.09C463.259 136.619 459.205 132.28 455.082 127.772V127.769Z" fill="#1A1A1A"/>
<path fill-rule="evenodd" clip-rule="evenodd" d="M437.882 130.84C443.042 129.943 448.161 129.166 452.582 127.891C456.744 132.483 460.999 137.113 464.947 141.622C460.559 142.892 455.95 144.183 451.07 145.412C446.608 140.404 442.336 135.665 437.88 130.84H437.882Z" fill="#1A1A1A"/>
<path fill-rule="evenodd" clip-rule="evenodd" d="M418.394 134.961C424.457 133.709 430.033 132.589 435.274 131.4C439.774 136.344 444.319 141.284 448.76 146.435C443.291 147.949 438.247 149.837 432.459 151.316C427.677 145.817 422.95 140.341 418.394 134.961Z" fill="#1A1A1A"/>
<path fill-rule="evenodd" clip-rule="evenodd" d="M395.87 140.117C402.962 138.727 409.246 137.414 415.583 136.035C420.313 141.465 425.031 146.993 429.756 152.397C423.839 154.353 417.572 156.267 410.996 158.227C405.795 151.887 400.851 145.926 395.87 140.117Z" fill="#1A1A1A"/>
<path fill-rule="evenodd" clip-rule="evenodd" d="M161.427 108.729C165.892 105.161 170.262 101.561 174.257 98.2742C180.71 101.927 187.134 105.329 193.622 109.186C190.002 112.965 186.417 116.927 182.083 120.98C175.088 116.846 168.097 112.736 161.429 108.729H161.427Z" fill="#1A1A1A"/>
<path fill-rule="evenodd" clip-rule="evenodd" d="M380.426 101.406C382.202 99.618 383.937 97.954 385.742 96.5295C388.255 98.2894 390.873 100.165 393.459 101.949C391.853 103.641 390.337 105.46 388.708 107.505C385.925 105.425 383.15 103.36 380.424 101.406H380.426Z" fill="#1A1A1A"/>
<path fill-rule="evenodd" clip-rule="evenodd" d="M450.718 35.3438C451.409 34.2896 452.044 33.1918 452.628 32.0919C454.89 33.9629 457.305 35.9885 459.676 37.9618C459.306 39.2272 458.783 40.3838 458.193 41.6231C455.712 39.5387 453.19 37.4194 450.72 35.3438H450.718Z" fill="#1A1A1A"/>
<path fill-rule="evenodd" clip-rule="evenodd" d="M83.5277 218.222C89.1079 213.855 94.3709 209.671 99.483 205.988C106.139 208.035 112.671 210.459 119.524 212.772C114.555 216.797 109.663 221.147 104.637 225.834C97.488 223.146 90.1754 220.724 83.5255 218.219L83.5277 218.222Z" fill="#1A1A1A"/>
<path fill-rule="evenodd" clip-rule="evenodd" d="M434.789 49.5099C435.338 48.9066 435.771 48.3185 436.202 47.7522C437.672 48.8194 439.151 49.8671 440.579 50.9125C440.249 51.5594 439.908 52.3196 439.525 52.9556C437.943 51.8121 436.421 50.6773 434.789 49.5077V49.5099Z" fill="#1A1A1A"/>
<path fill-rule="evenodd" clip-rule="evenodd" d="M384.136 21.9073C385.462 21.3432 386.717 20.8445 387.96 20.3849C389.834 21.659 391.707 22.9768 393.623 24.3664C392.577 24.9958 391.429 25.5556 390.123 26.2787C388.172 24.7562 386.153 23.334 384.136 21.9095V21.9073Z" fill="#1A1A1A"/>
<path fill-rule="evenodd" clip-rule="evenodd" d="M102.204 73.5946C107.459 71.434 112.343 69.5478 116.985 67.7705C122.987 70.2578 128.67 72.6406 134.108 75.1672C129.915 77.2603 125.499 79.4035 120.557 82.0389C114.214 79.0833 108.049 76.1517 102.204 73.5946Z" fill="#1A1A1A"/>
<path fill-rule="evenodd" clip-rule="evenodd" d="M405.624 18.5401C406.424 18.1633 407.024 17.6688 407.658 17.2964C409.185 18.2939 410.639 19.42 412.109 20.5068C411.571 20.9838 411.075 21.5479 410.425 21.9836C408.962 20.8662 407.295 19.6835 405.624 18.5401Z" fill="#1A1A1A"/>
<path fill-rule="evenodd" clip-rule="evenodd" d="M439.026 10.3114C439.451 10.0021 439.914 9.76469 440.332 9.47937C441.433 10.331 442.638 11.2109 443.694 12.0233C443.329 12.3544 443.012 12.6898 442.686 13.0732C441.481 12.1649 440.229 11.2392 439.026 10.3114Z" fill="#1A1A1A"/>
<path fill-rule="evenodd" clip-rule="evenodd" d="M519.675 94.1795C519.854 93.7221 520.09 93.2647 520.213 92.8247C521.092 93.4258 521.913 94.1119 522.792 94.7392C522.724 95.2707 522.602 95.7738 522.479 96.2769C521.488 95.5734 520.607 94.8764 519.675 94.1795Z" fill="#1A1A1A"/>
<path fill-rule="evenodd" clip-rule="evenodd" d="M79.4924 144.497C83.233 142.709 86.2604 141.021 89.4541 139.405C94.144 140.731 98.6348 141.931 103.11 143.229C100.365 144.887 97.2568 146.819 93.9668 148.648C89.0648 147.315 84.2633 145.865 79.4924 144.497Z" fill="#1A1A1A"/>
<path fill-rule="evenodd" clip-rule="evenodd" d="M354.759 13.2561C356.071 12.8684 357.412 12.6027 358.547 12.2063C360.374 13.3977 362.303 14.6348 364.031 15.7827C362.931 16.2662 361.901 16.6778 360.684 17.1309C358.867 15.8829 356.74 14.5063 354.759 13.2561Z" fill="#1A1A1A"/>
<path fill-rule="evenodd" clip-rule="evenodd" d="M423.874 19.8839C424.63 19.6443 425.376 19.4744 426.074 19.261C427.249 20.1061 428.579 21.0339 429.812 21.8703C429.11 22.1186 428.463 22.3495 427.756 22.6021C426.426 21.6786 425.199 20.8096 423.871 19.8839H423.874Z" fill="#1A1A1A"/>
<path fill-rule="evenodd" clip-rule="evenodd" d="M551.533 117.498C551.747 117.149 551.907 116.875 552.123 116.526C552.817 117.001 553.508 117.48 554.145 117.927C553.989 118.286 553.889 118.624 553.672 118.916C552.976 118.465 552.224 117.979 551.533 117.498Z" fill="#1A1A1A"/>
<path fill-rule="evenodd" clip-rule="evenodd" d="M441.708 39.3164C442.465 39.0681 443.174 38.7828 443.869 38.5999C444.976 39.3513 446.192 40.1572 447.36 40.9064C446.658 41.1547 445.956 41.4161 445.302 41.7123C444.14 40.9217 442.922 40.1267 441.708 39.3164Z" fill="#1A1A1A"/>
<path fill-rule="evenodd" clip-rule="evenodd" d="M323.957 49.7102C325.6 49.2811 327.175 48.8434 328.688 48.4382C330.681 49.512 332.621 50.5335 334.724 51.6574C333.168 52.0124 331.641 52.4981 330.117 52.949C328.135 51.8425 325.965 50.7448 323.957 49.7102Z" fill="#1A1A1A"/>
<path fill-rule="evenodd" clip-rule="evenodd" d="M460.034 56.325C460.736 56.0788 461.445 55.7543 462.09 55.4951C463.178 56.2204 464.157 56.8847 465.194 57.5926C464.604 57.867 464.009 58.1763 463.357 58.5074C462.268 57.7538 461.174 57.096 460.034 56.3228V56.325Z" fill="#1A1A1A"/>
<path fill-rule="evenodd" clip-rule="evenodd" d="M451.123 27.494C451.737 27.335 452.339 27.274 452.949 27.1608C453.844 27.7706 454.782 28.4524 455.684 29.0252C455.18 29.1341 454.568 29.2909 454.056 29.4651C453.063 28.7791 452.12 28.1169 451.123 27.4962V27.494Z" fill="#1A1A1A"/>
<path fill-rule="evenodd" clip-rule="evenodd" d="M0.000204086 184.628C4.99197 183.125 10.2703 181.341 15.6055 179.792C20.5469 180.851 25.8843 181.604 30.9023 182.53C26.1053 183.998 20.91 185.719 16.1108 187.424C10.5043 186.481 5.3179 185.612 0.000204086 184.63V184.628Z" fill="#1A1A1A"/>
<path fill-rule="evenodd" clip-rule="evenodd" d="M543.142 114.32C543.479 114.07 543.816 113.81 544.037 113.571C544.665 113.972 545.352 114.429 545.925 114.795C545.704 115.063 545.426 115.291 545.148 115.579C544.461 115.115 543.829 114.727 543.142 114.322V114.32Z" fill="#1A1A1A"/>
<path fill-rule="evenodd" clip-rule="evenodd" d="M246.532 87.6236C249.017 87.0181 251.679 86.6565 254.215 86.1077C256.713 86.9767 258.985 87.7368 261.219 88.6298C258.918 89.0524 256.426 89.647 253.825 90.2416C251.395 89.3442 248.899 88.4817 246.534 87.6236H246.532Z" fill="#1A1A1A"/>
<path fill-rule="evenodd" clip-rule="evenodd" d="M255.015 132.748C257.257 131.348 259.475 129.954 261.706 128.741C264.83 129.941 268.015 131.352 271.222 132.713C269.146 134.097 267.083 135.445 264.998 137.017C261.523 135.44 258.23 134.118 255.015 132.746V132.748Z" fill="#1A1A1A"/>
<path fill-rule="evenodd" clip-rule="evenodd" d="M550.225 125.739C550.44 125.123 550.595 124.494 550.753 123.956C551.63 124.585 552.568 125.282 553.509 126.007C553.415 126.637 553.318 127.351 553.17 127.996C552.225 127.253 551.225 126.497 550.225 125.737V125.739Z" fill="#1A1A1A"/>
<path fill-rule="evenodd" clip-rule="evenodd" d="M309.306 77.0251C311.327 75.8707 313.191 74.8405 314.921 73.8364C317.581 75.311 320.353 76.877 323.122 78.4713C321.381 79.5407 319.826 80.8258 317.885 81.9301C314.941 80.2769 312.13 78.6325 309.306 77.0251Z" fill="#1A1A1A"/>
</g>
<defs>
<clipPath id="clip0_181_359">
<rect width="569" height="310" fill="white" transform="matrix(-1 0 0 1 569 -30)"/>
</clipPath>
</defs>
</svg>
