<svg width="18" height="18" viewBox="0 0 18 18" fill="none" xmlns="http://www.w3.org/2000/svg">
<path d="M2.8125 4.5C2.8125 3.56802 3.56802 2.8125 4.5 2.8125H6.1875C7.11948 2.8125 7.875 3.56802 7.875 4.5V6.1875C7.875 7.11948 7.11948 7.875 6.1875 7.875H4.5C3.56802 7.875 2.8125 7.11948 2.8125 6.1875V4.5Z" stroke="#999999" stroke-linecap="round" stroke-linejoin="round"/>
<path d="M2.8125 11.8125C2.8125 10.8805 3.56802 10.125 4.5 10.125H6.1875C7.11948 10.125 7.875 10.8805 7.875 11.8125V13.5C7.875 14.432 7.11948 15.1875 6.1875 15.1875H4.5C3.56802 15.1875 2.8125 14.432 2.8125 13.5V11.8125Z" stroke="#999999" stroke-linecap="round" stroke-linejoin="round"/>
<path d="M10.125 4.5C10.125 3.56802 10.8805 2.8125 11.8125 2.8125H13.5C14.432 2.8125 15.1875 3.56802 15.1875 4.5V6.1875C15.1875 7.11948 14.432 7.875 13.5 7.875H11.8125C10.8805 7.875 10.125 7.11948 10.125 6.1875V4.5Z" stroke="#999999" stroke-linecap="round" stroke-linejoin="round"/>
<path d="M10.125 11.8125C10.125 10.8805 10.8805 10.125 11.8125 10.125H13.5C14.432 10.125 15.1875 10.8805 15.1875 11.8125V13.5C15.1875 14.432 14.432 15.1875 13.5 15.1875H11.8125C10.8805 15.1875 10.125 14.432 10.125 13.5V11.8125Z" stroke="#999999" stroke-linecap="round" stroke-linejoin="round"/>
</svg>
