<svg width="20" height="20" viewBox="0 0 20 20" fill="none" xmlns="http://www.w3.org/2000/svg">
<path d="M14.1665 5.83333H14.9998V6.66667C14.9998 6.88768 15.0876 7.09964 15.2439 7.25592C15.4002 7.4122 15.6122 7.5 15.8332 7.5C16.0542 7.5 16.2661 7.4122 16.4224 7.25592C16.5787 7.09964 16.6665 6.88768 16.6665 6.66667V5.83333H17.4998C17.7208 5.83333 17.9328 5.74554 18.0891 5.58926C18.2454 5.43298 18.3332 5.22101 18.3332 5C18.3332 4.77899 18.2454 4.56702 18.0891 4.41074C17.9328 4.25446 17.7208 4.16667 17.4998 4.16667H16.6665V3.33333C16.6665 3.11232 16.5787 2.90036 16.4224 2.74408C16.2661 2.5878 16.0542 2.5 15.8332 2.5C15.6122 2.5 15.4002 2.5878 15.2439 2.74408C15.0876 2.90036 14.9998 3.11232 14.9998 3.33333V4.16667H14.1665C13.9455 4.16667 13.7335 4.25446 13.5772 4.41074C13.421 4.56702 13.3332 4.77899 13.3332 5C13.3332 5.22101 13.421 5.43298 13.5772 5.58926C13.7335 5.74554 13.9455 5.83333 14.1665 5.83333ZM17.4998 9.16667C17.2788 9.16667 17.0669 9.25446 16.9106 9.41074C16.7543 9.56702 16.6665 9.77899 16.6665 10V15C16.6665 15.221 16.5787 15.433 16.4224 15.5893C16.2661 15.7455 16.0542 15.8333 15.8332 15.8333H4.1665C3.94549 15.8333 3.73353 15.7455 3.57725 15.5893C3.42097 15.433 3.33317 15.221 3.33317 15V7.00833L8.23317 11.9167C8.70192 12.3848 9.33733 12.6478 9.99984 12.6478C10.6623 12.6478 11.2978 12.3848 11.7665 11.9167L13.8248 9.85833C13.9818 9.70141 14.0699 9.48858 14.0699 9.26667C14.0699 9.04475 13.9818 8.83192 13.8248 8.675C13.6679 8.51808 13.4551 8.42992 13.2332 8.42992C13.0113 8.42992 12.7984 8.51808 12.6415 8.675L10.5832 10.7333C10.4274 10.886 10.218 10.9715 9.99984 10.9715C9.78171 10.9715 9.57228 10.886 9.4165 10.7333L4.50817 5.83333H10.8332C11.0542 5.83333 11.2661 5.74554 11.4224 5.58926C11.5787 5.43298 11.6665 5.22101 11.6665 5C11.6665 4.77899 11.5787 4.56702 11.4224 4.41074C11.2661 4.25446 11.0542 4.16667 10.8332 4.16667H4.1665C3.50346 4.16667 2.86758 4.43006 2.39874 4.8989C1.9299 5.36774 1.6665 6.00363 1.6665 6.66667V15C1.6665 15.663 1.9299 16.2989 2.39874 16.7678C2.86758 17.2366 3.50346 17.5 4.1665 17.5H15.8332C16.4962 17.5 17.1321 17.2366 17.6009 16.7678C18.0698 16.2989 18.3332 15.663 18.3332 15V10C18.3332 9.77899 18.2454 9.56702 18.0891 9.41074C17.9328 9.25446 17.7208 9.16667 17.4998 9.16667Z" fill="#999999"/>
</svg>
