<svg width="60" height="60" viewBox="0 0 60 60" fill="none" xmlns="http://www.w3.org/2000/svg">
<rect x="0.5" y="0.5" width="59" height="59" rx="29.5" stroke="url(#paint0_linear_172_3512)"/>
<rect x="0.5" y="0.5" width="59" height="59" rx="29.5" stroke="url(#paint1_linear_172_3512)"/>
<rect x="8.5" y="8.5" width="43" height="43" rx="21.5" stroke="url(#paint2_linear_172_3512)"/>
<rect x="8.5" y="8.5" width="43" height="43" rx="21.5" stroke="url(#paint3_linear_172_3512)"/>
<path d="M30 18.75C25.4437 18.75 21.75 22.4437 21.75 27C21.75 30.0508 23.4063 32.7138 25.8652 34.1405C26.5506 34.5382 26.9799 35.1484 26.9993 35.7626C27.01 36.1013 27.2466 36.3908 27.5764 36.4687C27.9278 36.5518 28.2859 36.6171 28.6496 36.6639C28.9732 36.7055 29.2502 36.4462 29.2502 36.12V31.4589C28.9309 31.4236 28.618 31.366 28.3132 31.2875C27.9121 31.1843 27.6706 30.7754 27.7739 30.3743C27.8771 29.9731 28.286 29.7316 28.6871 29.8349C29.1059 29.9427 29.5458 30.0002 30.0002 30.0002C30.4546 30.0002 30.8944 29.9427 31.3132 29.8349C31.7144 29.7316 32.1233 29.9731 32.2265 30.3743C32.3298 30.7754 32.0883 31.1843 31.6871 31.2875C31.3823 31.366 31.0695 31.4236 30.7502 31.4589V36.1199C30.7502 36.4462 31.0272 36.7054 31.3508 36.6638C31.7144 36.6171 32.0723 36.5518 32.4236 36.4687C32.7534 36.3908 32.99 36.1013 33.0007 35.7626C33.0201 35.1484 33.4494 34.5382 34.1348 34.1405C36.5937 32.7138 38.25 30.0508 38.25 27C38.25 22.4437 34.5563 18.75 30 18.75Z" fill="#A685FA"/>
<path fill-rule="evenodd" clip-rule="evenodd" d="M27.0131 37.8997C27.0903 37.4927 27.4828 37.2254 27.8898 37.3026C28.5727 37.4321 29.2781 37.5 30 37.5C30.7219 37.5 31.4273 37.4321 32.1102 37.3026C32.5172 37.2254 32.9097 37.4927 32.9869 37.8997C33.0641 38.3066 32.7967 38.6991 32.3898 38.7763C31.6151 38.9232 30.8162 39 30 39C29.1838 39 28.3849 38.9232 27.6102 38.7763C27.2033 38.6991 26.9359 38.3066 27.0131 37.8997Z" fill="#A685FA"/>
<path fill-rule="evenodd" clip-rule="evenodd" d="M27.7541 40.344C27.7972 39.932 28.1661 39.633 28.578 39.6761C29.0451 39.7249 29.5195 39.75 30 39.75C30.4805 39.75 30.9549 39.7249 31.422 39.6761C31.8339 39.633 32.2028 39.932 32.2459 40.344C32.289 40.7559 31.99 41.1248 31.578 41.1679C31.0592 41.2222 30.5327 41.25 30 41.25C29.4673 41.25 28.9408 41.2222 28.422 41.1679C28.01 41.1248 27.711 40.7559 27.7541 40.344Z" fill="#A685FA"/>
<defs>
<linearGradient id="paint0_linear_172_3512" x1="4.93903" y1="63.2927" x2="62.7439" y2="-4.02439" gradientUnits="userSpaceOnUse">
<stop stop-color="#A685FA"/>
<stop offset="0.323723" stop-color="#A685FA" stop-opacity="0"/>
</linearGradient>
<linearGradient id="paint1_linear_172_3512" x1="59.8171" y1="-7.68292" x2="4.93902" y2="60" gradientUnits="userSpaceOnUse">
<stop stop-color="#A685FA"/>
<stop offset="0.576615" stop-color="#A685FA" stop-opacity="0"/>
</linearGradient>
<linearGradient id="paint2_linear_172_3512" x1="3.20968" y1="10.4839" x2="51.8226" y2="52" gradientUnits="userSpaceOnUse">
<stop stop-color="#A685FA"/>
<stop offset="0.323723" stop-color="#A685FA" stop-opacity="0"/>
</linearGradient>
<linearGradient id="paint3_linear_172_3512" x1="60.6935" y1="61.9355" x2="9.59677" y2="25.7419" gradientUnits="userSpaceOnUse">
<stop stop-color="#A685FA"/>
<stop offset="0.576615" stop-color="#A685FA" stop-opacity="0"/>
</linearGradient>
</defs>
</svg>
