<svg width="60" height="60" viewBox="0 0 60 60" fill="none" xmlns="http://www.w3.org/2000/svg">
<rect x="0.5" y="0.5" width="59" height="59" rx="29.5" stroke="url(#paint0_linear_172_3319)"/>
<rect x="0.5" y="0.5" width="59" height="59" rx="29.5" stroke="url(#paint1_linear_172_3319)"/>
<rect x="8.5" y="8.5" width="43" height="43" rx="21.5" stroke="url(#paint2_linear_172_3319)"/>
<rect x="8.5" y="8.5" width="43" height="43" rx="21.5" stroke="url(#paint3_linear_172_3319)"/>
<path d="M30 20.25C30.4142 20.25 30.75 20.5858 30.75 21V23.25C30.75 23.6642 30.4142 24 30 24C29.5858 24 29.25 23.6642 29.25 23.25V21C29.25 20.5858 29.5858 20.25 30 20.25Z" fill="#A685FA"/>
<path d="M25.5 30C25.5 27.5147 27.5147 25.5 30 25.5C32.4853 25.5 34.5 27.5147 34.5 30C34.5 32.4853 32.4853 34.5 30 34.5C27.5147 34.5 25.5 32.4853 25.5 30Z" fill="#A685FA"/>
<path d="M36.8943 24.1663C37.1872 23.8734 37.1872 23.3986 36.8943 23.1057C36.6014 22.8128 36.1266 22.8128 35.8337 23.1057L34.2427 24.6967C33.9498 24.9896 33.9498 25.4644 34.2427 25.7573C34.5356 26.0502 35.0105 26.0502 35.3034 25.7573L36.8943 24.1663Z" fill="#A685FA"/>
<path d="M39.75 30C39.75 30.4142 39.4142 30.75 39 30.75H36.75C36.3358 30.75 36 30.4142 36 30C36 29.5858 36.3358 29.25 36.75 29.25H39C39.4142 29.25 39.75 29.5858 39.75 30Z" fill="#A685FA"/>
<path d="M35.8336 36.8943C36.1265 37.1871 36.6013 37.1871 36.8942 36.8943C37.1871 36.6014 37.1871 36.1265 36.8942 35.8336L35.3032 34.2426C35.0103 33.9497 34.5355 33.9497 34.2426 34.2426C33.9497 34.5355 33.9497 35.0104 34.2426 35.3033L35.8336 36.8943Z" fill="#A685FA"/>
<path d="M30 36C30.4142 36 30.75 36.3358 30.75 36.75V39C30.75 39.4142 30.4142 39.75 30 39.75C29.5858 39.75 29.25 39.4142 29.25 39V36.75C29.25 36.3358 29.5858 36 30 36Z" fill="#A685FA"/>
<path d="M25.7575 35.3033C26.0504 35.0104 26.0504 34.5355 25.7575 34.2426C25.4646 33.9497 24.9897 33.9497 24.6968 34.2426L23.1059 35.8336C22.813 36.1265 22.813 36.6014 23.1059 36.8943C23.3987 37.1872 23.8736 37.1872 24.1665 36.8943L25.7575 35.3033Z" fill="#A685FA"/>
<path d="M24 30C24 30.4142 23.6642 30.75 23.25 30.75H21C20.5858 30.75 20.25 30.4142 20.25 30C20.25 29.5858 20.5858 29.25 21 29.25H23.25C23.6642 29.25 24 29.5858 24 30Z" fill="#A685FA"/>
<path d="M24.6967 25.7573C24.9896 26.0502 25.4645 26.0502 25.7574 25.7573C26.0503 25.4644 26.0503 24.9896 25.7574 24.6967L24.1664 23.1057C23.8735 22.8128 23.3986 22.8128 23.1057 23.1057C22.8128 23.3986 22.8128 23.8734 23.1057 24.1663L24.6967 25.7573Z" fill="#A685FA"/>
<defs>
<linearGradient id="paint0_linear_172_3319" x1="4.93903" y1="63.2927" x2="62.7439" y2="-4.02439" gradientUnits="userSpaceOnUse">
<stop stop-color="#A685FA"/>
<stop offset="0.323723" stop-color="#A685FA" stop-opacity="0"/>
</linearGradient>
<linearGradient id="paint1_linear_172_3319" x1="59.8171" y1="-7.68292" x2="4.93902" y2="60" gradientUnits="userSpaceOnUse">
<stop stop-color="#A685FA"/>
<stop offset="0.576615" stop-color="#A685FA" stop-opacity="0"/>
</linearGradient>
<linearGradient id="paint2_linear_172_3319" x1="3.20968" y1="10.4839" x2="51.8226" y2="52" gradientUnits="userSpaceOnUse">
<stop stop-color="#A685FA"/>
<stop offset="0.323723" stop-color="#A685FA" stop-opacity="0"/>
</linearGradient>
<linearGradient id="paint3_linear_172_3319" x1="60.6935" y1="61.9355" x2="9.59677" y2="25.7419" gradientUnits="userSpaceOnUse">
<stop stop-color="#A685FA"/>
<stop offset="0.576615" stop-color="#A685FA" stop-opacity="0"/>
</linearGradient>
</defs>
</svg>
