<svg width="61" height="60" viewBox="0 0 61 60" fill="none" xmlns="http://www.w3.org/2000/svg">
<rect x="0.832031" y="0.5" width="59" height="59" rx="29.5" stroke="url(#paint0_linear_172_3302)"/>
<rect x="0.832031" y="0.5" width="59" height="59" rx="29.5" stroke="url(#paint1_linear_172_3302)"/>
<rect x="8.83203" y="8.5" width="43" height="43" rx="21.5" stroke="url(#paint2_linear_172_3302)"/>
<rect x="8.83203" y="8.5" width="43" height="43" rx="21.5" stroke="url(#paint3_linear_172_3302)"/>
<path fill-rule="evenodd" clip-rule="evenodd" d="M20.582 22.125C20.582 21.0895 21.4215 20.25 22.457 20.25H27.707C28.7426 20.25 29.582 21.0895 29.582 22.125V35.25C29.582 37.7353 27.5673 39.75 25.082 39.75C22.5968 39.75 20.582 37.7353 20.582 35.25V22.125ZM25.082 36.375C25.7034 36.375 26.207 35.8713 26.207 35.25C26.207 34.6287 25.7034 34.125 25.082 34.125C24.4607 34.125 23.957 34.6287 23.957 35.25C23.957 35.8713 24.4607 36.375 25.082 36.375Z" fill="#A685FA"/>
<path d="M29.051 39.75H38.2071C39.2427 39.75 40.0821 38.9105 40.0821 37.875V32.625C40.0821 31.5895 39.2427 30.75 38.2071 30.75H38.0674L29.3247 39.4926C29.2355 39.5818 29.1443 39.6676 29.051 39.75Z" fill="#A685FA"/>
<path d="M31.0703 35.6255L37.5446 29.1512C38.2768 28.419 38.2768 27.2318 37.5446 26.4996L33.8323 22.7872C33.1 22.055 31.9128 22.055 31.1806 22.7872L31.0819 22.886V35.25C31.0819 35.3761 31.078 35.5013 31.0703 35.6255Z" fill="#A685FA"/>
<defs>
<linearGradient id="paint0_linear_172_3302" x1="5.27106" y1="63.2927" x2="63.0759" y2="-4.02439" gradientUnits="userSpaceOnUse">
<stop stop-color="#A685FA"/>
<stop offset="0.323723" stop-color="#A685FA" stop-opacity="0"/>
</linearGradient>
<linearGradient id="paint1_linear_172_3302" x1="60.1491" y1="-7.68292" x2="5.27106" y2="60" gradientUnits="userSpaceOnUse">
<stop stop-color="#A685FA"/>
<stop offset="0.576615" stop-color="#A685FA" stop-opacity="0"/>
</linearGradient>
<linearGradient id="paint2_linear_172_3302" x1="3.54171" y1="10.4839" x2="52.1546" y2="52" gradientUnits="userSpaceOnUse">
<stop stop-color="#A685FA"/>
<stop offset="0.323723" stop-color="#A685FA" stop-opacity="0"/>
</linearGradient>
<linearGradient id="paint3_linear_172_3302" x1="61.0256" y1="61.9355" x2="9.9288" y2="25.7419" gradientUnits="userSpaceOnUse">
<stop stop-color="#A685FA"/>
<stop offset="0.576615" stop-color="#A685FA" stop-opacity="0"/>
</linearGradient>
</defs>
</svg>
