<svg width="61" height="60" viewBox="0 0 61 60" fill="none" xmlns="http://www.w3.org/2000/svg">
<rect x="1.16797" y="0.5" width="59" height="59" rx="29.5" stroke="url(#paint0_linear_170_3161)"/>
<rect x="1.16797" y="0.5" width="59" height="59" rx="29.5" stroke="url(#paint1_linear_170_3161)"/>
<rect x="9.16797" y="8.5" width="43" height="43" rx="21.5" stroke="url(#paint2_linear_170_3161)"/>
<rect x="9.16797" y="8.5" width="43" height="43" rx="21.5" stroke="url(#paint3_linear_170_3161)"/>
<path d="M39.668 24.375C39.668 27.0674 35.6385 29.25 30.668 29.25C25.6974 29.25 21.668 27.0674 21.668 24.375C21.668 21.6826 25.6974 19.5 30.668 19.5C35.6385 19.5 39.668 21.6826 39.668 24.375Z" fill="#A685FA"/>
<path d="M30.668 30.75C33.3532 30.75 35.8585 30.1637 37.7464 29.1411C38.4363 28.7673 39.0927 28.3043 39.6427 27.7567C39.6594 27.8783 39.668 28.0011 39.668 28.125C39.668 30.8174 35.6385 33 30.668 33C25.6974 33 21.668 30.8174 21.668 28.125C21.668 28.0011 21.6765 27.8783 21.6933 27.7567C22.2432 28.3043 22.8996 28.7673 23.5896 29.1411C25.4775 30.1637 27.9828 30.75 30.668 30.75Z" fill="#A685FA"/>
<path d="M30.668 34.5C33.3532 34.5 35.8585 33.9137 37.7464 32.8911C38.4363 32.5173 39.0927 32.0543 39.6427 31.5067C39.6594 31.6283 39.668 31.7511 39.668 31.875C39.668 34.5674 35.6385 36.75 30.668 36.75C25.6974 36.75 21.668 34.5674 21.668 31.875C21.668 31.7511 21.6765 31.6283 21.6933 31.5067C22.2432 32.0543 22.8996 32.5173 23.5896 32.8911C25.4775 33.9137 27.9828 34.5 30.668 34.5Z" fill="#A685FA"/>
<path d="M30.668 38.25C33.3532 38.25 35.8585 37.6637 37.7464 36.6411C38.4363 36.2673 39.0927 35.8043 39.6427 35.2567C39.6594 35.3783 39.668 35.5011 39.668 35.625C39.668 38.3174 35.6385 40.5 30.668 40.5C25.6974 40.5 21.668 38.3174 21.668 35.625C21.668 35.5011 21.6765 35.3783 21.6933 35.2567C22.2432 35.8043 22.8996 36.2673 23.5896 36.6411C25.4775 37.6637 27.9828 38.25 30.668 38.25Z" fill="#A685FA"/>
<defs>
<linearGradient id="paint0_linear_170_3161" x1="5.60699" y1="63.2927" x2="63.4119" y2="-4.02439" gradientUnits="userSpaceOnUse">
<stop stop-color="#A685FA"/>
<stop offset="0.323723" stop-color="#A685FA" stop-opacity="0"/>
</linearGradient>
<linearGradient id="paint1_linear_170_3161" x1="60.485" y1="-7.68292" x2="5.60699" y2="60" gradientUnits="userSpaceOnUse">
<stop stop-color="#A685FA"/>
<stop offset="0.576615" stop-color="#A685FA" stop-opacity="0"/>
</linearGradient>
<linearGradient id="paint2_linear_170_3161" x1="3.87765" y1="10.4839" x2="52.4905" y2="52" gradientUnits="userSpaceOnUse">
<stop stop-color="#A685FA"/>
<stop offset="0.323723" stop-color="#A685FA" stop-opacity="0"/>
</linearGradient>
<linearGradient id="paint3_linear_170_3161" x1="61.3615" y1="61.9355" x2="10.2647" y2="25.7419" gradientUnits="userSpaceOnUse">
<stop stop-color="#A685FA"/>
<stop offset="0.576615" stop-color="#A685FA" stop-opacity="0"/>
</linearGradient>
</defs>
</svg>
