<svg width="357" height="566" viewBox="0 0 357 566" fill="none" xmlns="http://www.w3.org/2000/svg">
<path d="M-661.516 601.531C-547.779 585.046 -430.843 587.072 -317.019 602.353C-272.232 608.357 -227.415 611.66 -182.526 604.702C-159.171 601.076 -136.388 594.984 -114.105 587.131C-83.8064 576.459 -55.8714 556.848 -25.8226 547.042C58.5108 519.518 138.543 589.744 218.517 602.294C255.215 608.049 288.699 596.115 324.854 591.99C365.12 587.395 401.789 595.263 439.457 609.487" stroke="url(#paint0_linear_172_7644)" stroke-miterlimit="10"/>
<path d="M-661.516 582.683C-550.172 563.174 -436.421 569.281 -325.474 589.025C-277.325 597.597 -229.103 603.249 -180.661 593.414C-119.154 580.922 -73.795 543.945 -17.4847 520.311C73.8361 481.984 146.558 574.962 231.743 589.098C265.373 594.676 293.103 580.437 325.295 574.228C366.617 566.257 402.318 577.986 439.442 595.909" stroke="url(#paint1_linear_172_7644)" stroke-miterlimit="10"/>
<path d="M-661.516 563.028C-550.084 540.157 -440.781 553.692 -330.993 578.455C-282.698 589.347 -234.271 595.307 -185.55 583.255C-160.257 577.002 -136.359 566.8 -113.283 554.822C-78.742 536.899 -48.1794 506.953 -13.5212 490.938C79.6345 447.884 146.103 556.451 228.968 574.477C266.68 582.683 291.767 564.657 326.543 555.805C367.88 545.295 403.918 562.25 439.442 582.316" stroke="url(#paint2_linear_172_7644)" stroke-miterlimit="10"/>
<path d="M-661.516 542.873C-552.286 516.935 -452.099 538.587 -346.26 567.402C-297.113 580.775 -247.996 588.863 -197.954 574.991C-171.472 567.652 -146.825 555.556 -123.162 541.772C-86.0817 520.179 -54.0953 485.756 -16.7655 466.174C81.2785 414.753 139.424 540.833 224.153 560.914C263.979 570.353 287.304 548.715 322.77 537.545C365.692 524.025 403.844 546.484 439.427 568.723" stroke="url(#paint3_linear_172_7644)" stroke-miterlimit="10"/>
<path d="M-661.516 522.498C-557.204 493.757 -468.613 522.146 -369.762 554.646C-320.733 570.764 -271.835 582.83 -220.736 569.619C-142.994 549.523 -92.3205 488.369 -26.9823 447.165C79.1207 380.272 126.403 529.236 218.972 548.202C259.047 556.422 281.712 530.866 317.133 518.52C361.993 502.887 403.404 531.042 439.442 555.101" stroke="url(#paint4_linear_172_7644)" stroke-miterlimit="10"/>
<path d="M-661.516 502.226C-560.301 469.536 -482.588 506.278 -389.638 542.697C-339.449 562.352 -288.687 578.294 -235.21 562.044C-155.926 537.956 -104.255 472.34 -38.7111 426.702C72.7205 349.122 109.302 514.895 205.012 534.389C245.747 542.682 270.893 514.322 305.771 500.48C355.035 480.927 400.263 514.205 439.442 541.552" stroke="url(#paint5_linear_172_7644)" stroke-miterlimit="10"/>
<path d="M-661.516 482.321C-616.171 465.044 -571.912 461.066 -525.012 475.011C-481.707 487.885 -444.524 513.882 -403.657 532.275C-355.391 554 -305.803 573.053 -252.987 555.747C-169.094 528.252 -118.597 453.594 -50.1317 404.067C60.7274 323.859 92.978 494.828 183.991 517.889C230.069 529.559 256.771 495.723 295.951 480.252C348.899 459.334 398.369 498.38 439.442 527.959" stroke="url(#paint6_linear_172_7644)" stroke-miterlimit="10"/>
<path d="M-661.516 463.106C-620.707 444.625 -580.045 438.871 -536.946 453.315C-494.493 467.54 -460.011 497.485 -420.905 518.212C-375.413 542.33 -328.601 566.536 -276.254 551.093C-188.485 525.229 -133.394 441.381 -65.281 387.127C50.8627 294.604 70.1368 480.663 165.289 502.08C214.113 513.074 244.514 473.837 286.438 458.541C342.837 437.976 396.93 482.909 439.427 514.351" stroke="url(#paint7_linear_172_7644)" stroke-miterlimit="10"/>
<path d="M-661.516 444.86C-567.2 394.217 -510.552 454.123 -433.735 502.535C-390.108 530.029 -343.133 561.839 -289.671 544.135C-203.092 515.467 -146.135 429.271 -80.5035 371.949C-38.1386 334.957 2.42063 326.37 38.7082 373.167C70.1809 413.74 90.3945 472.178 146.397 483.936C195.162 494.167 229.6 454.005 271.436 437.638C333.002 413.535 393.951 466.233 439.442 500.773" stroke="url(#paint8_linear_172_7644)" stroke-miterlimit="10"/>
<path d="M-661.516 427.891C-570.165 370.481 -513.239 430.093 -441.192 484.2C-402.761 513.06 -359.251 553.031 -307.33 539.482C-275.725 531.233 -247.702 507.79 -223.569 487.092C-177.182 447.326 -138.678 400.412 -94.6398 358.4C-52.4217 318.12 -10.8056 302.266 25.3939 355.405C52.3747 395.01 73.0727 456.192 127.313 464.839C178.882 473.059 216.623 428.816 261.85 413.52C327.086 391.443 392.85 450.776 439.442 487.151" stroke="url(#paint9_linear_172_7644)" stroke-miterlimit="10"/>
<path d="M-661.516 412.507C-625.903 386.892 -586.606 370.818 -543.214 386.422C-504.578 400.323 -474.544 432.618 -444.847 459.525C-411.378 489.852 -369.101 543.695 -317.723 533.111C-288.805 527.152 -263.365 505.015 -241.757 486.167C-194.064 444.552 -152.257 396.345 -109.378 349.974C-69.2444 306.553 -24.7657 275.315 12.6669 335.75C37.8715 376.426 57.4391 440.765 114.601 443.025C165.333 445.036 203.455 404.522 249.182 389.578C319.32 366.664 390.472 434.012 439.457 473.573" stroke="url(#paint10_linear_172_7644)" stroke-miterlimit="10"/>
<path d="M-661.516 398.386C-624.964 369.908 -584.243 351.001 -538.076 367.413C-499.117 381.255 -466.852 412.815 -438.051 441.19C-408.105 470.71 -367.912 528.693 -318.883 518.799C-291.447 513.265 -267.314 491.085 -247.086 473.088C-200.831 431.913 -159.523 384.969 -117.731 339.419C-79.4613 297.716 -34.5128 259.697 3.44821 319.852C28.2858 359.207 47.1488 422.019 103.239 422.797C153.531 423.487 195.47 386.98 242.429 374.473C315.518 354.994 386.948 418.848 439.442 459.642" stroke="url(#paint11_linear_172_7644)" stroke-miterlimit="10"/>
<path d="M-661.516 382.65C-621.191 350.928 -578.166 333.871 -528.872 355.89C-488.107 374.107 -452.407 408.573 -420.861 439.091C-392.559 466.483 -357.49 512.707 -312.864 498.307C-285.634 489.514 -261.956 466.028 -241.64 447.15C-200.919 409.322 -163.075 368.352 -124.659 328.219C-88.0487 289.951 -43.6288 252.724 -4.27319 306.083C23.7205 344.044 41.5413 404.757 97.4259 407.531C147.204 409.997 195.338 377.16 243.325 368.352C315.9 355.024 383.396 405.05 439.457 443.598" stroke="url(#paint12_linear_172_7644)" stroke-miterlimit="10"/>
<path d="M-661.516 365.167C-618.153 332.08 -573.967 317.533 -523.309 343.662C-484.496 363.67 -448.678 395.89 -416.751 425.293C-386.995 452.699 -350.458 499.922 -305.495 479.019C-282.023 468.112 -262.705 447.341 -244.267 429.77C-205.484 392.778 -168.8 353.556 -130.927 315.654C-91.748 276.446 -47.3573 246.045 -6.70998 298.171C21.269 334.062 41.4239 390.562 94.4754 392.911C143.284 395.083 191.771 371.699 239.405 363.919C312.935 351.912 378.214 389.402 439.457 425.528" stroke="url(#paint13_linear_172_7644)" stroke-miterlimit="10"/>
<path d="M-661.516 346.26C-611.503 310.179 -563.795 302.017 -510.538 335.588C-472.268 359.706 -436.891 392.382 -402.644 421.843C-374.048 446.445 -341.886 485.066 -301.869 462.695C-280.437 450.717 -262.602 429.359 -245.53 412.082C-209.183 375.281 -173.791 337.585 -136.388 301.841C-97.6345 264.805 -53.2732 238.074 -12.024 284.872C18.7735 319.808 40.1027 375.53 93.0221 380.58C139.659 385.028 190.479 366.796 236.352 359.691C309.661 348.344 374.163 374.253 439.427 405.887" stroke="url(#paint14_linear_172_7644)" stroke-miterlimit="10"/>
<path d="M-661.516 326.282C-607.334 289.833 -557.512 285.929 -503.213 324.065C-462.242 352.836 -425.426 389.197 -386.467 420.728C-359.677 442.394 -330.039 472.105 -296.555 447.209C-274.419 430.753 -256.348 405.96 -237.97 385.762C-206.893 351.633 -175.039 317.959 -140.851 286.927C-98.9556 248.893 -53.5227 230.926 -11.334 276.769C19.5515 310.325 43.2147 362.701 93.9615 368.382C141.993 373.754 193.929 361.145 241.505 354.612C311.467 345.012 373.737 360.646 439.442 384.969" stroke="url(#paint15_linear_172_7644)" stroke-miterlimit="10"/>
<path d="M-661.516 305.54C-599.745 266.919 -547.236 271.029 -490.53 316.3C-447.504 350.649 -410.835 390.621 -365.989 423.032C-335.221 445.256 -313.04 457.807 -284.959 426.834C-237.236 374.195 -198.585 314.201 -142.671 268.813C-101.627 235.506 -56.4733 223.087 -15.5764 261.855C18.979 294.604 42.2312 344.88 92.1119 356.682C138.161 367.56 195.954 356.829 242.253 350.517C310.586 341.196 372.254 346.671 439.457 363.229" stroke="url(#paint16_linear_172_7644)" stroke-miterlimit="10"/>
<path d="M-661.516 284.387C-592.346 244.034 -536.021 257.143 -477.7 308.799C-435.922 345.805 -401.176 388.654 -353.761 419.054C-318.956 441.381 -300.636 445.33 -276.826 409.777C-239.1 353.453 -201.124 295.881 -146.165 254.339C-101.73 220.738 -56.7081 213.193 -13.2863 251.932C22.8691 284.196 48.6021 336.102 99.7305 347.522C145.075 357.651 197.995 352.836 243.706 346.612C310.072 337.57 372.416 333.489 439.457 340.961" stroke="url(#paint17_linear_172_7644)" stroke-miterlimit="10"/>
<path d="M-661.516 263.161C-586.122 221.546 -527.14 242.052 -467.38 298.993C-425.089 339.287 -390.225 388.507 -338.157 417.072C-299.506 438.284 -285.942 427.26 -267.505 390.899C-238.175 333.078 -201.08 274.64 -146.752 236.973C-100.761 205.076 -54.242 204.092 -11.0404 240.746C26.6417 272.732 54.0922 323.287 104.575 337.467C212.85 367.882 330.682 322.421 439.457 318.648" stroke="url(#paint18_linear_172_7644)" stroke-miterlimit="10"/>
<path d="M-661.516 242.185C-624.01 222.206 -588.75 210.345 -546.781 224.892C-512.064 236.929 -483.63 262.192 -458.161 287.925C-416.149 330.406 -380.228 387.567 -324.256 412.815C-282.272 431.752 -272.334 406.239 -258.169 370.642C-235.078 312.571 -200.214 253.076 -145.739 219.079C-27.0116 144.964 15.8376 294.927 110.3 327.441C220.616 365.416 331.578 317.503 439.457 296.615" stroke="url(#paint19_linear_172_7644)" stroke-miterlimit="10"/>
<path d="M-661.516 221.795C-622.395 201.097 -586.342 189.56 -543.61 205.281C-507.763 218.463 -478.786 245.399 -452.818 272.688C-411.98 315.595 -369.747 389.872 -308.827 406.958C-266.184 418.922 -259.461 379.024 -248.656 346.906C-229.749 290.685 -197.161 228.694 -142.642 198.954C-29.4631 137.214 27.5371 276.035 112.986 315.272C225.093 366.752 333.647 313.966 439.442 275.242" stroke="url(#paint20_linear_172_7644)" stroke-miterlimit="10"/>
<path d="M-661.516 202.345C-622.013 180.855 -586.43 169.185 -542.95 184.407C-506.897 197.031 -477.435 225.201 -451.805 252.651C-410.218 297.202 -365.637 381.828 -300.974 394.452C-257.024 403.039 -250.858 359.134 -241.258 326.164C-224.773 269.605 -195.091 206.998 -138.12 180.693C-24.7804 128.362 36.3448 261.634 119.944 304.733C163.469 327.162 219.823 338.656 268.309 330.847C329.772 320.953 385.98 284.534 439.457 254.985" stroke="url(#paint21_linear_172_7644)" stroke-miterlimit="10"/>
<path d="M-661.516 184.143C-619.444 159.82 -578.782 145.801 -532.204 166.822C-497.253 182.602 -469.523 211.608 -444.465 239.762C-406.915 281.95 -359.589 370.833 -296.423 377.497C-248.877 382.518 -242.873 330.597 -232.685 295.543C-216.934 241.362 -188.574 183.277 -131.485 162.374C-18.9967 121.169 46.0478 244.724 127.21 293.004C168.225 317.401 221.834 334.106 269.806 328.131C334.073 320.116 389.693 273.613 439.427 236.107" stroke="url(#paint22_linear_172_7644)" stroke-miterlimit="10"/>
<path d="M-661.516 167.541C-621.793 142.234 -582.687 124.619 -535.757 143.57C-498.148 158.763 -468.202 191.013 -442.366 221.149C-405.433 264.233 -358.987 352.689 -293.37 354.245C-246.587 355.346 -237.926 302.677 -226.887 267.506C-209.815 213.164 -182.819 160.451 -122.942 145.082C-8.28067 115.635 55.384 228.606 137.427 282.802C177.59 309.342 231.156 331.228 280.082 324.168C344.07 314.92 395.477 261.737 439.442 219.079" stroke="url(#paint23_linear_172_7644)" stroke-miterlimit="10"/>
<path d="M-661.516 152.876C-625.052 126.439 -587.179 104.288 -540.807 119.819C-504.666 131.914 -476.202 161.537 -451.879 189.633C-412.039 235.638 -371.964 317.474 -303.381 322.7C-251.24 326.663 -237.691 275.991 -222.689 235.902C-202.225 181.207 -173.703 134.894 -111.037 126.424C0.0572279 111.408 64.0742 206.925 141.259 267.051C179.954 297.187 232.345 326.047 282.974 321.115C350.132 314.568 399.558 252.122 439.442 204.254" stroke="url(#paint24_linear_172_7644)" stroke-miterlimit="10"/>
<path d="M-661.516 141.309C-625.228 115.987 -587.81 95.143 -542.363 109.94C-506.971 121.463 -478.801 149.779 -454.77 177.024C-416.061 220.885 -375.09 305.085 -308.475 307.389C-256.965 309.166 -239.335 263.543 -220.868 223.439C-197.19 172.047 -165.145 125 -104.372 116.795C2.83165 102.321 69.7992 191.556 145.883 248.629C183.212 276.622 235.868 305.099 283.811 304.16C350.837 302.839 400.483 239.087 439.442 192.554" stroke="url(#paint25_linear_172_7644)" stroke-miterlimit="10"/>
<path d="M-661.516 133.397C-625.801 108.956 -588.926 88.6842 -544.374 102.16C-509.95 112.567 -482.192 139.078 -458.543 165.031C-420.45 206.852 -379.656 290.171 -315.198 290.567C-264.657 290.875 -243.137 250.654 -221.074 211.476C-194.122 163.621 -158.745 117.705 -100.13 109.661C3.19861 95.4953 72.9993 175.526 149.127 228.797C186.09 254.662 238.172 283.521 283.913 287.602C350.602 293.547 401.055 229.164 439.427 184.304" stroke="url(#paint26_linear_172_7644)" stroke-miterlimit="10"/>
<path d="M-661.516 128.494C-627.254 105.081 -590.629 84.8382 -547.838 95.7008C-511.36 104.949 -482.382 132.531 -457.545 159.232C-419.789 199.82 -381.931 275.213 -318.854 272.409C-271.131 270.295 -246.807 234.067 -221.881 198.411C-191.275 154.608 -154.326 113.536 -98.2803 105.58C3.49222 91.1209 74.7902 160.304 153.971 209.655C190.552 232.467 236.969 259.521 279.113 270.427C347.431 288.101 399.455 224.085 439.442 178.873" stroke="url(#paint27_linear_172_7644)" stroke-miterlimit="10"/>
<path d="M-661.516 125.969C-628.193 102.908 -592.346 82.2253 -550.26 90.7833C-515.22 97.9174 -486.742 122.461 -462.33 147.107C-424.046 185.743 -388.405 255.132 -327.294 252.416C-280.937 250.361 -253.06 219.857 -224.7 186.991C-190.717 147.621 -151.493 110.219 -97.6051 102.38C-0.133621 88.1998 74.5553 143.511 154.661 187.519C194.413 209.362 236.22 236.063 277.954 253.737C345.141 282.2 397.958 220.606 439.427 175.673" stroke="url(#paint28_linear_172_7644)" stroke-miterlimit="10"/>
<path d="M-661.516 125.191C-591.407 75.4876 -530.766 75.7371 -467.101 134.674C-428.01 170.858 -394.79 232.966 -335.823 230.852C-290.977 229.237 -259.798 204.518 -228.193 175.497C-190.952 141.309 -149.923 108.237 -98.1775 100.545C-5.30075 86.7318 73.3369 126.733 154.162 164.678C198.655 185.567 234.649 211.769 276.089 237.179C341.53 277.297 394.949 220.019 439.457 174.146" stroke="url(#paint29_linear_172_7644)" stroke-miterlimit="10"/>
<path d="M-661.516 125.529C-596.266 77.7335 -536.212 68.4562 -471.593 121.654C-431.474 154.682 -400.574 208.789 -343.999 207.674C-249.801 205.824 -191.788 113.565 -99.7189 99.6495C-11.5248 86.3208 71.3259 109.954 152.444 141.265C202.032 160.407 233.255 187.519 273.476 220.591C336.569 272.468 390.193 221.722 439.442 173.618" stroke="url(#paint30_linear_172_7644)" stroke-miterlimit="10"/>
<path d="M-661.516 126.351C-601.844 80.8748 -542.26 61.6157 -477.083 106.666C-436.788 134.513 -407.238 181.046 -355.17 182.837C-261.545 186.081 -191.876 112.743 -102.024 98.7247C-20.0389 85.9392 67.5826 93.0292 146.675 116.751C202.986 133.647 231.743 164.37 271.436 205.384C286.262 220.709 302.938 236.665 325.207 239.072C369.509 243.843 410.949 199.938 439.442 173.574" stroke="url(#paint31_linear_172_7644)" stroke-miterlimit="10"/>
<path d="M-661.516 127.026C-605.998 83.018 -546.693 55.0542 -480.063 91.8989C-438.843 114.696 -410.174 153.39 -361.013 156.253C-269.545 161.581 -192.493 112.567 -104.504 98.9009C-25.5731 86.6438 63.8686 76.4271 142.697 93.3375C203.338 106.343 230.612 142.616 267.37 188.972C281.447 206.734 297.389 227.168 320.656 232.746C365.604 243.52 409.951 199.233 439.427 173.412" stroke="url(#paint32_linear_172_7644)" stroke-miterlimit="10"/>
<path d="M-661.516 126.909C-607.334 82.284 -547.119 47.7439 -477.362 77.5133C-439.328 93.7485 -411.026 123.503 -368.705 127.643C-277.751 136.553 -195.047 112.376 -106.237 99.3413C-59.4385 92.4714 -13.3304 85.6602 33.0713 76.3096C69.1387 69.0434 104.193 65.2708 140.862 70.526C204.219 79.5977 230.979 124.868 263.832 174.19C276.985 193.934 292.795 218.448 316.693 226.302C362.493 241.362 408.175 198.499 439.442 172.473" stroke="url(#paint33_linear_172_7644)" stroke-miterlimit="10"/>
<path d="M-661.516 125.382C-609.33 81.0217 -549.086 39.9199 -477.758 58.9295C-439.944 69.0141 -409.426 92.4714 -370.129 97.433C-280.481 108.736 -197.425 111.305 -107.851 98.8275C-60.422 92.2219 -15.958 82.4896 29.284 66.8122C64.1183 54.7459 97.5433 44.8522 134.888 47.4944C201.386 52.1917 228.396 105.668 258.415 157.603C271.201 179.725 286.644 208.188 311.423 218.947C358.103 239.219 406.208 196.62 439.471 170.242" stroke="url(#paint34_linear_172_7644)" stroke-miterlimit="10"/>
<path d="M-661.516 121.815C-610.064 77.0436 -550.055 31.3179 -477.876 38.2465C-439.122 41.9603 -403.657 60.2799 -365.182 65.9461C-277.237 78.9078 -199.877 108.486 -109.539 97.4623C-61.7432 91.62 -18.7911 79.1427 24.2783 57.7992C56.7199 41.7254 87.6347 25.4609 124.803 24.9912C197.055 24.1104 224.344 87.2163 253.439 142.88C266.005 166.924 281.11 198.206 306.711 211.094C354.213 235.021 404.3 192.877 439.442 166.058" stroke="url(#paint35_linear_172_7644)" stroke-miterlimit="10"/>
<path d="M-661.516 115.576C-609.007 69.3517 -548.836 20.6462 -475.953 15.8314C-436.656 13.2332 -395.289 24.9178 -357.049 32.8446C-271.043 50.6651 -199.436 104.875 -108.101 95.0109C-61.1413 89.9466 -19.6719 74.6656 19.6984 48.8889C51.4647 28.0885 80.5739 5.79081 120.018 3.48618C193.84 -0.814822 220.88 72.4784 247.817 128.098C260.617 154.506 275.311 186.448 301.705 202.081C349.105 230.148 403.756 185.802 439.442 159.379" stroke="url(#paint36_linear_172_7644)" stroke-miterlimit="10"/>
<path d="M-661.516 106.006C-571.663 27.0904 -476.966 -33.7549 -354.642 -4.19099C-267.564 16.859 -200.493 98.7248 -106.016 91.0036C-58.1468 87.0842 -17.8223 67.8692 18.5973 37.4392C47.1195 13.6149 72.5295 -12.5141 111.445 -16.727C185.664 -24.7565 212.865 50.3128 238.304 105.859C252.191 136.171 267.223 174.088 297.36 192.143C345.949 221.252 402.376 176.525 439.427 149.574" stroke="url(#paint37_linear_172_7644)" stroke-miterlimit="10"/>
<path d="M-661.516 92.9998C-575.054 19.1342 -463.828 -62.5702 -342.869 -28.6906C-257.963 -4.91035 -193.814 85.6456 -100.497 80.8602C-53.831 78.4674 -14.1819 56.1111 18.7588 24.4334C44.8882 -0.682736 68.2431 -29.0136 106.674 -33.2705C177.869 -41.1826 206.846 32.9179 231.933 85.6015C246.951 117.118 262.687 155.695 293.572 175.086C343.028 206.132 400.145 163.739 439.427 136.377" stroke="url(#paint38_linear_172_7644)" stroke-miterlimit="10"/>
<path d="M-661.516 79.4069C-574.745 8.68258 -460.833 -69.4107 -341.783 -40.0817C-254.279 -18.5326 -184.962 71.3334 -90.2213 65.1828C-47.2839 62.3937 -11.3046 41.5346 18.8469 12.1175C42.9065 -11.3545 64.0008 -38.1 99.1287 -43.8396C169.194 -55.2893 203.808 20.6755 230.994 71.0545C246.613 99.9725 263.553 133.485 291.899 152.142C341.472 184.774 397.253 148.649 439.442 121.492" stroke="url(#paint39_linear_172_7644)" stroke-miterlimit="10"/>
<path d="M-661.516 65.814C-573.101 -2.41489 -453.64 -77.8659 -335.471 -47.803C-249.552 -25.9456 -176.008 56.0817 -83.2926 51.0467C-43.7609 48.9036 -9.14675 27.8389 18.4946 1.03472C40.6459 -20.4409 60.3604 -46.0268 92.1854 -52.7645C161.149 -67.3556 200.813 9.19635 230.847 56.9918C248.903 85.719 267.781 117.338 298.784 133.588C347.842 159.291 396.637 130.916 439.442 105.507" stroke="url(#paint40_linear_172_7644)" stroke-miterlimit="10"/>
<path d="M-661.516 52.2211C-570.268 -13.8793 -447.9 -83.2972 -329.848 -54.0562C-244.752 -32.9769 -168.081 42.9732 -76.7896 36.7345C-40.0176 34.2244 -8.58896 15.7433 17.6872 -8.96177C39.7798 -29.7328 59.6264 -55.0544 91.1872 -60.8821C156.76 -73.0071 199.477 -1.12308 231.478 43.4136C249.842 68.9701 269.307 95.0403 297.301 110.527C346.007 137.448 395.096 112.802 439.442 88.6108" stroke="url(#paint41_linear_172_7644)" stroke-miterlimit="10"/>
<path d="M-661.516 38.6282C-569.637 -23.2446 -451.086 -82.9742 -335.882 -61.2637C-246.719 -44.456 -166.143 30.0555 -72.5032 23.4939C-36.9937 20.9985 -6.75403 2.88435 19.1111 -20.3968C40.2642 -39.4504 59.4796 -61.4105 88.7944 -66.9446C149.479 -78.409 194.662 -16.4922 228.014 23.9637C249.842 50.4596 273.697 79.5391 306.358 93.088C352.54 112.244 398.002 91.7815 439.457 71.0252" stroke="url(#paint42_linear_172_7644)" stroke-miterlimit="10"/>
<path d="M-661.516 25.0353C-567.347 -33.1824 -446.344 -86.6 -332.212 -64.772C-245.207 -48.1258 -160.668 17.9893 -69.6701 11.2809C-3.58329 6.40737 25.2618 -58.3719 84.8309 -71.4951C144.723 -84.677 193.488 -26.3419 230.304 11.413C252.441 34.1217 275.546 57.9754 305.433 70.3059C351.703 89.3888 396.607 72.4637 439.427 52.9404" stroke="url(#paint43_linear_172_7644)" stroke-miterlimit="10"/>
<path d="M-661.516 11.4423C-564.866 -42.5918 -446.154 -86.4532 -333.093 -68.2657C-245.383 -54.159 -159.288 5.77616 -68.4664 -1.0203C-6.07878 -5.68829 27.2729 -63.8913 84.8604 -75.1796C141.009 -86.1743 189.319 -39.8614 227.882 -6.02591C251.692 14.8773 276.192 36.808 306.182 48.4192C352.114 66.2104 396.05 52.5587 439.457 34.6061" stroke="url(#paint44_linear_172_7644)" stroke-miterlimit="10"/>
<path d="M-661.516 -2.15064C-563.413 -50.7681 -446.022 -86.6734 -335.001 -70.8493C-247.233 -58.3426 -159.097 -6.49568 -69.0242 -13.0279C-9.16142 -17.373 29.5629 -67.8694 86.0934 -78.1448C141.861 -88.2881 192.651 -46.4378 234.356 -15.861C257.006 0.74116 280.611 17.5342 307.327 26.9876C353.377 43.2815 395.404 32.5363 439.442 16.213" stroke="url(#paint45_linear_172_7644)" stroke-miterlimit="10"/>
<path d="M-661.516 -15.7435C-562.371 -58.1371 -446.623 -86.5266 -337.79 -73.0805C-249.875 -62.2179 -160.917 -18.8702 -71.3288 -24.8006C-12.5377 -28.6906 32.4107 -70.9226 89.1321 -80.1265C141.479 -88.6111 190.831 -57.0214 233.666 -31.3035C303.29 10.5028 360.746 23.6994 439.442 -2.06254" stroke="url(#paint46_linear_172_7644)" stroke-miterlimit="10"/>
<path d="M-661.516 -29.3365C-561.784 -64.7574 -451.996 -84.266 -345.79 -75.297C-256.04 -67.7079 -166.789 -32.2723 -76.1144 -36.8229C-15.2975 -39.8762 36.8145 -75.8989 96.6773 -82.0054C146.132 -87.0551 192.813 -64.5812 236.323 -44.0304C306.109 -11.0462 363.638 1.40174 439.442 -19.9565" stroke="url(#paint47_linear_172_7644)" stroke-miterlimit="10"/>
<defs>
<linearGradient id="paint0_linear_172_7644" x1="-111.029" y1="540.701" x2="-111.029" y2="609.487" gradientUnits="userSpaceOnUse">
<stop stop-color="#333333"/>
<stop offset="1" stop-color="#333333" stop-opacity="0"/>
</linearGradient>
<linearGradient id="paint1_linear_172_7644" x1="-111.037" y1="511.115" x2="-111.037" y2="598.607" gradientUnits="userSpaceOnUse">
<stop stop-color="#333333"/>
<stop offset="1" stop-color="#333333" stop-opacity="0"/>
</linearGradient>
<linearGradient id="paint2_linear_172_7644" x1="-111.037" y1="480.921" x2="-111.037" y2="589.913" gradientUnits="userSpaceOnUse">
<stop stop-color="#333333"/>
<stop offset="1" stop-color="#333333" stop-opacity="0"/>
</linearGradient>
<linearGradient id="paint3_linear_172_7644" x1="-111.044" y1="453.943" x2="-111.044" y2="582.215" gradientUnits="userSpaceOnUse">
<stop stop-color="#333333"/>
<stop offset="1" stop-color="#333333" stop-opacity="0"/>
</linearGradient>
<linearGradient id="paint4_linear_172_7644" x1="-111.037" y1="430.006" x2="-111.037" y2="575.257" gradientUnits="userSpaceOnUse">
<stop stop-color="#333333"/>
<stop offset="1" stop-color="#333333" stop-opacity="0"/>
</linearGradient>
<linearGradient id="paint5_linear_172_7644" x1="-111.037" y1="406.161" x2="-111.037" y2="568.754" gradientUnits="userSpaceOnUse">
<stop stop-color="#333333"/>
<stop offset="1" stop-color="#333333" stop-opacity="0"/>
</linearGradient>
<linearGradient id="paint6_linear_172_7644" x1="-111.037" y1="382.811" x2="-111.037" y2="562.477" gradientUnits="userSpaceOnUse">
<stop stop-color="#333333"/>
<stop offset="1" stop-color="#333333" stop-opacity="0"/>
</linearGradient>
<linearGradient id="paint7_linear_172_7644" x1="-111.044" y1="361.492" x2="-111.044" y2="555.952" gradientUnits="userSpaceOnUse">
<stop stop-color="#333333"/>
<stop offset="1" stop-color="#333333" stop-opacity="0"/>
</linearGradient>
<linearGradient id="paint8_linear_172_7644" x1="-111.037" y1="341.076" x2="-111.037" y2="549.246" gradientUnits="userSpaceOnUse">
<stop stop-color="#333333"/>
<stop offset="1" stop-color="#333333" stop-opacity="0"/>
</linearGradient>
<linearGradient id="paint9_linear_172_7644" x1="-111.037" y1="321.52" x2="-111.037" y2="542.204" gradientUnits="userSpaceOnUse">
<stop stop-color="#333333"/>
<stop offset="1" stop-color="#333333" stop-opacity="0"/>
</linearGradient>
<linearGradient id="paint10_linear_172_7644" x1="-111.029" y1="302.143" x2="-111.029" y2="534.469" gradientUnits="userSpaceOnUse">
<stop stop-color="#333333"/>
<stop offset="1" stop-color="#333333" stop-opacity="0"/>
</linearGradient>
<linearGradient id="paint11_linear_172_7644" x1="-111.037" y1="288.611" x2="-111.037" y2="519.921" gradientUnits="userSpaceOnUse">
<stop stop-color="#333333"/>
<stop offset="1" stop-color="#333333" stop-opacity="0"/>
</linearGradient>
<linearGradient id="paint12_linear_172_7644" x1="-111.029" y1="279.497" x2="-111.029" y2="501.024" gradientUnits="userSpaceOnUse">
<stop stop-color="#333333"/>
<stop offset="1" stop-color="#333333" stop-opacity="0"/>
</linearGradient>
<linearGradient id="paint13_linear_172_7644" x1="-111.029" y1="270.453" x2="-111.029" y2="484.206" gradientUnits="userSpaceOnUse">
<stop stop-color="#333333"/>
<stop offset="1" stop-color="#333333" stop-opacity="0"/>
</linearGradient>
<linearGradient id="paint14_linear_172_7644" x1="-111.044" y1="259.906" x2="-111.044" y2="469.415" gradientUnits="userSpaceOnUse">
<stop stop-color="#333333"/>
<stop offset="1" stop-color="#333333" stop-opacity="0"/>
</linearGradient>
<linearGradient id="paint15_linear_172_7644" x1="-111.037" y1="249.534" x2="-111.037" y2="456.665" gradientUnits="userSpaceOnUse">
<stop stop-color="#333333"/>
<stop offset="1" stop-color="#333333" stop-opacity="0"/>
</linearGradient>
<linearGradient id="paint16_linear_172_7644" x1="-111.029" y1="237.826" x2="-111.029" y2="445.339" gradientUnits="userSpaceOnUse">
<stop stop-color="#333333"/>
<stop offset="1" stop-color="#333333" stop-opacity="0"/>
</linearGradient>
<linearGradient id="paint17_linear_172_7644" x1="-111.029" y1="225.88" x2="-111.029" y2="436.167" gradientUnits="userSpaceOnUse">
<stop stop-color="#333333"/>
<stop offset="1" stop-color="#333333" stop-opacity="0"/>
</linearGradient>
<linearGradient id="paint18_linear_172_7644" x1="-111.029" y1="213.142" x2="-111.029" y2="427.8" gradientUnits="userSpaceOnUse">
<stop stop-color="#333333"/>
<stop offset="1" stop-color="#333333" stop-opacity="0"/>
</linearGradient>
<linearGradient id="paint19_linear_172_7644" x1="-111.029" y1="198.751" x2="-111.029" y2="419.247" gradientUnits="userSpaceOnUse">
<stop stop-color="#333333"/>
<stop offset="1" stop-color="#333333" stop-opacity="0"/>
</linearGradient>
<linearGradient id="paint20_linear_172_7644" x1="-111.037" y1="183.356" x2="-111.037" y2="409.13" gradientUnits="userSpaceOnUse">
<stop stop-color="#333333"/>
<stop offset="1" stop-color="#333333" stop-opacity="0"/>
</linearGradient>
<linearGradient id="paint21_linear_172_7644" x1="-111.029" y1="168.699" x2="-111.029" y2="395.543" gradientUnits="userSpaceOnUse">
<stop stop-color="#333333"/>
<stop offset="1" stop-color="#333333" stop-opacity="0"/>
</linearGradient>
<linearGradient id="paint22_linear_172_7644" x1="-111.044" y1="154.097" x2="-111.044" y2="377.836" gradientUnits="userSpaceOnUse">
<stop stop-color="#333333"/>
<stop offset="1" stop-color="#333333" stop-opacity="0"/>
</linearGradient>
<linearGradient id="paint23_linear_172_7644" x1="-111.037" y1="135.603" x2="-111.037" y2="354.262" gradientUnits="userSpaceOnUse">
<stop stop-color="#333333"/>
<stop offset="1" stop-color="#333333" stop-opacity="0"/>
</linearGradient>
<linearGradient id="paint24_linear_172_7644" x1="-111.037" y1="114.676" x2="-111.037" y2="322.919" gradientUnits="userSpaceOnUse">
<stop stop-color="#333333"/>
<stop offset="1" stop-color="#333333" stop-opacity="0"/>
</linearGradient>
<linearGradient id="paint25_linear_172_7644" x1="-111.037" y1="105.007" x2="-111.037" y2="307.44" gradientUnits="userSpaceOnUse">
<stop stop-color="#333333"/>
<stop offset="1" stop-color="#333333" stop-opacity="0"/>
</linearGradient>
<linearGradient id="paint26_linear_172_7644" x1="-111.044" y1="97.851" x2="-111.044" y2="290.569" gradientUnits="userSpaceOnUse">
<stop stop-color="#333333"/>
<stop offset="1" stop-color="#333333" stop-opacity="0"/>
</linearGradient>
<linearGradient id="paint27_linear_172_7644" x1="-111.037" y1="92.6862" x2="-111.037" y2="273.437" gradientUnits="userSpaceOnUse">
<stop stop-color="#333333"/>
<stop offset="1" stop-color="#333333" stop-opacity="0"/>
</linearGradient>
<linearGradient id="paint28_linear_172_7644" x1="-111.044" y1="88.8108" x2="-111.044" y2="260.979" gradientUnits="userSpaceOnUse">
<stop stop-color="#333333"/>
<stop offset="1" stop-color="#333333" stop-opacity="0"/>
</linearGradient>
<linearGradient id="paint29_linear_172_7644" x1="-111.029" y1="89.1106" x2="-111.029" y2="250.739" gradientUnits="userSpaceOnUse">
<stop stop-color="#333333"/>
<stop offset="1" stop-color="#333333" stop-opacity="0"/>
</linearGradient>
<linearGradient id="paint30_linear_172_7644" x1="-111.037" y1="85.5592" x2="-111.037" y2="242.415" gradientUnits="userSpaceOnUse">
<stop stop-color="#333333"/>
<stop offset="1" stop-color="#333333" stop-opacity="0"/>
</linearGradient>
<linearGradient id="paint31_linear_172_7644" x1="-111.037" y1="81.0349" x2="-111.037" y2="239.431" gradientUnits="userSpaceOnUse">
<stop stop-color="#333333"/>
<stop offset="1" stop-color="#333333" stop-opacity="0"/>
</linearGradient>
<linearGradient id="paint32_linear_172_7644" x1="-111.044" y1="74.8373" x2="-111.044" y2="234.404" gradientUnits="userSpaceOnUse">
<stop stop-color="#333333"/>
<stop offset="1" stop-color="#333333" stop-opacity="0"/>
</linearGradient>
<linearGradient id="paint33_linear_172_7644" x1="-111.037" y1="66.3821" x2="-111.037" y2="229.428" gradientUnits="userSpaceOnUse">
<stop stop-color="#333333"/>
<stop offset="1" stop-color="#333333" stop-opacity="0"/>
</linearGradient>
<linearGradient id="paint34_linear_172_7644" x1="-111.022" y1="47.0637" x2="-111.022" y2="224.245" gradientUnits="userSpaceOnUse">
<stop stop-color="#333333"/>
<stop offset="1" stop-color="#333333" stop-opacity="0"/>
</linearGradient>
<linearGradient id="paint35_linear_172_7644" x1="-111.037" y1="24.9821" x2="-111.037" y2="218.181" gradientUnits="userSpaceOnUse">
<stop stop-color="#333333"/>
<stop offset="1" stop-color="#333333" stop-opacity="0"/>
</linearGradient>
<linearGradient id="paint36_linear_172_7644" x1="-111.037" y1="3.3053" x2="-111.037" y2="211.057" gradientUnits="userSpaceOnUse">
<stop stop-color="#333333"/>
<stop offset="1" stop-color="#333333" stop-opacity="0"/>
</linearGradient>
<linearGradient id="paint37_linear_172_7644" x1="-111.044" y1="-17.321" x2="-111.044" y2="201.625" gradientUnits="userSpaceOnUse">
<stop stop-color="#333333"/>
<stop offset="1" stop-color="#333333" stop-opacity="0"/>
</linearGradient>
<linearGradient id="paint38_linear_172_7644" x1="-111.044" y1="-36.5815" x2="-111.044" y2="185.983" gradientUnits="userSpaceOnUse">
<stop stop-color="#333333"/>
<stop offset="1" stop-color="#333333" stop-opacity="0"/>
</linearGradient>
<linearGradient id="paint39_linear_172_7644" x1="-111.037" y1="-46.417" x2="-111.037" y2="165.088" gradientUnits="userSpaceOnUse">
<stop stop-color="#333333"/>
<stop offset="1" stop-color="#333333" stop-opacity="0"/>
</linearGradient>
<linearGradient id="paint40_linear_172_7644" x1="-111.037" y1="-54.5972" x2="-111.037" y2="143.712" gradientUnits="userSpaceOnUse">
<stop stop-color="#333333"/>
<stop offset="1" stop-color="#333333" stop-opacity="0"/>
</linearGradient>
<linearGradient id="paint41_linear_172_7644" x1="-111.037" y1="-62.2397" x2="-111.037" y2="122.247" gradientUnits="userSpaceOnUse">
<stop stop-color="#333333"/>
<stop offset="1" stop-color="#333333" stop-opacity="0"/>
</linearGradient>
<linearGradient id="paint42_linear_172_7644" x1="-111.029" y1="-68.3369" x2="-111.029" y2="100.724" gradientUnits="userSpaceOnUse">
<stop stop-color="#333333"/>
<stop offset="1" stop-color="#333333" stop-opacity="0"/>
</linearGradient>
<linearGradient id="paint43_linear_172_7644" x1="-111.044" y1="-73.3967" x2="-111.044" y2="78.6673" gradientUnits="userSpaceOnUse">
<stop stop-color="#333333"/>
<stop offset="1" stop-color="#333333" stop-opacity="0"/>
</linearGradient>
<linearGradient id="paint44_linear_172_7644" x1="-111.029" y1="-76.8293" x2="-111.029" y2="56.7355" gradientUnits="userSpaceOnUse">
<stop stop-color="#333333"/>
<stop offset="1" stop-color="#333333" stop-opacity="0"/>
</linearGradient>
<linearGradient id="paint45_linear_172_7644" x1="-111.037" y1="-79.6936" x2="-111.037" y2="35.0794" gradientUnits="userSpaceOnUse">
<stop stop-color="#333333"/>
<stop offset="1" stop-color="#333333" stop-opacity="0"/>
</linearGradient>
<linearGradient id="paint46_linear_172_7644" x1="-111.037" y1="-81.5339" x2="-111.037" y2="11.1152" gradientUnits="userSpaceOnUse">
<stop stop-color="#333333"/>
<stop offset="1" stop-color="#333333" stop-opacity="0"/>
</linearGradient>
<linearGradient id="paint47_linear_172_7644" x1="-111.037" y1="-82.7249" x2="-111.037" y2="-9.37328" gradientUnits="userSpaceOnUse">
<stop stop-color="#333333"/>
<stop offset="1" stop-color="#333333" stop-opacity="0"/>
</linearGradient>
</defs>
</svg>
