<svg width="83" height="82" viewBox="0 0 83 82" fill="none" xmlns="http://www.w3.org/2000/svg">
<rect x="1" y="0.5" width="81" height="81" rx="40.5" stroke="url(#paint0_linear_104_12846)"/>
<rect x="1" y="0.5" width="81" height="81" rx="40.5" stroke="url(#paint1_linear_104_12846)"/>
<rect x="11" y="10.5" width="61" height="61" rx="30.5" stroke="url(#paint2_linear_104_12846)"/>
<rect x="11" y="10.5" width="61" height="61" rx="30.5" stroke="url(#paint3_linear_104_12846)"/>
<path fill-rule="evenodd" clip-rule="evenodd" d="M26.625 30.375C26.625 28.0278 28.5278 26.125 30.875 26.125H32.8181C34.037 26.125 35.0995 26.9545 35.3951 28.137L36.9616 34.4032C37.2208 35.44 36.8334 36.5312 35.9784 37.1724L34.1458 38.5469C33.9555 38.6896 33.9141 38.8986 33.9676 39.0446C35.5762 43.4359 39.0641 46.9238 43.4554 48.5324C43.6014 48.5859 43.8104 48.5445 43.9531 48.3542L45.3276 46.5216C45.9688 45.6666 47.06 45.2792 48.0968 45.5384L54.363 47.1049C55.5455 47.4005 56.375 48.463 56.375 49.6819V51.625C56.375 53.9722 54.4722 55.875 52.125 55.875H48.9375C36.6146 55.875 26.625 45.8854 26.625 33.5625V30.375Z" fill="#A685FA"/>
<defs>
<linearGradient id="paint0_linear_104_12846" x1="7.25" y1="86.5" x2="86.25" y2="-5.5" gradientUnits="userSpaceOnUse">
<stop stop-color="#A685FA"/>
<stop offset="0.323723" stop-color="#A685FA" stop-opacity="0"/>
</linearGradient>
<linearGradient id="paint1_linear_104_12846" x1="82.25" y1="-10.5" x2="7.25" y2="82" gradientUnits="userSpaceOnUse">
<stop stop-color="#A685FA"/>
<stop offset="0.576615" stop-color="#A685FA" stop-opacity="0"/>
</linearGradient>
<linearGradient id="paint2_linear_104_12846" x1="3.75" y1="13.5" x2="72.25" y2="72" gradientUnits="userSpaceOnUse">
<stop stop-color="#A685FA"/>
<stop offset="0.323723" stop-color="#A685FA" stop-opacity="0"/>
</linearGradient>
<linearGradient id="paint3_linear_104_12846" x1="84.75" y1="86" x2="12.75" y2="35" gradientUnits="userSpaceOnUse">
<stop stop-color="#A685FA"/>
<stop offset="0.576615" stop-color="#A685FA" stop-opacity="0"/>
</linearGradient>
</defs>
</svg>
