<svg width="60" height="60" viewBox="0 0 60 60" fill="none" xmlns="http://www.w3.org/2000/svg">
<rect x="0.5" y="0.5" width="59" height="59" rx="29.5" stroke="url(#paint0_linear_172_3503)"/>
<rect x="0.5" y="0.5" width="59" height="59" rx="29.5" stroke="url(#paint1_linear_172_3503)"/>
<rect x="8.5" y="8.5" width="43" height="43" rx="21.5" stroke="url(#paint2_linear_172_3503)"/>
<rect x="8.5" y="8.5" width="43" height="43" rx="21.5" stroke="url(#paint3_linear_172_3503)"/>
<path fill-rule="evenodd" clip-rule="evenodd" d="M30.9633 20.2858C30.8416 20.1225 30.6586 20.0158 30.4565 19.9901C30.2545 19.9645 30.0506 20.0221 29.8919 20.1498C28.0218 21.6546 26.7174 23.8378 26.3532 26.3264C25.6966 25.8504 25.12 25.2705 24.6476 24.6108C24.5176 24.4293 24.3136 24.3152 24.0909 24.2993C23.8683 24.2835 23.6502 24.3677 23.4959 24.529C21.9505 26.1444 21 28.3368 21 30.7497C21 35.7202 25.0294 39.7497 30 39.7497C34.9706 39.7497 39 35.7202 39 30.7497C39 27.0888 36.8143 23.94 33.6798 22.5341C32.5706 21.9926 31.6547 21.2128 30.9633 20.2858ZM33.75 32.25C33.75 34.3211 32.0711 36 30 36C27.9289 36 26.25 34.3211 26.25 32.25C26.25 31.8407 26.3156 31.4467 26.4368 31.0779C27.0653 31.5425 27.7877 31.8874 28.5703 32.0787C28.7862 30.6779 29.4866 29.437 30.4949 28.5324C32.3321 28.7746 33.75 30.3467 33.75 32.25Z" fill="#A685FA"/>
<defs>
<linearGradient id="paint0_linear_172_3503" x1="4.93903" y1="63.2927" x2="62.7439" y2="-4.02439" gradientUnits="userSpaceOnUse">
<stop stop-color="#A685FA"/>
<stop offset="0.323723" stop-color="#A685FA" stop-opacity="0"/>
</linearGradient>
<linearGradient id="paint1_linear_172_3503" x1="59.8171" y1="-7.68292" x2="4.93902" y2="60" gradientUnits="userSpaceOnUse">
<stop stop-color="#A685FA"/>
<stop offset="0.576615" stop-color="#A685FA" stop-opacity="0"/>
</linearGradient>
<linearGradient id="paint2_linear_172_3503" x1="3.20968" y1="10.4839" x2="51.8226" y2="52" gradientUnits="userSpaceOnUse">
<stop stop-color="#A685FA"/>
<stop offset="0.323723" stop-color="#A685FA" stop-opacity="0"/>
</linearGradient>
<linearGradient id="paint3_linear_172_3503" x1="60.6935" y1="61.9355" x2="9.59677" y2="25.7419" gradientUnits="userSpaceOnUse">
<stop stop-color="#A685FA"/>
<stop offset="0.576615" stop-color="#A685FA" stop-opacity="0"/>
</linearGradient>
</defs>
</svg>
