<svg width="117" height="117" viewBox="0 0 117 117" fill="none" xmlns="http://www.w3.org/2000/svg">
<rect x="0.531818" y="0.531818" width="115.936" height="115.936" rx="57.9682" fill="#141414"/>
<rect x="0.531818" y="0.531818" width="115.936" height="115.936" rx="57.9682" stroke="#262626" stroke-width="1.06364"/>
<rect x="32.441" y="32.4409" width="52.1182" height="52.1182" rx="26.0591" fill="#1A1A1A" stroke="#262626" stroke-width="1.06364"/>
<path d="M52.1514 64.8489L65.756 51.2442M65.756 51.2442L55.5525 51.2442M65.756 51.2442V61.4477" stroke="white" stroke-width="1.36047" stroke-linecap="round" stroke-linejoin="round"/>
<path d="M68.7425 94.3777L58.8059 95.7701L60.1983 105.707L70.1348 104.314L68.7425 94.3777Z" fill="white"/>
<path d="M55.9587 96.7153L54.9043 103.659L52.6079 103.311C52.1284 103.238 51.6925 103.079 51.3002 102.833C50.9073 102.591 50.5766 102.285 50.3078 101.916C50.0386 101.55 49.8466 101.144 49.7318 100.697C49.6132 100.253 49.5903 99.7909 49.6631 99.3114C49.7359 98.8319 49.8951 98.396 50.1407 98.0037C50.3825 97.6142 50.6865 97.2831 51.0526 97.0106C51.4183 96.7414 51.8249 96.5477 52.2724 96.4296C52.7195 96.3148 53.1827 96.2938 53.6622 96.3666L55.9587 96.7153ZM54.7704 97.5903L53.5056 97.3983C53.1683 97.347 52.8446 97.3622 52.5345 97.4436C52.2212 97.5246 51.935 97.6605 51.676 97.8512C51.4137 98.0414 51.1974 98.2741 51.027 98.5493C50.8567 98.8245 50.7459 99.1308 50.6947 99.468C50.6435 99.8053 50.6584 100.131 50.7394 100.444C50.8203 100.757 50.9578 101.044 51.1518 101.303C51.3426 101.562 51.5755 101.777 51.8507 101.947C52.1226 102.117 52.4272 102.228 52.7645 102.279L54.0293 102.471L54.7704 97.5903Z" fill="white"/>
<path d="M44.7476 99.3956L43.7644 99.046L45.4449 94.319L46.4282 94.6686L44.7476 99.3956ZM44.0028 99.9028C44.1541 99.9566 44.2628 100.05 44.3289 100.184C44.395 100.317 44.4017 100.458 44.3491 100.606C44.2975 100.751 44.204 100.855 44.0684 100.916C43.9317 100.981 43.7893 100.988 43.6412 100.935C43.4962 100.883 43.3913 100.789 43.3263 100.653C43.2602 100.519 43.2529 100.38 43.3044 100.235C43.3571 100.087 43.4512 99.9818 43.5868 99.92C43.7192 99.857 43.8579 99.8513 44.0028 99.9028Z" fill="white"/>
<path d="M40.7049 92.0667C40.9291 92.2074 41.13 92.3772 41.3074 92.5762C41.4848 92.7752 41.6206 92.9878 41.7148 93.214C41.8044 93.4415 41.8401 93.6701 41.822 93.9L40.8596 93.8116C40.8645 93.7115 40.8406 93.5977 40.788 93.4703C40.7325 93.3412 40.6536 93.2166 40.5514 93.0964C40.4475 92.9792 40.3251 92.8823 40.184 92.8057C40.0458 92.7308 39.9076 92.6805 39.7692 92.6549C39.6264 92.6307 39.4944 92.639 39.3733 92.6798C39.2522 92.7206 39.1606 92.7984 39.0984 92.913C39.0282 93.0424 39.018 93.1662 39.0679 93.2847C39.1133 93.4044 39.1903 93.5185 39.2989 93.6269C39.4075 93.7353 39.5169 93.8422 39.6271 93.9477C39.8801 94.1687 40.0969 94.4004 40.2773 94.6429C40.4532 94.8868 40.5639 95.1352 40.6093 95.3881C40.6531 95.644 40.6048 95.9013 40.4644 96.16C40.3113 96.4422 40.1025 96.6447 39.8379 96.7675C39.5718 96.8933 39.285 96.945 38.9775 96.9228C38.667 96.8989 38.3706 96.8104 38.0884 96.6573C37.7356 96.4659 37.453 96.2154 37.2403 95.906C37.0277 95.5966 36.9145 95.2688 36.9006 94.9226L37.8627 94.8852C37.8589 94.9974 37.882 95.1126 37.9319 95.231C37.9818 95.3494 38.0515 95.4595 38.1409 95.5613C38.2286 95.666 38.3312 95.754 38.4485 95.8253C38.5953 95.9125 38.7445 95.9706 38.8961 95.9997C39.0433 96.03 39.1782 96.0233 39.3009 95.9795C39.4236 95.9358 39.5208 95.8477 39.5926 95.7154C39.6628 95.5861 39.6699 95.4644 39.6138 95.3503C39.5562 95.2391 39.4686 95.1269 39.3512 95.0137C39.2309 94.8989 39.1099 94.7781 38.9885 94.6513C38.7715 94.4271 38.5811 94.1925 38.4172 93.9475C38.2517 93.7055 38.1454 93.4595 38.0984 93.2095C38.0515 92.9595 38.0987 92.7112 38.2401 92.4645C38.3901 92.1881 38.6055 91.9911 38.8863 91.8733C39.1641 91.7539 39.4649 91.7116 39.7885 91.7464C40.1121 91.7812 40.4175 91.8879 40.7049 92.0667Z" fill="white"/>
<path d="M32.5854 88.2703L32.1933 87.2835C32.5715 87.1851 32.9564 87.1752 33.3482 87.2537C33.7375 87.3301 34.0888 87.499 34.4021 87.7603C34.7566 88.0559 35.0042 88.417 35.1449 88.8436C35.283 89.268 35.312 89.7059 35.2317 90.1572C35.1468 90.609 34.949 91.021 34.6384 91.3935C34.4027 91.676 34.1331 91.8975 33.8294 92.058C33.5236 92.221 33.2062 92.3222 32.8773 92.3614C32.5437 92.4011 32.2161 92.3762 31.8946 92.2865C31.573 92.1969 31.28 92.0418 31.0154 91.8212C30.702 91.5598 30.4729 91.2445 30.3278 90.8754C30.1802 90.504 30.1219 90.1222 30.1529 89.73L31.1941 89.9385C31.1948 90.1569 31.2393 90.3595 31.3274 90.5462C31.4134 90.7355 31.5322 90.8934 31.6837 91.0198C31.8944 91.1954 32.1339 91.2972 32.4024 91.3252C32.6662 91.3535 32.9263 91.3157 33.1829 91.2118C33.4347 91.1082 33.6528 90.946 33.837 90.7251C34.0191 90.5068 34.1382 90.2621 34.1944 89.9911C34.2485 89.7226 34.2379 89.4612 34.1626 89.2068C34.0848 88.9502 33.9418 88.7352 33.7338 88.5617C33.5745 88.4289 33.393 88.3385 33.1892 88.2904C32.9854 88.2424 32.7841 88.2357 32.5854 88.2703Z" fill="white"/>
<path d="M28.8326 82.0076C29.1143 82.3732 29.2774 82.7795 29.322 83.2264C29.3646 83.6707 29.2976 84.1044 29.1212 84.5275C28.94 84.95 28.6573 85.3092 28.2732 85.6052C27.9818 85.8297 27.6704 85.9873 27.3391 86.0779C27.0051 86.1705 26.6734 86.2002 26.3438 86.1671C26.0096 86.1333 25.6953 86.0377 25.4009 85.8803C25.1065 85.7229 24.8542 85.5077 24.6439 85.2348C24.3622 84.8692 24.2001 84.4643 24.1575 84.0199C24.1129 83.573 24.1812 83.1383 24.3624 82.7158C24.5415 82.2907 24.8245 81.9291 25.2113 81.6311C25.5001 81.4086 25.8101 81.2521 26.1414 81.1615C26.4727 81.0709 26.8055 81.0425 27.1397 81.0763C27.4693 81.1094 27.7813 81.2047 28.0756 81.3621C28.368 81.5169 28.6203 81.732 28.8326 82.0076ZM28.006 82.6445C27.8366 82.4246 27.6262 82.2721 27.3749 82.187C27.1236 82.102 26.8638 82.0826 26.5955 82.1289C26.3225 82.1746 26.0733 82.2842 25.8481 82.4577C25.6177 82.6353 25.4465 82.8516 25.3348 83.1066C25.221 83.3589 25.1745 83.6164 25.1953 83.879C25.2134 84.1437 25.3052 84.3834 25.4705 84.598C25.6379 84.8152 25.8483 84.9677 26.1016 85.0554C26.3529 85.1404 26.6151 85.1601 26.8881 85.1144C27.1591 85.0661 27.4085 84.9541 27.6363 84.7786C27.8721 84.5969 28.0446 84.3796 28.1537 84.1266C28.2628 83.8737 28.3069 83.6159 28.2861 83.3533C28.2606 83.09 28.1672 82.8538 28.006 82.6445Z" fill="white"/>
<path d="M23.96 74.1632L24.5272 75.3766L20.7488 79.1643L20.2772 78.1553L23.1539 75.2821L19.1023 75.6421L18.6328 74.6377L23.96 74.1632Z" fill="white"/>
<path d="M21.7572 67.1346C21.8571 67.5852 21.8323 68.0223 21.683 68.4459C21.5329 68.8663 21.2882 69.2305 20.9488 69.5387C20.6055 69.8443 20.1971 70.0496 19.7236 70.1545C19.3644 70.2341 19.0156 70.2446 18.6772 70.186C18.3355 70.1281 18.0225 70.0142 17.7382 69.8443C17.4499 69.6718 17.2059 69.4518 17.0061 69.1844C16.8064 68.9169 16.6693 68.615 16.5947 68.2787C16.5115 67.9031 16.5135 67.5413 16.6008 67.1931C16.6848 66.8456 16.8393 66.5304 17.0644 66.2476C17.2862 65.9655 17.5635 65.7328 17.8963 65.5494C18.2258 65.3668 18.5944 65.2525 19.0022 65.2067L19.8391 68.983C20.055 68.8906 20.241 68.7638 20.3971 68.6024C20.5492 68.4386 20.6565 68.2503 20.719 68.0378C20.7808 67.822 20.7873 67.5962 20.7384 67.3603C20.6834 67.1122 20.5715 66.9006 20.4025 66.7257C20.2328 66.5475 20.0241 66.4173 19.7764 66.3351L19.7874 65.2485C20.2651 65.3482 20.6865 65.5648 21.0516 65.8984C21.4135 66.2327 21.6487 66.6448 21.7572 67.1346ZM19.0679 69.1899L18.4514 66.4078C18.2235 66.4926 18.0297 66.6229 17.87 66.7988C17.7063 66.9721 17.591 67.1706 17.5241 67.3944C17.4532 67.6157 17.4439 67.8438 17.496 68.0789C17.5473 68.3108 17.6506 68.514 17.8058 68.6886C17.9602 68.8599 18.1482 68.9895 18.3698 69.0774C18.5874 69.1628 18.8201 69.2003 19.0679 69.1899Z" fill="white"/>
<path d="M20.7095 60.8031L15.6937 60.904L15.6727 59.8607L16.2044 59.85C15.9936 59.6803 15.8254 59.4696 15.6999 59.2178C15.5744 58.9661 15.5087 58.6931 15.5028 58.3989C15.499 58.2116 15.5204 58.0255 15.5668 57.8406L16.6285 58.2357C16.581 58.3672 16.5585 58.4981 16.5612 58.6285C16.5656 58.8492 16.6248 59.0504 16.7389 59.2321C16.8496 59.4138 16.998 59.558 17.1841 59.6647C17.3703 59.7713 17.5754 59.8224 17.7994 59.8179L20.6885 59.7598L20.7095 60.8031Z" fill="white"/>
<path d="M16.5271 42.7759L16.9211 41.6117L19.8019 45.1183L22.8052 46.1348L22.4706 47.1232L19.4673 46.1068L15.0506 47.1383L15.4446 45.974L18.5559 45.2475L16.5271 42.7759Z" fill="white"/>
<path d="M26.4474 38.8005C26.2024 39.1917 25.878 39.4857 25.4744 39.6828C25.0725 39.877 24.6425 39.9648 24.1845 39.9462C23.7254 39.923 23.2904 39.7827 22.8794 39.5252C22.5677 39.3299 22.3118 39.0926 22.1118 38.8134C21.909 38.5324 21.7659 38.2316 21.6826 37.911C21.5982 37.5858 21.5787 37.2579 21.6241 36.9271C21.6694 36.5964 21.7836 36.2851 21.9665 35.9932C22.2115 35.602 22.535 35.3094 22.9369 35.1152C23.3405 34.9182 23.7719 34.8312 24.231 34.8544C24.6918 34.8748 25.1292 35.0146 25.543 35.2738C25.8519 35.4674 26.1064 35.7038 26.3064 35.983C26.5064 36.2622 26.6486 36.5644 26.7329 36.8896C26.8163 37.2102 26.8352 37.5358 26.7898 37.8666C26.7462 38.1944 26.6321 38.5058 26.4474 38.8005ZM25.5631 38.2465C25.7105 38.0113 25.7805 37.7611 25.773 37.4959C25.7654 37.2307 25.6934 36.9803 25.5568 36.7448C25.4192 36.5046 25.2299 36.309 24.989 36.1581C24.7424 36.0036 24.4801 35.9183 24.2022 35.902C23.926 35.8829 23.6684 35.9287 23.4294 36.0394C23.1875 36.1484 22.9946 36.3176 22.8508 36.5472C22.7052 36.7796 22.6352 37.0298 22.641 37.2978C22.6485 37.563 22.7211 37.8157 22.8587 38.0559C22.9981 38.2932 23.1897 38.4882 23.4335 38.6409C23.6857 38.799 23.9494 38.8852 24.2245 38.8997C24.4996 38.9142 24.7566 38.8661 24.9957 38.7554C25.2337 38.64 25.4229 38.4704 25.5631 38.2465Z" fill="white"/>
<path d="M28.6137 32.3706L26.3822 30.1679L27.1152 29.4253L29.1647 31.4482C29.3242 31.6056 29.5081 31.7096 29.7166 31.7603C29.925 31.811 30.1331 31.8096 30.3409 31.7562C30.5463 31.7005 30.7265 31.5941 30.8816 31.437C31.039 31.2775 31.1431 31.0959 31.1938 30.8922C31.2445 30.6837 31.2419 30.4768 31.1862 30.2714C31.1328 30.0637 31.0264 29.8811 30.8669 29.7236L28.8174 27.7007L29.5505 26.9581L33.1245 30.4787L32.3914 31.2214L32.0023 30.8443C32.0301 31.1114 31.9975 31.3777 31.9046 31.6432C31.8118 31.9087 31.6631 32.1449 31.4587 32.352C31.1979 32.6163 30.8964 32.7932 30.554 32.883C30.2117 32.9727 29.8688 32.9749 29.5253 32.8897C29.1818 32.8044 28.878 32.6314 28.6137 32.3706Z" fill="white"/>
<path d="M36.0741 28.1099L33.2372 23.9722L34.0979 23.3821L34.3986 23.8207C34.4248 23.5514 34.5086 23.2952 34.6502 23.0521C34.7918 22.8091 34.9839 22.6043 35.2267 22.4379C35.3811 22.332 35.5484 22.2477 35.7285 22.1851L35.9808 23.2895C35.8449 23.3218 35.7231 23.3749 35.6155 23.4487C35.4335 23.5735 35.2978 23.7334 35.2085 23.9285C35.1173 24.1208 35.0782 24.324 35.0912 24.5381C35.1042 24.7522 35.174 24.9517 35.3007 25.1365L36.9348 27.5198L36.0741 28.1099Z" fill="white"/>
<path d="M46.4385 22.5857L44.718 15.7761L46.9701 15.2071C47.4403 15.0883 47.9038 15.066 48.3607 15.1403C48.8167 15.2114 49.2401 15.3649 49.6309 15.6008C50.0208 15.8334 50.3554 16.1335 50.6345 16.5011C50.9161 16.8646 51.1163 17.2815 51.2351 17.7516C51.3539 18.2218 51.3761 18.6854 51.3018 19.1422C51.23 19.5951 51.0781 20.0181 50.8463 20.4112C50.6136 20.8012 50.3139 21.1374 49.9472 21.4198C49.5796 21.6989 49.1607 21.8979 48.6905 22.0167L46.4385 22.5857ZM47.1946 21.3183L48.4349 21.005C48.7657 20.9214 49.0582 20.782 49.3124 20.5866C49.5699 20.3905 49.781 20.1543 49.9458 19.8781C50.1138 19.6011 50.223 19.3027 50.2733 18.983C50.3236 18.6633 50.307 18.338 50.2234 18.0073C50.1398 17.6765 50 17.3824 49.8038 17.1249C49.6077 16.8675 49.3699 16.6568 49.0905 16.4928C48.8142 16.328 48.5163 16.2204 48.1965 16.1701C47.8801 16.119 47.5564 16.1352 47.2257 16.2188L45.9854 16.5322L47.1946 21.3183Z" fill="white"/>
<path d="M55.9844 20.7592L55.8071 15.7455L56.8499 15.7086L56.8687 16.2401C57.0352 16.0267 57.2433 15.8554 57.4931 15.726C57.7429 15.5967 58.0148 15.5269 58.309 15.5165C58.4961 15.5099 58.6825 15.5284 58.8681 15.572L58.4892 16.6396C58.3571 16.5941 58.2259 16.5736 58.0955 16.5782C57.8749 16.586 57.6746 16.6483 57.4947 16.7651C57.3147 16.8786 57.1727 17.0292 57.0689 17.2169C56.9651 17.4047 56.9172 17.6105 56.9251 17.8344L57.0272 20.7223L55.9844 20.7592Z" fill="white"/>
<path d="M64.554 21.2765C64.0985 21.2017 63.7019 21.0163 63.3641 20.7203C63.0296 20.4248 62.7824 20.0622 62.6224 19.6326C62.4662 19.2003 62.4274 18.7449 62.5059 18.2663C62.5655 17.9033 62.6854 17.5755 62.8655 17.2831C63.0462 16.9874 63.2683 16.7391 63.5317 16.5383C63.799 16.3347 64.0939 16.1899 64.4164 16.1039C64.739 16.0179 65.0702 16.0027 65.4101 16.0585C65.7897 16.1208 66.1249 16.2571 66.4157 16.4675C66.7071 16.6746 66.9423 16.9352 67.1212 17.2493C67.3007 17.56 67.4138 17.9039 67.4603 18.281C67.5075 18.6548 67.4766 19.0395 67.3676 19.4351L63.5506 18.8088C63.5562 19.0436 63.6048 19.2634 63.6966 19.4683C63.7923 19.6704 63.9271 19.8399 64.1012 19.977C64.2786 20.1145 64.4859 20.2045 64.723 20.2467C64.9738 20.2879 65.2118 20.2626 65.437 20.1707C65.6655 20.0794 65.8639 19.934 66.0322 19.7346L67.037 20.1485C66.767 20.555 66.4092 20.8657 65.9639 21.0807C65.519 21.2925 65.0491 21.3577 64.554 21.2765ZM63.6451 18.016L66.4571 18.4774C66.4631 18.2343 66.4141 18.006 66.3102 17.7924C66.2101 17.576 66.0687 17.3952 65.8857 17.2499C65.7067 17.1019 65.4983 17.0084 65.2607 16.9694C65.0264 16.931 64.7993 16.9513 64.5796 17.0305C64.3631 17.1102 64.1729 17.2366 64.009 17.4097C63.8489 17.58 63.7276 17.7821 63.6451 18.016Z" fill="white"/>
<path d="M76.3184 19.4289L77.2839 19.8245L75.3818 24.4667L74.4115 24.0692L74.6502 23.3808C74.4164 23.5634 74.1536 23.6798 73.8619 23.7301C73.5702 23.7805 73.2665 23.741 72.9508 23.6116C72.6104 23.4721 72.3161 23.2774 72.0679 23.0275C71.821 22.7745 71.6299 22.4866 71.4947 22.1638C71.3626 21.8422 71.294 21.5068 71.2889 21.1577C71.285 20.8055 71.3534 20.4577 71.4942 20.1142C71.6299 19.783 71.8192 19.4974 72.0622 19.2572C72.3065 19.0139 72.5835 18.8274 72.8933 18.6977C73.203 18.568 73.5272 18.5002 73.8657 18.4944C74.2087 18.4867 74.5457 18.5507 74.8768 18.6864C75.2142 18.8246 75.4796 19.0237 75.673 19.2837C75.8708 19.5419 76.006 19.825 76.0786 20.133L76.3184 19.4289ZM73.31 22.669C73.5823 22.7806 73.8479 22.8117 74.1067 22.7623C74.3667 22.7099 74.5994 22.5919 74.8046 22.4086C75.013 22.2265 75.1742 21.9962 75.2884 21.7176C75.4037 21.436 75.4511 21.1572 75.4304 20.8813C75.4098 20.6054 75.3246 20.359 75.1749 20.1422C75.0295 19.9236 74.8206 19.7585 74.5483 19.6469C74.279 19.5366 74.0051 19.5039 73.7265 19.5487C73.4479 19.5936 73.1966 19.7039 72.9728 19.8797C72.749 20.0554 72.58 20.2826 72.4659 20.5611C72.3505 20.8427 72.3124 21.1253 72.3516 21.4089C72.3952 21.6906 72.499 21.9446 72.6629 22.1708C72.8312 22.3951 73.0469 22.5612 73.31 22.669Z" fill="white"/>
<path d="M78.6214 26.1126L81.6596 22.1203L82.49 22.7522L82.1679 23.1754C82.4319 23.1157 82.7001 23.1139 82.9727 23.17C83.2479 23.2281 83.5026 23.3463 83.7368 23.5245C84.0216 23.7413 84.2311 24.01 84.3653 24.3307C84.5015 24.6487 84.5541 24.9745 84.523 25.3081C84.8362 25.1892 85.1616 25.151 85.4991 25.1935C85.8413 25.2353 86.1548 25.3646 86.4396 25.5814C86.735 25.8062 86.9491 26.0826 87.0819 26.4106C87.2148 26.7387 87.2609 27.0785 87.2203 27.4301C87.1797 27.7816 87.047 28.1051 86.8222 28.4006L84.9173 30.9037L84.0869 30.2718L85.8308 27.9802C85.9644 27.8046 86.0444 27.6111 86.0706 27.3999C86.0968 27.1887 86.0725 26.9832 85.9977 26.7833C85.9228 26.5835 85.7976 26.4167 85.6219 26.283C85.4462 26.1493 85.2541 26.0704 85.0456 26.0462C84.8371 26.022 84.6345 26.0507 84.4379 26.1322C84.2414 26.2138 84.0722 26.3478 83.9304 26.5341L82.1865 28.8256L81.3561 28.1937L83.1 25.9021C83.2418 25.7158 83.3258 25.5171 83.352 25.3059C83.3783 25.0947 83.3506 24.8908 83.269 24.6942C83.1901 24.4997 83.0628 24.3356 82.8872 24.2019C82.7142 24.0702 82.5201 23.994 82.3048 23.9731C82.0922 23.9542 81.8876 23.9855 81.6911 24.0671C81.4945 24.1487 81.3294 24.2773 81.1957 24.4529L79.4518 26.7445L78.6214 26.1126Z" fill="white"/>
<path d="M90.4778 37.7732L96.5578 34.257L97.7684 36.3502C97.9576 36.6774 98.0473 37.0196 98.0376 37.3768C98.0295 37.737 97.9331 38.0747 97.7485 38.3901C97.5655 38.7084 97.3076 38.9639 96.9746 39.1564C96.6359 39.3523 96.2821 39.4488 95.9133 39.4457C95.5491 39.4438 95.2088 39.3566 94.8927 39.184C94.5765 39.0114 94.3263 38.7659 94.1421 38.4474L93.4539 37.2575L91.0002 38.6765L90.4778 37.7732ZM94.3573 36.7351L94.9927 37.8338C95.0932 38.0075 95.2278 38.1402 95.3967 38.2318C95.5673 38.3264 95.7493 38.3738 95.9426 38.374C96.1376 38.3771 96.3263 38.326 96.5087 38.2205C96.6911 38.115 96.8295 37.9769 96.9241 37.8064C97.0232 37.637 97.0728 37.4557 97.0731 37.2624C97.0779 37.0703 97.0301 36.8874 96.9296 36.7136L96.2942 35.6149L94.3573 36.7351Z" fill="white"/>
<path d="M94.1452 44.9781L98.8858 43.3362L99.2273 44.3223L98.7248 44.4963C98.9776 44.5928 99.2025 44.7414 99.3995 44.9422C99.5965 45.143 99.7431 45.3824 99.8394 45.6605C99.9007 45.8375 99.9378 46.0211 99.9506 46.2114L98.8188 46.1627C98.8235 46.023 98.8045 45.8916 98.7618 45.7683C98.6896 45.5597 98.5712 45.3866 98.4067 45.2489C98.2454 45.1101 98.0597 45.0186 97.8498 44.9746C97.6399 44.9305 97.429 44.9451 97.2173 45.0184L94.4867 45.9642L94.1452 44.9781Z" fill="white"/>
<path d="M96.1659 53.3221C96.1036 52.8648 96.1643 52.4312 96.3481 52.0214C96.5324 51.6148 96.8063 51.272 97.17 50.9929C97.5374 50.7167 97.9614 50.5459 98.4419 50.4804C98.8064 50.4307 99.1549 50.449 99.4873 50.5354C99.8231 50.6212 100.126 50.7606 100.395 50.9534C100.668 51.1491 100.893 51.3885 101.07 51.6716C101.247 51.9546 101.359 52.2668 101.405 52.6081C101.468 53.0655 101.407 53.4974 101.222 53.9039C101.039 54.3138 100.763 54.6568 100.395 54.933C100.029 55.2126 99.6031 55.3853 99.1193 55.4512C98.7581 55.5005 98.4113 55.4819 98.0788 55.3956C97.7464 55.3092 97.4436 55.1682 97.1706 54.9725C96.9012 54.7797 96.6781 54.5418 96.5011 54.2587C96.3246 53.979 96.2129 53.6668 96.1659 53.3221ZM97.1999 53.1812C97.2373 53.4563 97.3439 53.6932 97.5195 53.8921C97.6951 54.0909 97.9108 54.2371 98.1666 54.3305C98.4261 54.4267 98.6967 54.4557 98.9784 54.4173C99.2667 54.378 99.5228 54.2756 99.7466 54.1101C99.971 53.9479 100.139 53.7477 100.252 53.5096C100.368 53.271 100.408 53.0175 100.371 52.749C100.334 52.4773 100.228 52.2403 100.052 52.0382C99.876 51.8393 99.6584 51.6918 99.3989 51.5955C99.1398 51.5025 98.8678 51.4755 98.5828 51.5143C98.2879 51.5545 98.0301 51.6571 97.8096 51.8222C97.589 51.9873 97.4224 52.1889 97.3097 52.427C97.2008 52.668 97.1642 52.9194 97.1999 53.1812Z" fill="white"/>
<path d="M94.1537 60.4948L94.2483 59.4556L101.743 60.1381L101.648 61.1773L100.913 61.1104C101.155 61.3003 101.344 61.5324 101.48 61.8068C101.616 62.0811 101.668 62.3948 101.636 62.7479C101.603 63.111 101.504 63.4445 101.338 63.7485C101.172 64.0558 100.957 64.3183 100.692 64.5359C100.431 64.7539 100.135 64.9168 99.8064 65.0245C99.4775 65.1323 99.1316 65.1696 98.7685 65.1365C98.4055 65.1035 98.0703 65.0041 97.763 64.8384C97.4556 64.6727 97.1913 64.4589 96.97 64.197C96.7521 63.9353 96.5893 63.6384 96.4819 63.3062C96.3742 62.9773 96.3368 62.6314 96.3699 62.2683C96.402 61.9153 96.5099 61.6161 96.6934 61.3709C96.8803 61.1259 97.1079 60.9317 97.3762 60.7882L94.1537 60.4948ZM100.633 62.6464C100.659 62.3567 100.609 62.0952 100.482 61.862C100.356 61.6288 100.175 61.4394 99.9396 61.2937C99.7077 61.1483 99.4418 61.062 99.1421 61.0347C98.8423 61.0074 98.5636 61.0441 98.3059 61.1449C98.0482 61.2457 97.836 61.3994 97.6695 61.6059C97.5029 61.8123 97.4064 62.0605 97.38 62.3502C97.3539 62.6367 97.4016 62.9063 97.523 63.1592C97.6477 63.4124 97.8267 63.6218 98.0602 63.7874C98.2936 63.9531 98.5619 64.0498 98.865 64.0774C99.1614 64.1044 99.4394 64.0575 99.6989 63.9367C99.9581 63.8192 100.172 63.6473 100.34 63.4208C100.509 63.1943 100.606 62.9362 100.633 62.6464Z" fill="white"/>
<path d="M94.7388 70.2547C94.8827 69.8162 95.127 69.4528 95.4715 69.1645C95.8149 68.8795 96.2112 68.691 96.6603 68.599C97.1115 68.5112 97.5675 68.5429 98.0283 68.6941C98.3778 68.8088 98.6832 68.9777 98.9444 69.2007C99.2088 69.4247 99.42 69.6823 99.5779 69.9735C99.7379 70.2689 99.8356 70.5826 99.871 70.9145C99.9064 71.2465 99.8704 71.5761 99.763 71.9034C99.6431 72.2688 99.4568 72.5791 99.2041 72.8341C98.9547 73.0902 98.661 73.2824 98.3231 73.4109C97.9885 73.5405 97.6313 73.5992 97.2515 73.5873C96.8749 73.5763 96.4996 73.4866 96.1254 73.3181L97.3315 69.6429C97.0986 69.6123 96.874 69.6265 96.6574 69.6857C96.443 69.7491 96.2547 69.8563 96.0925 70.0072C95.9293 70.1614 95.8086 70.3523 95.7303 70.5801C95.6511 70.8216 95.6395 71.0607 95.6956 71.2973C95.7507 71.5371 95.8638 71.7555 96.035 71.9525L95.4714 72.8817C95.1113 72.5523 94.8593 72.151 94.7153 71.6779C94.5746 71.2058 94.5824 70.7314 94.7388 70.2547ZM98.1003 69.8583L97.2118 72.5658C97.4511 72.6091 97.6842 72.5958 97.9113 72.526C98.1405 72.4604 98.3409 72.3484 98.5126 72.19C98.6864 72.0359 98.8108 71.8444 98.8859 71.6156C98.9599 71.39 98.9747 71.1625 98.9303 70.9332C98.8848 70.7071 98.7892 70.4997 98.6434 70.311C98.4998 70.1266 98.3187 69.9757 98.1003 69.8583Z" fill="white"/>
<path d="M92.4139 76.2357L96.7799 78.7069L96.2659 79.615L95.8031 79.3531C95.8979 79.6066 95.935 79.8736 95.9146 80.1541C95.8942 80.4346 95.8115 80.7029 95.6665 80.9591C95.5742 81.1221 95.461 81.2712 95.3267 81.4066L94.615 80.5253C94.7229 80.4365 94.809 80.3353 94.8732 80.2218C94.9819 80.0297 95.0336 79.8264 95.0282 79.612C95.0256 79.3992 94.9715 79.1994 94.8658 79.0128C94.7601 78.8261 94.6097 78.6776 94.4147 78.5672L91.8999 77.1438L92.4139 76.2357Z" fill="white"/>
<path d="M90.3676 86.2459L91.0339 85.4299L87.9594 82.9129L88.6194 82.1047L91.6939 84.6216L92.1984 84.0038L93.0067 84.6638L92.5022 85.2816L93.7255 86.2741L93.0655 87.0824L91.8422 86.0899L91.1758 86.9059L90.3676 86.2459Z" fill="white"/>
<path d="M85.2674 92.5291L84.4121 93.2424L81.7036 85.7024L82.5551 84.9923L83.4643 87.5003L88.0607 90.1995L87.1861 90.9289L83.9794 88.9325L85.2674 92.5291Z" fill="white"/>
</svg>
