<svg width="1440" height="49" viewBox="0 0 1440 49" fill="none" xmlns="http://www.w3.org/2000/svg">
<g clip-path="url(#clip0_139_6241)">
<g style="mix-blend-mode:color-dodge">
<path d="M-62.3115 187.986C-10.3695 147.513 47.4968 120.643 113.102 143.967C168.465 163.64 214.316 208.493 255.244 248.819C297.799 290.773 354.914 373.178 424.588 359.117C463.575 351.252 497.87 319.729 526.615 294.152C592.346 235.635 651.047 168.918 710.436 104.183C764.818 44.9141 828.692 -9.11851 882.637 76.374C917.933 132.305 944.738 221.574 1024.44 222.679C1095.91 223.66 1155.51 171.776 1222.24 154.002C1326.11 126.318 1427.61 217.067 1502.21 275.043" stroke="#666666" stroke-miterlimit="10"/>
<path d="M-62.3115 165.622C-5.00841 120.539 56.133 96.2973 126.182 127.59C184.111 153.48 234.843 202.464 279.671 245.836C319.89 284.765 369.725 350.459 433.14 329.993C471.836 317.497 505.484 284.118 534.354 257.289C592.221 203.528 645.998 145.302 700.59 88.2654C752.615 33.8781 815.738 -19.0279 871.665 56.8055C911.445 110.755 936.769 197.04 1016.18 200.983C1086.92 204.488 1155.32 157.819 1223.51 145.302C1326.65 126.359 1422.56 197.457 1502.23 252.241" stroke="#666666" stroke-miterlimit="10"/>
<path d="M-62.3115 140.775C-0.690336 93.7521 62.099 73.0778 134.088 110.212C189.242 138.647 240.141 184.439 285.512 226.226C327.796 265.175 379.717 332.288 443.612 302.581C476.968 287.08 504.42 257.561 530.62 232.589C585.733 180.016 637.863 124.273 691.682 70.4075C747.358 14.6851 810.44 -28.5201 868.202 45.5608C907.961 96.5684 936.603 176.866 1011.99 180.204C1081.35 183.292 1150.25 150.059 1217.94 139.002C1322.43 121.937 1415.2 175.218 1502.23 226.56" stroke="#666666" stroke-miterlimit="10"/>
<path d="M-62.3115 113.905C8.75935 62.626 76.5552 51.0267 152.236 98.7381C206.619 133.014 256.892 179.453 305.559 221.323C346.195 256.288 391.9 311.176 448.765 279.382C479.221 262.359 504.566 232.005 528.826 207.45C580.476 155.149 630.77 101.575 683.922 50.7764C738.993 -1.85845 802.033 -39.8482 860.65 26.6599C904.415 76.3115 934.725 155.504 1009.93 162.68C1076.2 169.001 1148.42 143.091 1213.61 132.994C1317.78 116.867 1409.44 153.689 1502.19 198.646" stroke="#666666" stroke-miterlimit="10"/>
<path d="M-62.3115 85.5116C14.6837 33.7112 85.4834 28.162 162.645 82.3615C220.866 123.251 273.184 174.926 328.547 219.738C366.617 250.53 408.734 292.755 456.316 257.373C487.773 233.986 513.452 198.751 539.569 170.044C583.73 121.54 628.997 73.6828 677.581 29.5805C737.116 -24.4729 801.678 -50.008 861.631 15.144C905.521 62.8346 939.147 137.27 1011.26 145.344C1079.52 152.979 1153.32 135.059 1220.93 125.775C1320.35 112.132 1408.84 134.35 1502.21 168.918" stroke="#666666" stroke-miterlimit="10"/>
<path d="M-62.3115 56.0335C25.4684 1.14558 100.086 6.98697 180.669 71.3254C241.81 120.142 293.919 176.95 357.647 223.013C401.37 254.598 432.89 272.435 472.796 228.416C540.612 153.605 595.537 68.3421 674.994 3.8368C733.319 -43.4991 797.485 -61.1484 855.602 -6.0518C904.707 40.4913 937.75 111.944 1008.63 128.717C1074.07 144.176 1156.2 128.925 1221.99 119.955C1319.1 106.707 1406.73 114.489 1502.23 138.021" stroke="#666666" stroke-miterlimit="10"/>
<path d="M-62.3115 25.9714C35.982 -31.3783 116.023 -12.7485 198.901 60.6649C258.269 113.258 307.645 174.154 375.024 217.359C424.483 249.091 450.517 254.702 484.352 204.175C537.963 124.127 591.929 42.3063 670.029 -16.7331C733.173 -64.4863 797.152 -75.2093 858.856 -20.1545C910.235 25.7002 946.803 99.4682 1019.46 115.699C1083.9 130.094 1159.1 123.251 1224.06 114.405C1318.37 101.554 1406.96 95.7548 1502.23 106.374" stroke="#666666" stroke-miterlimit="10"/>
<path d="M-62.3115 -4.195C44.8267 -63.3388 128.643 -34.1946 213.565 46.7292C273.664 103.995 323.207 173.946 397.198 214.543C452.123 244.689 471.398 229.021 497.599 177.346C539.277 95.1708 591.991 12.1191 669.195 -41.4128C734.55 -86.7459 800.656 -88.1437 862.048 -36.0513C915.596 9.40705 954.605 81.2558 1026.34 101.408C1180.21 144.635 1347.65 80.0249 1502.23 74.6634" stroke="#666666" stroke-miterlimit="10"/>
<path d="M-62.3115 -34.0068C-9.01358 -62.4 41.0927 -79.2565 100.732 -58.5822C150.067 -41.4754 190.473 -5.57187 226.666 30.9992C286.368 91.3739 337.413 172.611 416.953 208.493C476.613 235.405 490.736 199.147 510.866 148.557C543.679 66.0265 593.222 -18.5272 670.634 -66.8436C839.352 -172.176 900.243 40.9504 1034.48 87.1597C1191.24 141.13 1348.93 73.0362 1502.23 43.3495" stroke="#666666" stroke-miterlimit="10"/>
<path d="M-62.3115 -62.9841C-6.71895 -92.3995 44.5138 -108.797 105.238 -86.4539C156.179 -67.7198 197.357 -29.438 234.259 9.34445C292.292 70.3241 352.307 175.886 438.877 200.169C499.476 217.172 509.03 160.469 524.383 114.823C551.251 34.9213 597.561 -53.179 675.036 -95.4454C835.868 -183.191 916.869 14.101 1038.3 69.8651C1197.61 143.028 1351.87 68.0084 1502.21 12.9745" stroke="#666666" stroke-miterlimit="10"/>
<path d="M-62.3115 -90.6263C-6.17658 -121.168 44.3887 -137.754 106.177 -116.12C157.41 -98.1784 199.276 -58.1442 235.698 -19.1322C294.795 44.1839 358.148 164.453 450.037 182.395C512.493 194.599 521.254 132.201 534.897 85.3447C558.323 4.96337 600.502 -84.0131 681.461 -121.398C842.523 -195.771 929.385 -6.36471 1048.18 54.8861C1110.03 86.7633 1190.12 103.098 1259.02 91.9996C1346.36 77.9387 1426.23 26.18 1502.23 -15.8152" stroke="#666666" stroke-miterlimit="10"/>
<path d="M-62.3115 -116.495C-2.52605 -151.064 55.2568 -170.987 121.446 -141.112C171.115 -118.686 210.52 -77.4624 246.128 -37.4491C299.489 22.5083 366.742 148.828 456.504 158.299C524.07 165.434 532.602 91.6449 547.079 41.8265C569.462 -35.1752 609.764 -117.726 690.89 -147.434C850.742 -205.993 943.173 -30.3977 1058.51 38.2174C1116.79 72.8901 1192.97 96.631 1261.15 88.1402C1352.47 76.7495 1431.51 10.6587 1502.19 -42.6437" stroke="#666666" stroke-miterlimit="10"/>
<path d="M-62.3115 -140.09C-5.86368 -176.056 49.708 -201.091 116.398 -174.158C169.842 -152.566 212.397 -106.732 249.111 -63.9022C301.596 -2.67218 367.597 123.042 460.843 125.254C527.324 126.818 539.632 51.9654 555.319 1.98005C579.579 -75.2511 617.941 -150.167 703.03 -172.009C865.97 -213.858 956.441 -53.3043 1073.03 23.7183C1130.1 61.4368 1206.22 92.542 1275.75 82.5074C1366.68 69.3643 1439.73 -6.21873 1502.21 -66.8437" stroke="#666666" stroke-miterlimit="10"/>
<path d="M-62.3115 -160.931C-10.4947 -198.504 43.3248 -229.985 109.222 -207.913C160.58 -190.722 201.028 -148.623 235.594 -108.693C292.208 -43.3114 349.157 72.9943 446.616 80.4211C520.712 86.0539 539.966 14.0383 561.285 -42.9359C590.364 -120.668 630.896 -186.487 719.948 -198.525C877.818 -219.867 968.79 -84.1175 1078.47 1.3333C1133.46 44.163 1207.91 85.1777 1279.86 78.1681C1375.29 68.8636 1445.53 -19.8833 1502.21 -87.9143" stroke="#666666" stroke-miterlimit="10"/>
<path d="M-62.3115 -177.371C-10.745 -213.357 42.4278 -242.981 107.011 -221.953C157.305 -205.576 197.336 -165.333 231.484 -126.613C286.493 -64.2776 344.714 55.3869 439.378 58.6622C512.576 61.1865 537.629 -3.65263 563.872 -60.6476C597.519 -133.685 643.057 -200.548 729.419 -212.21C881.761 -232.78 976.925 -105.96 1085.04 -24.8484C1138.09 14.9354 1212.92 55.4077 1281.05 54.0725C1376.29 52.1949 1446.84 -38.4087 1502.21 -104.541" stroke="#666666" stroke-miterlimit="10"/>
<path d="M-62.3115 -188.615C-11.5585 -223.35 40.8424 -252.161 104.153 -233.009C153.071 -218.218 192.517 -180.542 226.123 -143.658C280.256 -84.2217 338.226 34.191 429.823 34.7543C501.645 35.1924 532.226 -21.9695 563.579 -77.6502C601.879 -145.66 652.152 -210.917 735.447 -222.349C882.282 -242.481 981.473 -128.741 1089.65 -53.033C1142.18 -16.2741 1216.19 24.7406 1281.19 30.5402C1375.96 38.9893 1447.66 -52.5114 1502.19 -116.266" stroke="#666666" stroke-miterlimit="10"/>
<path d="M-62.3115 -195.583C-13.6237 -228.858 38.4226 -257.627 99.2303 -242.189C151.068 -229.046 192.246 -189.846 227.542 -151.898C281.194 -94.2146 334.993 12.9326 424.629 8.94795C492.446 5.94382 527.012 -45.5436 562.432 -96.2174C605.926 -158.47 658.431 -216.841 738.076 -228.149C882.7 -248.698 984.018 -150.375 1096.54 -80.2371C1148.52 -47.8176 1214.48 -9.36887 1274.37 6.1316C1371.46 31.2494 1445.38 -59.7298 1502.21 -123.985" stroke="#666666" stroke-miterlimit="10"/>
<path d="M-62.3115 -199.171C-14.9588 -231.946 35.982 -261.34 95.7883 -249.178C145.582 -239.039 186.051 -204.157 220.741 -169.13C275.145 -114.221 325.793 -15.6066 412.635 -19.4661C478.511 -22.3868 518.125 -65.738 558.427 -112.448C606.718 -168.4 662.457 -221.556 739.035 -232.697C877.547 -252.849 983.684 -174.241 1097.52 -111.697C1154.01 -80.6544 1213.42 -42.7064 1272.72 -17.5885C1368.2 22.8629 1443.26 -64.6741 1502.19 -128.533" stroke="#666666" stroke-miterlimit="10"/>
</g>
</g>
<defs>
<clipPath id="clip0_139_6241">
<rect width="1566" height="1046" fill="white" transform="translate(-63 -499)"/>
</clipPath>
</defs>
</svg>
