<svg width="21" height="20" viewBox="0 0 21 20" fill="none" xmlns="http://www.w3.org/2000/svg">
<path d="M18.8337 4.83326C18.2073 5.10501 17.5448 5.28465 16.867 5.3666C17.5821 4.93936 18.1181 4.26725 18.3753 3.47493C17.7033 3.87498 16.9676 4.15684 16.2003 4.30826C15.6874 3.75207 15.0045 3.38184 14.2585 3.25564C13.5125 3.12944 12.7458 3.2544 12.0785 3.61092C11.4112 3.96745 10.8811 4.53537 10.5714 5.22563C10.2616 5.91588 10.1897 6.68942 10.367 7.42493C9.00818 7.3562 7.67903 7.00239 6.46587 6.38648C5.25272 5.77057 4.1827 4.90634 3.32533 3.84993C3.02461 4.37507 2.86659 4.96978 2.86699 5.57493C2.86593 6.13692 3.00384 6.69044 3.26845 7.18623C3.53307 7.68202 3.91617 8.10469 4.38366 8.4166C3.84031 8.40181 3.30856 8.25601 2.83366 7.9916V8.03326C2.83773 8.82067 3.11365 9.58251 3.61475 10.1899C4.11585 10.7973 4.81137 11.213 5.58366 11.3666C5.28637 11.4571 4.97772 11.5048 4.66699 11.5083C4.4519 11.5058 4.23734 11.4862 4.02533 11.4499C4.24525 12.1273 4.67084 12.7192 5.24289 13.1434C5.81493 13.5676 6.50497 13.8029 7.21699 13.8166C6.01466 14.7627 4.53023 15.279 3.00033 15.2833C2.72177 15.2842 2.44344 15.2675 2.16699 15.2333C3.72902 16.2418 5.54934 16.7772 7.40866 16.7749C8.69174 16.7883 9.9646 16.5458 11.1529 16.0617C12.3412 15.5775 13.4212 14.8615 14.3297 13.9553C15.2381 13.0492 15.957 11.9711 16.4441 10.784C16.9313 9.59695 17.177 8.3247 17.167 7.0416C17.167 6.89993 17.167 6.74993 17.167 6.59993C17.8209 6.11227 18.3849 5.51445 18.8337 4.83326Z" fill="white"/>
</svg>
